<?xml version="1.0" standalone="no"?>
<!DOCTYPE svg PUBLIC "-//W3C//DTD SVG 20010904//EN"
 "http://www.w3.org/TR/2001/REC-SVG-20010904/DTD/svg10.dtd">
<svg version="1.0" xmlns="http://www.w3.org/2000/svg"
 width="1920.000000pt" height="1080.000000pt" viewBox="0 0 1920.000000 1080.000000"
 preserveAspectRatio="xMidYMid meet">

<g transform="translate(0.000000,1080.000000) scale(0.100000,-0.100000)"
fill="#000000" stroke="none">
<path d="M0 5400 l0 -5400 9600 0 9600 0 0 5400 0 5400 -9600 0 -9600 0 0
-5400z m8878 4967 l3 -138 -153 3 -153 3 -3 124 c-1 69 0 131 2 138 4 11 38
13 153 11 l148 -3 3 -138z m210 71 c16 -16 15 -60 -2 -84 -13 -17 -12 -22 11
-46 24 -25 25 -28 8 -34 -14 -6 -26 1 -45 24 -32 39 -38 40 -42 5 -2 -17 -9
-28 -18 -28 -12 0 -16 18 -18 88 l-3 87 49 0 c26 0 53 -5 60 -12z m162 -2 c0
-9 -12 -16 -32 -18 -42 -4 -44 -31 -4 -38 17 -3 30 -9 30 -15 0 -5 -13 -12
-30 -15 -21 -4 -29 -11 -29 -25 0 -15 8 -21 33 -23 49 -5 34 -27 -19 -27 l-44
0 -3 88 -3 87 51 0 c37 0 50 -4 50 -14z m157 -69 c19 -42 31 -82 28 -87 -8
-13 -35 -1 -35 16 0 23 -73 18 -88 -6 -14 -24 -32 -26 -32 -5 0 9 11 41 24 73
12 31 26 65 29 75 13 37 41 12 74 -66z m193 64 c0 -17 -5 -19 -34 -14 -26 4
-39 0 -55 -16 -28 -28 -27 -46 4 -77 20 -20 32 -24 55 -19 23 5 30 3 30 -9 0
-19 -40 -31 -75 -22 -64 16 -87 99 -40 150 19 21 33 26 70 26 38 0 45 -3 45
-19z m78 -19 c3 -28 7 -32 33 -32 27 0 29 3 29 36 0 28 3 35 18 32 15 -3 17
-15 17 -88 0 -69 -3 -85 -15 -85 -10 0 -17 13 -20 35 -4 29 -9 35 -30 35 -20
0 -26 -6 -28 -30 -4 -30 -19 -48 -34 -39 -4 3 -8 43 -8 90 0 76 2 85 18 82 11
-2 18 -14 20 -36z m180 -49 c-2 -58 -7 -88 -15 -91 -10 -3 -13 19 -13 87 0 75
3 91 15 91 13 0 15 -14 13 -87z m122 34 l35 -52 3 53 c3 44 6 52 23 52 17 0
19 -7 19 -84 0 -116 -20 -125 -77 -33 l-32 52 -1 -51 c0 -35 -5 -54 -14 -57
-23 -9 -26 2 -26 90 0 72 2 83 18 83 9 0 32 -23 52 -53z m210 38 c7 -9 10 -27
7 -44 -4 -19 -1 -33 8 -41 19 -16 19 -44 0 -60 -8 -7 -35 -15 -60 -18 l-45 -5
0 92 0 91 39 0 c22 0 44 -6 51 -15z m204 -16 c31 -37 33 -63 6 -106 -32 -52
-108 -54 -147 -4 -7 9 -13 33 -13 54 0 83 100 120 154 56z m107 9 l19 -23 19
23 c18 21 51 31 51 15 0 -5 -9 -19 -20 -33 -26 -33 -25 -44 5 -88 17 -25 22
-39 14 -47 -7 -7 -19 0 -40 25 l-29 34 -29 -34 c-21 -25 -33 -32 -40 -25 -8 8
-3 22 14 47 30 44 31 55 5 88 -11 14 -20 28 -20 33 0 16 33 6 51 -15z m-2013
-3586 c3 -10 -4 -12 -30 -7 -72 14 -119 -74 -67 -126 17 -17 29 -20 61 -15 30
5 39 3 36 -6 -6 -17 -76 -22 -104 -7 -52 27 -56 120 -7 159 30 24 103 25 111
2z m432 -12 c0 -13 7 -20 20 -20 11 0 20 -4 20 -10 0 -5 -9 -10 -20 -10 -17 0
-20 -7 -20 -46 0 -37 4 -47 20 -51 28 -7 25 -23 -5 -23 -30 0 -45 26 -45 79 0
22 -5 42 -12 44 -9 4 -10 8 -2 14 6 4 13 16 17 26 9 23 27 22 27 -3z m1930 0
c0 -13 7 -20 20 -20 11 0 20 -4 20 -10 0 -5 -9 -10 -20 -10 -17 0 -20 -7 -20
-46 0 -37 4 -47 20 -51 30 -8 24 -25 -7 -21 -27 3 -28 6 -31 61 -2 42 -7 57
-17 57 -8 0 -15 5 -15 10 0 6 7 10 15 10 8 0 15 9 15 20 0 11 5 20 10 20 6 0
10 -9 10 -20z m-2260 -31 c0 -5 -7 -9 -15 -9 -21 0 -35 -32 -35 -79 0 -30 -4
-41 -15 -41 -12 0 -15 14 -15 69 l0 69 40 0 c22 0 40 -3 40 -9z m114 -5 c9 -8
16 -26 16 -40 0 -22 -4 -24 -45 -24 -25 0 -45 -4 -45 -9 0 -17 31 -33 55 -28
16 3 24 0 22 -7 -2 -6 -20 -12 -39 -14 -42 -4 -68 24 -68 70 0 55 68 89 104
52z m134 4 c7 -7 12 -38 12 -69 l0 -58 -46 2 c-78 3 -89 60 -16 82 46 13 43
39 -3 32 -33 -5 -44 1 -28 16 11 12 68 8 81 -5z m236 -4 c9 -8 16 -26 16 -40
0 -22 -4 -24 -45 -24 -25 0 -45 -4 -45 -9 0 -17 31 -33 55 -28 16 3 24 0 22
-7 -2 -6 -20 -12 -39 -14 -42 -4 -68 24 -68 70 0 55 68 89 104 52z m216 -3 c5
-11 10 -42 10 -69 l0 -49 -50 -2 c-39 0 -52 3 -60 18 -18 35 12 71 60 71 13 0
20 5 17 13 -2 6 -18 11 -36 11 -17 -1 -31 1 -31 5 0 28 75 29 90 2z m218 7
c19 -16 16 -128 -3 -128 -12 0 -15 13 -15 55 0 40 -4 57 -15 61 -27 11 -45
-16 -45 -67 0 -37 -4 -49 -15 -49 -12 0 -15 14 -15 68 l0 69 48 1 c26 0 53 -4
60 -10z m146 -4 c9 -8 16 -26 16 -40 0 -22 -4 -24 -45 -24 -32 0 -45 -4 -45
-14 0 -18 33 -29 61 -21 15 5 20 3 17 -6 -7 -21 -67 -23 -89 -3 -23 21 -25 71
-3 102 18 26 65 30 88 6z m66 -26 c6 -24 12 -47 14 -53 2 -5 9 13 17 40 17 60
39 65 54 13 15 -53 22 -55 30 -9 6 39 20 59 32 47 3 -3 -3 -35 -12 -71 -20
-72 -41 -84 -57 -30 -5 17 -12 37 -15 45 -3 9 -11 -5 -19 -32 -9 -29 -20 -48
-29 -48 -8 0 -15 1 -15 3 0 1 -9 32 -19 70 -16 55 -17 67 -6 67 8 0 19 -18 25
-42z m338 30 c7 -7 12 -38 12 -69 l0 -58 -46 2 c-78 3 -89 60 -16 82 46 13 43
39 -3 32 -33 -5 -44 1 -28 16 11 12 68 8 81 -5z m142 -2 c0 -8 -8 -12 -23 -9
-27 5 -57 -19 -57 -47 0 -28 30 -52 57 -47 15 3 23 -1 23 -9 0 -20 -59 -18
-82 3 -23 20 -24 80 -1 105 19 22 83 25 83 4z m130 -1 c0 -11 -7 -14 -25 -9
-33 8 -55 -11 -55 -46 0 -36 22 -54 56 -46 19 5 25 3 22 -6 -3 -7 -21 -14 -40
-16 -28 -2 -40 2 -52 20 -22 31 -20 74 4 98 25 25 90 28 90 5z m132 -2 c23
-20 24 -80 1 -105 -20 -22 -70 -23 -95 -1 -23 20 -24 80 -1 105 20 22 70 23
95 1z m78 -38 c0 -40 4 -57 15 -61 27 -11 45 16 45 67 0 37 4 49 15 49 12 0
15 -14 15 -69 l0 -68 -50 -2 c-59 -1 -70 13 -70 88 0 39 4 51 15 51 12 0 15
-13 15 -55z m229 45 c9 -5 16 -31 19 -69 4 -51 2 -61 -12 -61 -12 0 -16 10
-16 48 0 55 -10 75 -36 70 -16 -3 -20 -14 -22 -61 -2 -42 -7 -57 -17 -57 -12
0 -15 15 -15 69 l0 68 43 1 c23 1 49 -3 56 -8z m-1709 -800 c0 -5 -4 -10 -10
-10 -5 0 -10 5 -10 10 0 6 5 10 10 10 6 0 10 -4 10 -10z m880 -35 c23 0 25 -4
26 -50 l2 -50 -7 45 c-5 36 -10 45 -26 45 -16 0 -21 -9 -26 -45 -5 -37 -6 -31
-6 30 0 41 2 64 6 50 4 -18 13 -25 31 -25z m587 -62 c-2 -21 -4 -4 -4 37 0 41
2 58 4 38 2 -21 2 -55 0 -75z m-1541 88 c-41 -8 -43 -28 -7 -48 39 -22 41 -66
2 -71 -13 -2 -27 0 -32 5 -5 5 3 9 18 8 37 0 42 28 8 43 -49 23 -40 73 14 71
26 -1 26 -1 -3 -8z m390 -89 c4 -18 10 -23 32 -20 25 3 27 7 33 63 l6 60 1
-55 c2 -60 -9 -80 -43 -80 -34 0 -45 20 -43 80 1 44 2 47 5 15 2 -22 6 -50 9
-63z m488 66 c8 -5 7 -8 -1 -8 -16 0 -18 -76 -3 -83 6 -3 5 -4 -2 -3 -7 1 -14
20 -16 42 -2 21 -9 42 -15 46 -9 6 -9 8 1 8 6 0 12 8 13 18 0 13 2 14 6 2 3
-8 11 -18 17 -22z m261 25 c-16 -3 -38 -12 -47 -20 -37 -33 -12 -93 38 -93 19
0 24 5 24 24 0 15 -7 26 -17 29 -14 4 -12 5 5 6 19 1 22 -4 22 -34 0 -32 -2
-35 -30 -35 -17 0 -39 9 -50 20 -43 43 -10 111 53 109 l32 -2 -30 -4z m-1078
-100 c-2 -16 -4 -3 -4 27 0 30 2 43 4 28 2 -16 2 -40 0 -55z m123 28 c0 -58
-22 -91 -58 -90 -27 1 -27 1 3 8 16 3 31 14 33 23 2 12 -2 15 -17 11 -41 -11
-64 34 -41 77 7 14 20 19 45 18 35 -1 35 -2 35 -47z m40 -11 l-7 -45 -2 55 c0
32 3 50 8 45 5 -6 5 -30 1 -55z m58 48 c7 -7 12 -30 11 -52 -1 -45 -4 -41 -14
16 -3 23 -12 38 -23 41 -13 4 -14 5 -1 6 8 0 20 -4 27 -11z m236 -35 c1 -29 6
-39 20 -41 39 -8 51 63 14 78 -14 5 -17 9 -7 9 23 1 39 -20 39 -50 0 -32 -23
-53 -49 -46 -15 4 -21 -1 -24 -22 -2 -14 -5 7 -6 48 0 41 2 71 6 68 4 -4 7
-24 7 -44z m187 13 l16 39 13 -45 13 -45 9 35 c5 19 14 39 19 45 5 5 3 -12 -5
-39 -8 -26 -17 -50 -20 -53 -6 -6 -25 39 -27 60 0 7 -9 -6 -19 -28 -18 -40
-18 -40 -27 -15 -6 14 -13 39 -16 55 -5 26 -4 24 11 -9 l18 -39 15 39z m106
-43 c-2 -16 -4 -3 -4 27 0 30 2 43 4 28 2 -16 2 -40 0 -55z m467 55 c26 -43
-31 -99 -70 -68 -17 15 -18 62 -2 78 17 17 58 11 72 -10z m104 10 c7 -7 12
-24 12 -38 0 -32 -17 -50 -47 -50 -38 0 -56 55 -27 84 18 19 45 21 62 4z m122
-37 c0 -58 -22 -91 -58 -90 -27 1 -27 1 3 8 16 3 31 14 33 23 2 12 -2 15 -17
11 -41 -11 -64 34 -41 77 7 14 20 19 45 18 35 -1 35 -2 35 -47z m138 37 c23
-23 13 -38 -23 -38 -49 0 -42 -30 10 -43 16 -4 15 -5 -5 -6 -33 -1 -50 16 -50
49 0 29 16 50 40 50 9 0 21 -5 28 -12z m-2010 -45 c3 -35 8 -43 34 -54 23 -9
38 -10 59 -2 17 7 29 7 29 2 0 -15 -49 -30 -78 -23 -34 8 -82 52 -82 75 0 60
34 61 38 2z m242 -1196 c0 -9 -9 -12 -28 -9 -36 5 -62 -19 -62 -58 0 -40 26
-63 62 -56 21 4 28 2 28 -9 0 -11 -11 -15 -39 -15 -73 0 -108 84 -56 135 27
28 95 36 95 12z m946 -34 c9 -27 23 -63 30 -80 11 -29 11 -33 -2 -33 -9 0 -18
9 -21 20 -4 15 -14 20 -38 20 -24 0 -34 -5 -38 -20 -3 -11 -12 -20 -21 -20
-13 0 -13 4 -2 33 7 17 21 53 30 80 10 26 24 47 31 47 7 0 21 -21 31 -47z
m-596 12 c0 -8 7 -15 15 -15 8 0 15 -4 15 -10 0 -5 -7 -10 -15 -10 -10 0 -15
-11 -15 -35 0 -24 5 -35 15 -35 8 0 15 -4 15 -10 0 -5 -11 -10 -25 -10 -25 0
-27 4 -38 75 -5 31 7 65 23 65 6 0 10 -7 10 -15z m1250 0 c0 -8 7 -15 15 -15
8 0 15 -4 15 -10 0 -5 -7 -10 -15 -10 -10 0 -15 -11 -15 -35 0 -24 5 -35 15
-35 8 0 15 -4 15 -10 0 -5 -11 -10 -25 -10 -25 0 -27 4 -38 75 -5 31 7 65 23
65 6 0 10 -7 10 -15z m-1510 -24 c0 -5 -9 -11 -20 -14 -16 -4 -20 -14 -20 -46
0 -30 -4 -41 -15 -41 -12 0 -15 13 -15 55 l0 55 35 0 c19 0 35 -4 35 -9z m98
-23 c3 -26 1 -28 -33 -28 -25 0 -35 -4 -32 -12 2 -7 18 -12 36 -11 20 0 31 -3
28 -10 -2 -7 -21 -12 -43 -12 -33 0 -40 4 -48 27 -7 19 -6 35 2 53 10 22 17
26 50 23 32 -3 37 -7 40 -30z m102 13 c5 -11 10 -36 10 -56 l0 -36 -47 3 c-44
3 -48 5 -48 28 0 20 7 27 33 35 40 12 42 30 2 22 -16 -4 -30 -3 -30 2 0 28 65
29 80 2z m188 7 c7 -7 12 -20 12 -30 0 -14 -8 -18 -40 -18 -32 0 -38 -3 -33
-16 4 -11 15 -15 34 -12 20 3 29 0 29 -9 0 -17 -61 -18 -78 -1 -7 7 -12 26
-12 43 0 38 16 55 50 55 14 0 31 -5 38 -12z m170 -44 l3 -52 -43 2 c-32 1 -44
5 -46 19 -5 25 16 47 45 47 15 0 22 4 17 11 -3 6 -17 9 -30 6 -16 -3 -24 0
-24 10 0 10 10 13 38 11 l37 -3 3 -51z m120 -1 c2 -31 -1 -53 -7 -53 -5 0 -11
19 -13 43 -2 34 -7 42 -23 42 -16 0 -21 -8 -23 -42 -2 -29 -8 -43 -18 -43 -10
0 -14 14 -14 54 l0 55 48 -2 47 -2 3 -52z m312 48 c0 -5 -12 -11 -27 -13 -24
-3 -28 -8 -28 -33 0 -25 4 -30 28 -33 36 -4 35 -22 -2 -22 -54 0 -80 53 -44
92 17 18 73 25 73 9z m100 0 c0 -5 -12 -11 -26 -13 -56 -6 -53 -68 2 -68 13 0
24 -4 24 -10 0 -14 -64 -12 -78 2 -17 17 -15 64 4 82 17 17 74 22 74 7z m108
-3 c7 -7 12 -26 12 -43 0 -17 -5 -36 -12 -43 -7 -7 -26 -12 -43 -12 -17 0 -36
5 -43 12 -7 7 -12 26 -12 43 0 17 5 36 12 43 7 7 26 12 43 12 17 0 36 -5 43
-12z m62 -33 c0 -37 3 -45 19 -45 19 0 31 25 31 68 0 12 5 22 10 22 6 0 10
-25 10 -55 l0 -55 -38 0 c-49 0 -62 14 -62 67 0 32 4 43 15 43 11 0 15 -12 15
-45z m188 -12 c2 -31 -1 -53 -7 -53 -5 0 -11 19 -13 43 -2 34 -7 42 -23 42
-16 0 -21 -8 -23 -42 -5 -62 -22 -53 -22 11 l0 54 43 -2 42 -1 3 -52z m229
-738 c2 -6 -11 -10 -29 -10 -44 0 -46 -21 -4 -46 39 -23 48 -57 22 -78 -17
-14 -68 -11 -73 5 -2 6 10 8 32 6 30 -4 35 -1 35 16 0 12 -13 28 -35 41 -38
22 -46 53 -17 70 20 13 64 10 69 -4z m53 5 c0 -5 -4 -10 -10 -10 -5 0 -10 5
-10 10 0 6 5 10 10 10 6 0 10 -4 10 -10z m360 -70 c0 -47 -4 -80 -10 -80 -6 0
-10 33 -10 80 0 47 4 80 10 80 6 0 10 -33 10 -80z m-360 -25 c0 -30 -4 -55
-10 -55 -5 0 -10 25 -10 55 0 30 5 55 10 55 6 0 10 -25 10 -55z m130 -4 c0
-72 -20 -103 -63 -99 -17 2 -32 8 -34 14 -2 7 8 9 28 6 20 -3 34 0 40 9 14 23
11 27 -23 25 -25 -1 -35 5 -47 25 -13 24 -13 29 2 53 14 21 24 26 57 24 l40
-1 0 -56z m107 47 c15 -12 18 -98 3 -98 -5 0 -10 21 -10 46 0 41 -2 45 -22 42
-19 -2 -24 -10 -26 -45 -5 -62 -22 -53 -22 10 0 54 0 54 32 55 18 0 38 -4 45
-10z m240 0 c15 -12 18 -98 3 -98 -5 0 -10 21 -10 46 0 41 -2 45 -22 42 -19
-2 -24 -10 -26 -45 -5 -62 -22 -53 -22 10 0 54 0 54 32 55 18 0 38 -4 45 -10z"/>
<path d="M8630 10360 c0 -56 3 -70 15 -70 10 0 15 10 15 30 0 35 2 36 40 14
26 -16 29 -16 51 0 33 23 39 20 39 -14 0 -20 5 -30 15 -30 12 0 15 14 15 70 0
64 -2 70 -17 61 -10 -5 -29 -21 -42 -35 -14 -14 -28 -26 -32 -26 -4 0 -26 16
-49 35 -23 19 -44 35 -46 35 -2 0 -4 -31 -4 -70z"/>
<path d="M9020 10395 c0 -29 34 -36 44 -9 8 21 -1 34 -25 34 -14 0 -19 -7 -19
-25z"/>
<path d="M9346 10375 c-8 -22 9 -44 24 -29 7 7 6 16 -3 28 -13 18 -14 18 -21
1z"/>
<path d="M10132 10403 c2 -10 10 -18 18 -18 22 0 18 29 -3 33 -14 3 -18 -1
-15 -15z"/>
<path d="M10134 10335 c-7 -18 3 -35 22 -35 20 0 30 30 13 41 -20 12 -29 11
-35 -6z"/>
<path d="M10298 10408 c-29 -23 -31 -54 -4 -85 24 -27 26 -27 53 -13 34 19 43
63 17 91 -20 22 -43 24 -66 7z"/>
<path d="M8642 6778 c-20 -20 -14 -28 23 -28 33 0 35 2 25 20 -12 23 -30 26
-48 8z"/>
<path d="M8783 6733 c-7 -2 -13 -14 -13 -25 0 -29 44 -21 48 10 3 22 -8 27
-35 15z"/>
<path d="M9012 6778 c-20 -20 -14 -28 23 -28 33 0 35 2 25 20 -12 23 -30 26
-48 8z"/>
<path d="M9224 6726 c-15 -12 -17 -17 -6 -28 15 -15 45 0 50 26 4 20 -18 21
-44 2z"/>
<path d="M9592 6778 c-20 -20 -14 -28 19 -28 24 0 30 4 27 17 -4 22 -29 28
-46 11z"/>
<path d="M10003 6733 c-7 -2 -13 -14 -13 -25 0 -29 44 -21 48 10 3 22 -8 27
-35 15z"/>
<path d="M10378 6765 c-16 -36 3 -75 37 -75 18 0 28 7 35 25 14 37 -3 75 -35
75 -17 0 -29 -8 -37 -25z"/>
<path d="M9102 5948 c-27 -27 0 -77 34 -64 10 4 14 16 12 38 -3 35 -25 47 -46
26z"/>
<path d="M10200 5945 c-26 -31 13 -82 44 -56 19 16 21 42 4 59 -16 16 -33 15
-48 -3z"/>
<path d="M10312 5948 c-25 -25 -6 -68 29 -68 21 0 33 31 24 60 -7 22 -35 26
-53 8z"/>
<path d="M10422 5948 c-27 -27 0 -77 34 -64 10 4 14 16 12 38 -3 35 -25 47
-46 26z"/>
<path d="M10576 5945 c-4 -11 2 -15 24 -15 22 0 28 4 24 15 -4 8 -14 15 -24
15 -10 0 -20 -7 -24 -15z"/>
<path d="M9763 4665 c-11 -33 -10 -35 12 -35 23 0 23 2 13 33 -6 17 -12 33
-13 34 -1 2 -6 -13 -12 -32z"/>
<path d="M8985 4650 c-4 -6 5 -10 20 -10 15 0 24 4 20 10 -3 6 -12 10 -20 10
-8 0 -17 -4 -20 -10z"/>
<path d="M9090 4604 c0 -9 7 -14 17 -12 25 5 28 28 4 28 -12 0 -21 -6 -21 -16z"/>
<path d="M9275 4650 c-4 -6 5 -10 19 -10 14 0 26 5 26 10 0 6 -9 10 -19 10
-11 0 -23 -4 -26 -10z"/>
<path d="M9447 4613 c-13 -12 -7 -23 12 -23 10 0 21 7 25 15 5 15 -24 22 -37
8z"/>
<path d="M10079 4644 c-9 -11 -10 -20 -2 -32 14 -23 49 -27 57 -6 17 43 -26
73 -55 38z"/>
<path d="M10725 3811 c-9 -28 5 -51 31 -51 17 0 25 7 30 24 3 14 3 30 -1 35
-11 18 -53 13 -60 -8z"/>
</g>
</svg>
