<?xml version="1.0" standalone="no"?>
<!DOCTYPE svg PUBLIC "-//W3C//DTD SVG 20010904//EN"
 "http://www.w3.org/TR/2001/REC-SVG-20010904/DTD/svg10.dtd">
<svg version="1.0" xmlns="http://www.w3.org/2000/svg"
 width="1920.000000pt" height="1080.000000pt" viewBox="0 0 1920.000000 1080.000000"
 preserveAspectRatio="xMidYMid meet">

<g transform="translate(0.000000,1080.000000) scale(0.100000,-0.100000)"
fill="#000000" stroke="none">
<path d="M0 5400 l0 -5400 9600 0 9600 0 0 5400 0 5400 -9600 0 -9600 0 0
-5400z m16731 5194 c10 -12 10 -20 2 -34 -8 -12 -8 -21 -1 -28 5 -5 8 -20 6
-33 -3 -21 -9 -24 -55 -27 l-53 -3 0 70 0 71 44 0 c27 0 48 -6 57 -16z m59 -3
c0 -14 5 -18 19 -14 28 7 51 -23 51 -68 0 -53 -27 -55 -32 -2 -2 27 -8 39 -20
41 -15 3 -18 -4 -18 -37 0 -30 -4 -41 -15 -41 -12 0 -15 14 -15 70 0 56 3 70
15 70 8 0 15 -9 15 -19z m770 -2 c0 -16 4 -19 20 -14 32 10 50 -12 50 -61 0
-32 -4 -44 -15 -44 -11 0 -15 11 -15 41 0 33 -3 40 -17 37 -13 -2 -19 -14 -21
-41 -2 -24 -8 -37 -18 -37 -11 0 -14 16 -14 70 0 56 3 70 15 70 8 0 15 -9 15
-21z m-658 -51 c2 -30 8 -43 18 -43 10 0 16 13 18 43 2 28 8 42 18 42 10 0 14
-14 14 -55 l0 -55 -38 0 c-48 0 -62 14 -62 60 0 64 27 71 32 8z m119 5 l12
-38 12 34 c15 45 41 56 32 15 -22 -112 -57 -111 -91 4 -13 40 21 25 35 -15z
m147 25 c7 -7 12 -32 12 -56 l0 -43 -42 3 c-38 3 -43 6 -43 28 0 20 6 26 28
28 15 2 27 8 27 14 0 6 -10 8 -25 4 -18 -5 -25 -2 -25 8 0 25 47 35 68 14z
m120 -1 c18 -14 16 -97 -3 -97 -11 0 -15 11 -15 41 0 33 -3 40 -17 37 -13 -2
-19 -14 -21 -41 -2 -24 -8 -37 -18 -37 -10 0 -14 13 -14 48 0 27 2 51 5 54 9
9 70 6 83 -5z m113 -8 c27 -27 20 -43 -19 -47 -18 -2 -32 -8 -32 -13 0 -7 12
-8 31 -4 24 6 30 4 27 -6 -3 -8 -20 -15 -39 -17 -30 -2 -37 1 -47 22 -28 61
33 111 79 65z m93 15 c9 -3 16 -12 16 -20 0 -11 -7 -13 -26 -8 -19 5 -25 4
-20 -5 4 -6 13 -11 20 -11 8 0 19 -7 26 -15 10 -12 10 -18 0 -30 -17 -20 -64
-19 -81 2 -13 15 -11 16 24 9 44 -8 49 1 7 15 -31 11 -39 36 -18 57 13 13 28
15 52 6z m-1229 -47 c49 -28 85 -88 85 -142 0 -54 -36 -114 -85 -142 -38 -22
-50 -23 -260 -23 -210 0 -222 1 -260 23 -49 28 -85 88 -85 142 0 54 36 114 85
142 38 22 50 23 260 23 210 0 222 -1 260 -23z m-15720 -197 l0 -155 -170 0
-170 0 -3 145 c-1 79 0 150 2 157 4 11 42 13 173 11 l168 -3 0 -155z m812 145
c27 -19 47 -78 38 -113 -11 -47 -43 -72 -91 -72 -68 0 -104 50 -90 125 12 63
91 97 143 60z m433 -15 c0 -28 2 -29 30 -23 57 11 92 -48 66 -112 -15 -34 -15
-35 -75 -34 l-61 1 0 99 c0 92 1 99 20 99 16 0 20 -7 20 -30z m-245 -37 c10
-9 15 -35 15 -74 0 -52 -2 -59 -20 -59 -17 0 -20 7 -20 49 0 49 -18 79 -40 66
-5 -3 -10 -31 -10 -61 0 -51 -1 -54 -25 -54 -24 0 -25 2 -25 74 l0 73 55 1
c36 0 60 -5 70 -15z m158 -1 c9 -10 18 -29 19 -43 3 -22 -1 -24 -49 -29 -41
-4 -51 -8 -44 -19 6 -9 20 -11 50 -6 41 7 51 -1 29 -23 -13 -13 -76 -16 -94
-4 -16 10 -34 48 -34 70 0 11 9 31 21 46 25 31 77 36 102 8z m336 -8 c43 -55
17 -124 -47 -124 -43 0 -55 7 -71 37 -27 52 7 113 64 113 24 0 39 -7 54 -26z
m85 -1 l14 -28 13 28 c7 15 20 27 31 27 23 0 23 -7 -1 -46 -19 -31 -19 -32 0
-60 10 -16 19 -32 19 -36 0 -16 -33 -7 -50 14 l-17 22 -12 -22 c-6 -12 -21
-22 -31 -22 -25 0 -25 2 0 42 19 32 19 32 0 66 -25 41 -25 42 0 42 11 0 25
-12 34 -27z m16598 -10 l38 -37 40 39 c27 26 43 36 50 29 7 -7 -7 -26 -40 -59
l-49 -48 -45 49 c-25 27 -46 52 -46 57 0 15 15 6 52 -30z m-2056 -118 c9 -50
21 -52 29 -5 5 30 12 40 25 40 13 0 20 -10 25 -40 8 -47 20 -45 29 5 4 21 13
35 21 35 19 0 19 -7 -2 -80 -12 -45 -21 -60 -34 -60 -13 0 -20 10 -25 35 -3
19 -10 35 -15 35 -4 0 -11 -16 -15 -35 -11 -58 -38 -46 -57 25 -21 73 -21 80
-2 80 8 0 17 -14 21 -35z m364 -2 l0 -36 24 22 c33 31 54 24 28 -9 -20 -25
-20 -26 0 -50 18 -22 18 -25 4 -28 -9 -2 -25 7 -36 20 l-19 23 -1 -22 c0 -14
-6 -23 -15 -23 -12 0 -15 14 -15 70 0 56 3 70 15 70 11 0 15 -11 15 -37z
m-139 -3 c13 -7 19 -21 19 -43 0 -40 -15 -57 -50 -57 -14 0 -31 5 -38 12 -17
17 -15 58 5 80 18 20 36 23 64 8z m99 -7 c0 -7 -7 -13 -15 -13 -11 0 -15 -11
-15 -40 0 -29 -4 -40 -15 -40 -11 0 -15 13 -15 54 0 54 0 55 30 54 18 -1 30
-6 30 -15z m191 7 c31 -17 23 -32 -13 -25 -22 5 -30 4 -23 -3 6 -6 19 -12 30
-14 14 -2 20 -11 20 -28 0 -22 -4 -25 -39 -25 -24 0 -41 5 -44 14 -3 10 3 12
27 6 19 -4 31 -3 31 4 0 5 -10 11 -21 13 -31 4 -46 32 -30 52 16 19 34 20 62
6z m128 -22 c12 -21 13 -31 3 -53 -10 -23 -18 -26 -42 -23 -26 4 -30 1 -30
-19 0 -14 -6 -23 -15 -23 -12 0 -15 14 -15 68 0 38 2 71 5 74 3 3 22 5 42 4
29 -1 40 -7 52 -28z m92 22 c14 -8 19 -21 19 -56 l0 -45 -42 3 c-38 3 -43 6
-43 28 0 17 6 26 20 28 11 2 25 8 30 14 7 7 -1 8 -22 3 -36 -7 -45 7 -15 24
22 13 29 13 53 1z m117 -2 c21 -21 13 -30 -18 -23 -27 6 -30 4 -30 -19 0 -30
16 -42 36 -25 17 14 29 6 21 -16 -8 -18 -58 -20 -75 -3 -18 18 -15 75 6 87 23
14 45 14 60 -1z m113 -9 c27 -27 20 -43 -19 -47 -18 -2 -32 -8 -32 -13 0 -7
12 -8 31 -4 24 6 30 4 27 -6 -3 -8 -20 -15 -39 -17 -30 -2 -37 1 -47 22 -28
61 33 111 79 65z m-17111 -1320 c0 -62 -4 -90 -14 -98 -9 -8 -54 -11 -132 -9
l-119 3 -3 97 -3 97 66 50 67 50 69 -52 69 -51 0 -87z m9527 -395 c29 -18 297
-204 595 -412 299 -208 560 -390 580 -403 l37 -24 3 -139 3 -140 120 -39 c132
-43 308 -82 416 -93 38 -4 69 -10 69 -14 0 -20 -106 -165 -181 -248 -95 -104
-267 -257 -364 -323 l-65 -44 -1 -145 c-1 -80 -4 -197 -7 -260 l-7 -115 -79
-3 -80 -3 -70 -63 c-39 -34 -90 -77 -114 -96 l-42 -34 31 -13 c63 -26 78 -85
34 -128 -52 -53 -142 -12 -133 61 2 19 3 34 1 34 -1 0 -25 -13 -51 -30 -64
-39 -200 -102 -282 -130 -149 -51 -268 -71 -445 -77 -197 -6 -331 9 -497 58
-134 38 -359 151 -470 234 l-88 65 0 -32 c0 -95 -133 -106 -156 -12 -9 33 22
75 64 90 l32 10 -33 32 c-33 32 -33 32 -141 32 -83 0 -105 3 -100 13 5 8 2 8
-9 -2 -16 -13 -17 23 -17 570 l0 584 -72 50 c-99 70 -337 306 -387 384 -47 74
-47 75 44 85 142 16 302 58 444 117 51 21 99 39 106 39 8 0 22 -15 34 -33 11
-18 31 -43 44 -55 l25 -24 126 88 c69 49 126 94 126 101 0 25 -38 50 -83 57
-52 8 -77 30 -58 49 6 6 38 19 69 27 l57 15 15 57 c27 102 53 102 80 0 15 -55
16 -57 63 -70 l47 -13 170 118 c363 252 408 282 442 285 58 6 102 -4 155 -38z
m1198 -127 c33 -80 -59 -144 -122 -85 -40 37 -29 102 20 123 42 18 85 2 102
-38z m-10850 -173 c24 -9 47 -61 39 -87 -14 -46 -38 -66 -75 -67 -35 0 -89
-31 -89 -50 0 -24 -22 -62 -30 -54 -15 15 8 81 35 102 24 19 24 21 9 51 -27
54 7 110 68 111 14 0 34 -3 43 -6z m111 -179 c9 -14 13 -32 10 -41 -4 -9 -1
-23 5 -31 15 -18 4 -29 -14 -14 -8 6 -22 9 -31 5 -24 -9 -66 22 -66 51 0 54
66 75 96 30z m11114 -400 c19 -6 36 -18 38 -26 4 -22 -95 -116 -109 -102 -14
14 -41 122 -35 140 6 16 36 12 106 -12z m-11102 -297 c13 -13 17 -183 6 -212
-5 -13 -27 -16 -138 -16 -89 0 -136 4 -144 12 -15 15 -16 181 -2 209 10 17 22
19 138 19 86 0 132 -4 140 -12z m12 -840 c0 -26 -95 -282 -106 -285 -6 -2 -23
24 -38 57 -25 58 -29 63 -91 91 -36 16 -65 33 -65 38 0 7 268 108 293 110 4 1
7 -5 7 -11z m7945 -37 c6 -10 -31 -118 -48 -138 -15 -20 -22 -16 -66 40 -57
74 -55 83 22 95 86 13 85 13 92 3z m3031 -212 c4 -6 12 -35 18 -63 l11 -51 65
-21 c50 -16 65 -25 65 -40 0 -15 -13 -22 -57 -34 -31 -8 -60 -19 -65 -23 -4
-5 -15 -34 -23 -65 -12 -44 -19 -57 -34 -57 -16 0 -23 12 -34 55 -7 30 -19 60
-25 67 -7 6 -37 17 -67 25 -44 10 -55 17 -55 33 0 16 12 23 55 35 72 20 77 23
85 66 3 20 10 47 15 60 10 25 34 32 46 13z m-11236 -669 c0 -5 -4 -10 -10 -10
-5 0 -10 5 -10 10 0 6 5 10 10 10 6 0 10 -4 10 -10z m250 0 c0 -6 -42 -10
-106 -10 -67 0 -103 4 -99 10 3 6 50 10 106 10 59 0 99 -4 99 -10z m-250 -86
c0 -8 -4 -12 -10 -9 -5 3 -10 10 -10 16 0 5 5 9 10 9 6 0 10 -7 10 -16z m248
4 c-3 -9 -33 -14 -93 -16 -93 -3 -120 1 -110 18 10 16 208 13 203 -2z m-248
-83 c0 -8 -4 -15 -10 -15 -5 0 -10 7 -10 15 0 8 5 15 10 15 6 0 10 -7 10 -15z
m240 0 c0 -11 -163 -20 -187 -10 -8 2 -11 10 -8 15 9 14 195 9 195 -5z m-10
-716 c26 -50 30 -70 28 -117 l-3 -57 -134 -3 c-90 -2 -138 1 -147 9 -22 18
-17 103 7 152 37 74 43 77 135 77 l84 0 30 -61z m7628 -487 c3 -18 -1 -22 -22
-22 -19 0 -26 5 -26 18 0 39 43 43 48 4z m492 13 c15 -18 5 -35 -20 -35 -22 0
-34 15 -26 35 7 19 30 19 46 0z m804 9 c24 -9 20 -44 -4 -44 -11 0 -20 -4 -20
-9 0 -5 9 -11 20 -14 11 -3 20 -12 20 -21 0 -9 -8 -16 -20 -16 -18 0 -20 -7
-20 -70 0 -68 -1 -70 -25 -70 -24 0 -25 2 -25 70 0 56 -3 70 -15 70 -19 0 -20
26 -1 37 8 4 15 17 17 28 3 11 15 25 29 32 30 15 25 14 44 7z m3216 -9 c15
-18 5 -35 -21 -35 -24 0 -37 29 -18 41 19 12 25 11 39 -6z m578 -13 c3 -18 -1
-22 -22 -22 -19 0 -26 5 -26 18 0 39 43 43 48 4z m-6818 -107 l0 -115 -30 0
-30 0 0 115 0 115 30 0 30 0 0 -115z m210 92 c0 -13 -6 -32 -14 -43 -20 -26
-35 -8 -29 34 6 39 43 47 43 9z m440 -12 c0 -34 12 -46 25 -25 10 17 54 11 75
-10 16 -16 20 -33 20 -90 l0 -70 -30 0 -30 0 0 65 c0 63 -1 65 -25 65 -24 0
-25 -2 -25 -65 l0 -65 -30 0 -30 0 0 115 0 115 25 0 c22 0 25 -4 25 -35z m480
0 c0 -32 2 -35 19 -25 30 16 50 12 76 -15 32 -32 35 -101 5 -133 -17 -18 -31
-21 -85 -21 l-65 1 0 114 0 114 25 0 c22 0 25 -4 25 -35z m2320 -80 l0 -115
-25 0 -25 0 0 115 0 115 25 0 25 0 0 -115z m1000 0 l0 -115 -25 0 c-14 0 -25
5 -25 12 0 9 -3 9 -12 0 -7 -7 -27 -12 -45 -12 -44 0 -65 33 -61 96 2 38 8 51
31 68 23 17 32 19 57 9 30 -11 30 -11 30 23 0 30 3 34 25 34 l25 0 0 -115z
m1050 0 l0 -115 -25 0 -25 0 0 115 0 115 25 0 25 0 0 -115z m1230 0 l0 -115
-25 0 -25 0 0 115 0 115 25 0 25 0 0 -115z m-6633 86 c3 -11 11 -22 19 -25 19
-7 18 -36 -1 -36 -11 0 -15 -12 -15 -49 0 -34 4 -51 15 -55 30 -11 17 -36 -20
-36 -43 0 -55 20 -55 89 0 28 -4 51 -10 51 -5 0 -10 9 -10 20 0 11 5 20 10 20
6 0 10 9 10 20 0 28 50 28 57 1z m443 -1 c0 -11 7 -20 15 -20 8 0 15 -9 15
-20 0 -11 -7 -20 -15 -20 -11 0 -15 -12 -15 -50 0 -38 4 -50 15 -50 8 0 15 -9
15 -20 0 -16 -7 -20 -35 -20 -42 0 -55 23 -55 96 0 24 -4 44 -10 44 -5 0 -10
9 -10 20 0 11 4 20 9 20 5 0 11 9 14 20 3 14 14 20 31 20 19 0 26 -5 26 -20z
m-196 -41 c14 -11 26 -25 26 -30 0 -12 -47 -12 -55 1 -9 14 -45 12 -45 -2 0
-7 21 -20 48 -28 38 -12 48 -20 50 -41 4 -36 -28 -62 -78 -62 -38 0 -80 24
-80 45 0 12 54 10 66 -2 11 -11 44 -3 44 10 0 4 -20 13 -45 19 -51 13 -72 40
-55 71 23 43 81 53 124 19z m579 10 c26 -12 47 -47 47 -79 0 -16 -9 -19 -62
-22 -59 -3 -61 -4 -44 -20 13 -14 22 -15 36 -8 10 6 30 10 45 10 22 0 24 -3
16 -19 -24 -44 -107 -46 -141 -3 -60 76 17 180 103 141z m491 -10 c19 -15 26
-30 26 -55 l0 -34 -55 0 c-56 0 -70 -11 -37 -29 11 -6 24 -6 33 0 18 11 59 12
59 1 0 -5 -8 -16 -17 -24 -46 -39 -117 -25 -139 28 -38 91 54 172 130 113z
m157 11 c13 -7 19 -7 19 0 0 5 11 10 25 10 l25 0 0 -104 c0 -101 -1 -105 -26
-125 -36 -28 -97 -28 -126 1 l-21 21 23 9 c14 5 28 4 36 -3 22 -18 59 -7 62
19 3 21 1 22 -17 13 -56 -31 -101 4 -101 78 0 42 4 53 26 70 30 23 46 26 75
11z m159 -80 c0 -89 0 -90 -25 -90 -25 0 -25 1 -25 90 0 89 0 90 25 90 25 0
25 -1 25 -90z m84 81 c4 -5 18 -5 35 2 23 9 34 7 55 -6 24 -16 26 -23 26 -92
0 -73 -1 -75 -25 -75 -23 0 -24 4 -27 63 -3 59 -4 62 -28 62 -24 0 -25 -3 -28
-62 -3 -59 -4 -63 -27 -63 -25 0 -25 1 -25 90 0 82 2 90 19 90 11 0 22 -4 25
-9z m200 0 c4 -5 18 -5 35 2 23 9 34 7 55 -6 24 -16 26 -23 26 -92 0 -73 -1
-75 -25 -75 -23 0 -24 4 -27 63 -3 59 -4 62 -28 62 -24 0 -25 -3 -28 -62 -3
-59 -4 -63 -27 -63 -25 0 -25 1 -25 90 0 82 2 90 19 90 11 0 22 -4 25 -9z
m206 -81 c0 -89 0 -90 -25 -90 -25 0 -25 1 -25 90 0 89 0 90 25 90 25 0 25 -1
25 -90z m84 81 c4 -5 18 -5 35 2 23 9 34 7 55 -6 24 -16 26 -23 26 -92 0 -73
-1 -75 -25 -75 -23 0 -24 4 -27 63 -3 59 -4 62 -28 62 -24 0 -25 -3 -28 -62
-3 -59 -4 -63 -27 -63 -25 0 -25 1 -25 90 0 82 2 90 19 90 11 0 22 -4 25 -9z
m257 -1 c13 -7 19 -7 19 0 0 5 11 10 25 10 l25 0 0 -104 c0 -101 -1 -105 -26
-125 -36 -28 -97 -28 -126 1 l-21 21 23 9 c14 5 27 5 34 -2 15 -15 53 -12 60
6 11 28 6 34 -18 23 -62 -29 -117 33 -97 107 16 56 57 78 102 54z m320 -19
c35 -36 39 -86 9 -123 -39 -51 -122 -40 -146 18 -41 98 64 178 137 105z m396
3 c8 -10 13 -46 13 -86 l0 -68 -42 0 c-24 -1 -53 -1 -66 -1 -30 -1 -52 18 -52
47 0 32 23 51 70 59 22 4 40 11 40 16 0 15 -30 23 -43 10 -16 -16 -57 -14 -57
3 0 8 10 22 23 31 28 20 96 14 114 -11z m347 5 c19 -15 26 -30 26 -55 l0 -34
-55 0 c-56 0 -70 -11 -37 -29 11 -6 24 -6 33 0 18 11 59 12 59 1 0 -5 -8 -16
-17 -24 -46 -39 -117 -25 -139 28 -38 91 54 172 130 113z m157 11 c13 -7 19
-7 19 0 0 5 11 10 25 10 l25 0 0 -104 c0 -101 -1 -105 -26 -125 -36 -28 -97
-28 -126 1 l-21 21 23 9 c14 5 28 4 36 -3 22 -18 59 -7 62 19 3 21 1 22 -17
13 -56 -31 -101 4 -101 78 0 42 4 53 26 70 30 23 46 26 75 11z m244 -15 c16
-15 25 -36 25 -54 0 -30 0 -30 -62 -33 -57 -3 -60 -4 -45 -19 13 -14 23 -15
56 -6 49 13 62 4 34 -25 -32 -32 -100 -29 -130 6 -72 84 44 209 122 131z m105
15 c0 -7 6 -7 19 0 60 31 101 -12 101 -106 l0 -64 -30 0 -30 0 0 65 c0 62 -1
65 -24 65 -29 0 -36 -16 -36 -81 0 -46 -2 -49 -25 -49 -25 0 -25 1 -25 90 0
89 0 90 25 90 14 0 25 -5 25 -10z m497 -16 c8 -10 13 -46 13 -86 l0 -68 -42 0
c-24 -1 -53 -1 -66 -1 -30 -1 -52 18 -52 47 0 32 23 51 70 59 22 4 40 11 40
16 0 15 -30 23 -43 10 -16 -16 -57 -14 -57 3 0 8 10 22 23 31 28 20 96 14 114
-11z m103 14 c0 -9 3 -9 12 0 21 21 48 14 48 -12 0 -19 -6 -25 -27 -28 -27 -3
-28 -6 -31 -65 -3 -59 -4 -63 -27 -63 -25 0 -25 1 -25 90 0 89 0 90 25 90 14
0 25 -5 25 -12z m144 -53 l19 -60 17 60 c14 53 20 60 43 63 15 2 27 -1 27 -7
0 -29 -73 -208 -91 -223 -30 -26 -69 -24 -69 3 0 12 8 23 20 26 26 7 25 14 -5
103 -31 91 -31 102 -2 98 17 -2 26 -16 41 -63z m336 45 c11 -11 20 -24 20 -30
0 -14 -43 -13 -57 1 -13 13 -47 4 -39 -10 4 -5 21 -13 39 -16 44 -10 57 -23
57 -57 0 -24 -6 -32 -36 -44 -42 -18 -97 -5 -114 27 -9 16 -7 19 15 19 14 0
34 -6 45 -12 15 -10 22 -10 32 0 16 16 -4 32 -39 32 -50 0 -72 66 -31 94 31
22 84 20 108 -4z m178 4 c19 -13 22 -24 22 -89 l0 -75 -38 2 c-22 0 -44 -2
-50 -5 -19 -12 -61 11 -68 38 -9 35 17 62 67 70 21 4 39 11 39 16 0 15 -30 23
-43 10 -13 -13 -57 -15 -57 -3 0 13 23 39 40 45 29 10 66 7 88 -9z m287 -9
c16 -15 25 -36 25 -54 0 -30 0 -30 -62 -33 -57 -3 -60 -4 -45 -19 13 -14 23
-15 56 -6 49 13 62 4 34 -25 -32 -32 -100 -29 -130 6 -72 84 44 209 122 131z
m185 5 c11 -11 20 -24 20 -30 0 -14 -43 -13 -57 1 -13 13 -47 4 -39 -10 4 -5
21 -13 39 -16 44 -10 57 -23 57 -57 0 -24 -6 -32 -36 -44 -42 -18 -97 -5 -114
27 -9 16 -7 19 15 19 14 0 34 -6 45 -12 15 -10 22 -10 32 0 16 16 -4 32 -39
32 -50 0 -72 66 -31 94 31 22 84 20 108 -4z m180 10 c0 -7 6 -7 19 0 30 16 50
12 76 -15 19 -18 25 -35 25 -70 0 -62 -27 -89 -81 -82 l-39 5 0 -39 c0 -35 -3
-39 -25 -39 l-25 0 0 125 0 125 25 0 c14 0 25 -5 25 -10z m208 -82 l3 -88 -31
0 -30 0 0 83 c0 46 3 87 7 91 4 4 16 6 28 4 18 -3 20 -11 23 -90z m82 82 c0
-7 6 -7 19 0 54 28 104 -13 104 -85 0 -64 -24 -89 -80 -82 l-43 5 0 -39 c0
-35 -3 -39 -25 -39 l-25 0 0 125 0 125 25 0 c14 0 25 -5 25 -10z m273 -1 c26
-12 47 -47 47 -79 0 -16 -9 -19 -62 -22 -59 -3 -61 -4 -44 -20 13 -14 22 -15
36 -8 10 6 30 10 45 10 22 0 24 -3 16 -19 -24 -44 -107 -46 -141 -3 -60 76 17
180 103 141z m217 -79 c0 -89 0 -90 -25 -90 -25 0 -25 1 -25 90 0 89 0 90 25
90 25 0 25 -1 25 -90z m86 79 c4 -8 9 -8 17 0 17 17 55 13 77 -9 16 -16 20
-33 20 -90 0 -68 -1 -70 -25 -70 -23 0 -24 4 -27 63 -3 59 -4 62 -28 62 -24 0
-25 -3 -28 -62 -3 -59 -4 -63 -27 -63 -25 0 -25 1 -25 90 0 82 2 90 19 90 11
0 23 -5 27 -11z m289 -14 c16 -15 25 -36 25 -54 0 -30 0 -30 -62 -33 -57 -3
-60 -4 -45 -19 13 -14 23 -15 56 -6 49 13 62 4 34 -25 -32 -32 -100 -29 -130
6 -72 84 44 209 122 131z m-13200 -375 c0 -82 -3 -114 -12 -117 -10 -4 -13 24
-13 117 0 93 3 121 13 118 9 -4 12 -36 12 -118z m83 -43 c2 -64 0 -77 -13 -77
-12 0 -15 15 -15 81 0 60 3 80 13 77 8 -3 13 -31 15 -81z m-168 -27 c0 -27 -4
-50 -10 -50 -5 0 -10 23 -10 50 0 28 5 50 10 50 6 0 10 -22 10 -50z m9691
-243 c-1 -12 -15 -9 -19 4 -3 6 1 10 8 8 6 -3 11 -8 11 -12z m1629 5 c0 -13
-12 -22 -22 -16 -10 6 -1 24 13 24 5 0 9 -4 9 -8z m-3460 -73 c18 -71 22 -70
40 14 20 89 36 78 66 -45 9 -40 19 -27 34 42 7 33 17 60 23 60 11 0 6 -33 -19
-116 -9 -30 -21 -53 -27 -51 -6 2 -18 28 -26 59 -9 31 -19 59 -22 62 -3 4 -14
-23 -24 -59 -9 -36 -22 -65 -29 -65 -6 0 -20 33 -30 73 -10 39 -21 78 -24 86
-3 8 0 12 9 9 7 -2 20 -33 29 -69z m230 40 c0 -27 2 -30 15 -19 8 7 25 10 40
6 23 -6 25 -11 25 -66 0 -74 -18 -80 -22 -7 -3 48 -5 52 -28 52 -23 0 -25 -4
-28 -52 -5 -86 -22 -60 -22 32 0 50 4 85 10 85 6 0 10 -14 10 -31z m980 -1 c0
-25 3 -29 12 -20 7 7 21 12 33 12 12 0 26 -5 33 -12 14 -14 16 -118 2 -118 -5
0 -10 23 -10 50 0 38 -4 52 -16 57 -30 11 -49 -11 -52 -61 -5 -80 -22 -50 -22
39 0 50 4 85 10 85 6 0 10 -14 10 -32z m830 0 c0 -25 3 -29 12 -20 17 17 53
15 69 -4 7 -9 13 -31 13 -49 0 -18 -6 -40 -13 -49 -16 -19 -52 -21 -69 -4 -9
9 -12 9 -12 0 0 -7 -4 -12 -10 -12 -6 0 -10 35 -10 85 0 50 4 85 10 85 6 0 10
-14 10 -32z m680 -53 c0 -50 -4 -85 -10 -85 -5 0 -10 5 -10 12 0 9 -3 9 -12 0
-31 -31 -88 3 -88 53 0 50 57 84 88 53 9 -9 12 -5 12 20 0 18 5 32 10 32 6 0
10 -35 10 -85z m210 75 c0 -5 -18 -10 -40 -10 -36 0 -40 -2 -40 -25 0 -22 4
-25 35 -25 19 0 35 -4 35 -10 0 -5 -16 -10 -35 -10 -32 0 -35 -2 -35 -30 0
-28 2 -30 40 -30 22 0 40 -4 40 -10 0 -5 -22 -10 -50 -10 l-50 0 0 85 0 85 50
0 c28 0 50 -4 50 -10z m590 -75 c0 -69 -3 -85 -15 -85 -12 0 -15 16 -15 85 0
69 3 85 15 85 12 0 15 -16 15 -85z m-3076 29 c9 -8 16 -24 16 -35 0 -16 -7
-19 -46 -19 -38 0 -45 -3 -42 -17 3 -14 13 -18 47 -16 36 2 41 0 31 -13 -17
-19 -59 -18 -82 3 -22 20 -23 70 -1 95 20 22 56 23 77 2z m66 4 c0 -9 3 -9 12
0 7 7 21 12 33 12 33 0 45 -20 45 -77 0 -69 -18 -69 -22 0 -3 48 -5 52 -28 52
-23 0 -25 -4 -28 -52 -2 -38 -7 -53 -18 -53 -11 0 -14 15 -14 65 0 37 4 65 10
65 6 0 10 -5 10 -12z m221 -33 c16 -62 26 -64 40 -10 11 42 24 63 34 53 8 -7
-54 -161 -67 -170 -29 -18 -39 -3 -11 17 16 12 16 16 -2 71 -27 82 -28 84 -16
84 6 0 16 -20 22 -45z m203 23 c32 -46 7 -108 -43 -108 -36 0 -55 23 -55 65 0
18 6 40 13 49 20 24 67 20 85 -6z m76 -28 c0 -36 4 -52 15 -56 26 -10 45 16
45 62 0 24 5 44 10 44 6 0 10 -28 10 -65 0 -37 -4 -65 -10 -65 -5 0 -10 5 -10
11 0 8 -5 8 -15 -1 -21 -17 -61 -4 -69 22 -12 45 -7 98 9 98 11 0 15 -12 15
-50z m420 31 c12 -24 13 -111 1 -111 -13 0 -21 27 -15 45 8 19 -39 21 -55 2
-14 -17 -4 -27 26 -27 14 0 21 -4 18 -10 -10 -17 -54 -11 -64 8 -14 26 4 49
45 56 46 9 39 31 -10 30 -29 -1 -34 1 -25 12 17 21 66 17 79 -5z m64 -6 c3
-13 11 -37 17 -52 l11 -28 17 49 c10 28 23 52 29 54 8 2 4 -20 -11 -59 -12
-34 -27 -64 -34 -66 -10 -4 -53 92 -53 117 0 20 18 9 24 -15z m200 9 c9 -8 16
-24 16 -35 0 -16 -7 -19 -45 -19 -46 0 -51 -4 -36 -29 6 -10 19 -12 47 -7 34
7 36 6 25 -8 -32 -39 -101 -6 -101 47 0 57 58 88 94 51z m136 -49 c0 -37 -4
-65 -10 -65 -6 0 -10 28 -10 65 0 37 4 65 10 65 6 0 10 -28 10 -65z m60 53 c0
-9 3 -9 12 0 18 18 56 14 68 -7 13 -25 13 -111 0 -111 -5 0 -10 18 -10 39 0
51 -8 71 -29 71 -28 0 -41 -21 -41 -67 0 -24 -4 -43 -10 -43 -6 0 -10 28 -10
65 0 37 4 65 10 65 6 0 10 -5 10 -12z m372 -5 c38 -34 12 -113 -37 -113 -37 0
-59 24 -59 65 0 58 54 86 96 48z m80 -35 c3 -49 5 -53 28 -53 23 0 25 4 28 53
4 75 22 65 22 -13 0 -37 -4 -65 -10 -65 -5 0 -10 5 -10 10 0 6 -8 5 -20 -2
-35 -22 -55 0 -58 66 -2 32 1 56 7 56 5 0 11 -24 13 -52z m138 40 c0 -9 3 -9
12 0 18 18 56 14 68 -7 13 -25 13 -111 0 -111 -5 0 -10 18 -10 39 0 51 -8 71
-29 71 -28 0 -41 -21 -41 -67 0 -24 -4 -43 -10 -43 -6 0 -10 28 -10 65 0 37 4
65 10 65 6 0 10 -5 10 -12z m622 0 c7 -22 -3 -118 -13 -118 -5 0 -9 29 -9 65
0 59 11 85 22 53z m66 0 c9 -9 15 -9 24 0 18 18 46 14 58 -7 13 -25 13 -111 0
-111 -5 0 -10 19 -10 43 0 51 -11 70 -36 65 -15 -2 -20 -14 -22 -56 -4 -67
-20 -67 -24 1 -3 45 -6 52 -26 55 -12 2 -20 8 -17 13 9 13 39 11 53 -3z m216
-4 c17 -17 23 -114 7 -114 -13 0 -21 27 -15 45 7 17 -31 21 -55 6 -19 -12 -4
-31 25 -31 14 0 22 -4 19 -10 -10 -15 -51 -12 -66 6 -18 22 -1 45 44 58 28 8
34 14 28 25 -6 10 -19 12 -41 7 -28 -5 -31 -4 -20 9 16 20 54 19 74 -1z m76
-49 c0 -51 -3 -65 -15 -65 -12 0 -15 14 -15 65 0 51 3 65 15 65 12 0 15 -14
15 -65z m180 50 c10 -12 6 -13 -24 -8 -47 7 -50 -20 -3 -33 24 -7 33 -16 35
-36 3 -22 -2 -29 -22 -34 -31 -8 -58 -2 -63 13 -3 8 6 10 31 6 29 -4 36 -2 36
10 0 10 -13 20 -32 25 -56 14 -49 71 8 72 12 0 27 -7 34 -15z m-600 -45 c0 -5
-16 -10 -35 -10 -19 0 -35 5 -35 10 0 6 16 10 35 10 19 0 35 -4 35 -10z
m-1932 -292 c-2 -12 -8 -23 -14 -25 -7 -2 -10 6 -7 22 6 30 26 34 21 3z m52
-63 c0 -50 -4 -85 -10 -85 -6 0 -10 35 -10 85 0 50 4 85 10 85 6 0 10 -35 10
-85z m60 0 c0 -50 -4 -85 -10 -85 -6 0 -10 35 -10 85 0 50 4 85 10 85 6 0 10
-35 10 -85z m700 54 c0 -26 2 -29 14 -19 24 19 59 8 67 -20 13 -48 10 -100 -6
-100 -12 0 -15 13 -15 56 0 54 0 55 -27 52 -26 -3 -28 -7 -31 -55 -5 -86 -22
-60 -22 32 0 50 4 85 10 85 6 0 10 -14 10 -31z m570 0 c0 -27 2 -30 15 -19 8
7 25 10 40 6 23 -6 25 -11 25 -66 0 -74 -18 -80 -22 -7 -3 48 -5 52 -28 52
-23 0 -25 -4 -28 -52 -5 -86 -22 -60 -22 32 0 50 4 85 10 85 6 0 10 -14 10
-31z m-650 7 c0 -8 6 -17 13 -20 10 -5 10 -7 0 -12 -20 -9 -16 -84 5 -101 16
-12 15 -13 -8 -11 -22 3 -25 8 -28 53 -2 27 -9 53 -15 58 -9 7 -9 10 1 14 6 2
12 11 12 19 0 8 5 14 10 14 6 0 10 -6 10 -14z m-1143 -70 c16 -54 24 -52 42
12 6 23 16 42 21 42 14 0 13 -7 -18 -89 -26 -70 -52 -104 -68 -88 -4 4 2 14
14 23 l22 15 -25 66 c-29 75 -29 76 -13 71 6 -2 18 -26 25 -52z m195 37 c38
-34 12 -113 -37 -113 -37 0 -59 24 -59 65 0 58 54 86 96 48z m78 -33 c0 -36 4
-52 15 -56 26 -10 45 16 45 62 0 24 5 44 10 44 6 0 10 -28 10 -65 0 -37 -4
-65 -10 -65 -5 0 -10 5 -10 11 0 8 -5 8 -15 -1 -21 -17 -61 -4 -69 22 -12 45
-7 98 9 98 11 0 15 -12 15 -50z m440 35 c10 -12 6 -13 -24 -8 -47 7 -50 -20
-3 -33 24 -7 33 -16 35 -36 3 -22 -2 -29 -22 -34 -31 -8 -58 -2 -63 13 -3 8 6
10 31 6 29 -4 36 -2 36 10 0 10 -13 20 -32 25 -56 14 -49 71 8 72 12 0 27 -7
34 -15z m138 3 c5 -7 13 -23 16 -35 7 -22 5 -23 -43 -23 -28 0 -51 -4 -51 -9
0 -19 31 -33 61 -27 27 5 30 4 19 -9 -7 -8 -25 -15 -41 -15 -52 0 -75 72 -37
117 13 17 63 17 76 1z m146 -10 c27 -39 20 -48 -34 -48 -49 0 -50 -1 -39 -21
9 -17 17 -20 45 -16 37 6 47 -8 13 -18 -53 -17 -97 26 -83 81 12 46 72 60 98
22z m444 10 c5 -7 13 -23 16 -35 7 -22 5 -23 -43 -23 -28 0 -51 -4 -51 -9 0
-19 31 -33 61 -27 27 5 30 4 19 -9 -7 -8 -25 -15 -41 -15 -52 0 -75 72 -37
117 13 17 63 17 76 1z m72 2 c0 -6 8 -5 20 2 15 10 24 10 39 1 12 -8 22 -8 29
-1 5 5 20 8 33 6 22 -3 24 -8 27 -65 2 -37 -1 -63 -7 -63 -5 0 -11 24 -13 53
-3 44 -6 52 -23 52 -17 0 -20 -8 -23 -52 -2 -29 -7 -53 -12 -53 -5 0 -10 24
-12 53 -3 48 -5 52 -28 52 -23 0 -25 -4 -28 -52 -4 -76 -22 -66 -22 12 0 37 4
65 10 65 6 0 10 -5 10 -10z m494 -6 c9 -8 16 -24 16 -35 0 -16 -7 -19 -45 -19
-46 0 -51 -4 -36 -29 6 -10 19 -12 47 -7 34 7 36 6 25 -8 -32 -39 -101 -6
-101 47 0 57 58 88 94 51z m76 4 c0 -9 3 -9 12 0 14 14 28 16 28 3 0 -5 -9
-11 -20 -14 -17 -4 -20 -14 -20 -56 0 -28 -4 -51 -10 -51 -6 0 -10 28 -10 65
0 37 4 65 10 65 6 0 10 -5 10 -12z m158 0 c5 -7 13 -23 16 -35 7 -22 5 -23
-43 -23 -28 0 -51 -4 -51 -9 0 -19 31 -33 61 -27 27 5 30 4 19 -9 -7 -8 -25
-15 -41 -15 -52 0 -75 72 -37 117 13 17 63 17 76 1z m-10756 -2553 c8 -18 8
-28 -1 -39 -8 -10 -9 -16 -1 -21 16 -10 12 -62 -6 -69 -9 -3 -36 -6 -60 -6
l-44 0 0 80 0 80 50 0 c44 0 52 -3 62 -25z m58 -10 c0 -34 1 -35 40 -35 39 0
40 1 40 35 0 24 5 35 15 35 12 0 15 -16 15 -80 0 -64 -3 -80 -15 -80 -10 0
-15 11 -15 35 0 34 -1 35 -40 35 -39 0 -40 -1 -40 -35 0 -24 -5 -35 -15 -35
-12 0 -15 16 -15 80 0 64 3 80 15 80 10 0 15 -11 15 -35z"/>
<path d="M16670 10570 c0 -11 6 -20 14 -20 21 0 31 21 15 31 -22 14 -29 11
-29 -11z"/>
<path d="M16670 10510 c0 -15 5 -20 18 -18 9 2 17 10 17 18 0 8 -8 16 -17 18
-13 2 -18 -3 -18 -18z"/>
<path d="M17120 10500 c0 -5 7 -10 15 -10 8 0 15 5 15 10 0 6 -7 10 -15 10 -8
0 -15 -4 -15 -10z"/>
<path d="M17350 10540 c0 -5 7 -10 15 -10 8 0 15 5 15 10 0 6 -7 10 -15 10 -8
0 -15 -4 -15 -10z"/>
<path d="M15765 10526 c-70 -31 -108 -113 -86 -186 14 -46 68 -97 113 -105 18
-3 126 -5 240 -3 190 3 209 5 234 24 51 38 69 71 69 129 0 58 -18 91 -69 129
-25 20 -43 21 -249 23 -169 2 -229 0 -252 -11z m142 -52 c12 -7 27 -31 34 -52
37 -124 -128 -194 -185 -78 -17 36 -18 43 -5 80 24 69 93 91 156 50z m250 -16
c-3 -8 -6 -5 -6 6 -1 11 2 17 5 13 3 -3 4 -12 1 -19z m-52 -18 c3 -5 2 -10 -4
-10 -5 0 -13 5 -16 10 -3 6 -2 10 4 10 5 0 13 -4 16 -10z m120 0 c-3 -5 -11
-10 -16 -10 -6 0 -7 5 -4 10 3 6 11 10 16 10 6 0 7 -4 4 -10z m-33 -34 c14
-21 8 -55 -12 -66 -29 -16 -59 -3 -66 27 -12 46 52 77 78 39z m-107 -26 c3 -5
-3 -10 -14 -10 -12 0 -21 5 -21 10 0 6 6 10 14 10 8 0 18 -4 21 -10z m175 0
c0 -5 -7 -10 -15 -10 -8 0 -15 5 -15 10 0 6 7 10 15 10 8 0 15 -4 15 -10z
m-160 -65 c-7 -9 -15 -13 -17 -11 -7 7 7 26 19 26 6 0 6 -6 -2 -15z m125 4
c11 -17 -1 -21 -15 -4 -8 9 -8 15 -2 15 6 0 14 -5 17 -11z m-68 -41 c-3 -7 -5
-2 -5 12 0 14 2 19 5 13 2 -7 2 -19 0 -25z"/>
<path d="M16134 10395 c-9 -23 3 -45 25 -45 23 0 35 28 20 46 -15 18 -38 18
-45 -1z"/>
<path d="M429 10360 l-56 -49 -52 44 c-29 25 -55 45 -57 45 -2 0 -4 -38 -4
-85 0 -78 2 -85 20 -85 17 0 20 7 20 46 l0 46 36 -31 35 -32 40 32 39 31 0
-46 c0 -39 3 -46 20 -46 19 0 20 7 20 90 0 50 -1 90 -2 90 -2 -1 -28 -23 -59
-50z"/>
<path d="M1260 10424 c-15 -38 -12 -62 10 -84 39 -39 80 -13 80 49 0 44 -14
61 -52 61 -21 0 -31 -6 -38 -26z"/>
<path d="M1802 10398 c-26 -26 -8 -83 24 -76 15 2 19 12 19 43 0 42 -19 57
-43 33z"/>
<path d="M1630 10395 c-11 -13 -7 -15 25 -15 32 0 36 2 25 15 -7 8 -18 15 -25
15 -7 0 -18 -7 -25 -15z"/>
<path d="M1960 10389 c-9 -16 -9 -28 -1 -45 15 -33 49 -31 57 3 13 49 -34 84
-56 42z"/>
<path d="M16844 10245 c-8 -21 3 -48 19 -43 19 7 22 58 2 58 -8 0 -18 -7 -21
-15z"/>
<path d="M17246 10245 c-7 -20 3 -45 19 -45 16 0 26 25 19 45 -4 8 -12 15 -19
15 -7 0 -15 -7 -19 -15z"/>
<path d="M17360 10210 c0 -5 7 -10 15 -10 8 0 15 5 15 10 0 6 -7 10 -15 10 -8
0 -15 -4 -15 -10z"/>
<path d="M17580 10250 c0 -5 7 -10 15 -10 8 0 15 5 15 10 0 6 -7 10 -15 10 -8
0 -15 -4 -15 -10z"/>
<path d="M328 9063 l-48 -37 0 -78 c0 -77 0 -78 25 -78 24 0 25 2 25 66 l0 65
53 -3 52 -3 3 -62 c3 -59 4 -63 27 -63 24 0 25 2 25 75 l0 75 -51 40 c-28 22
-54 40 -57 40 -4 0 -28 -17 -54 -37z"/>
<path d="M360 8920 c0 -47 2 -50 25 -50 23 0 25 3 25 50 0 47 -2 50 -25 50
-23 0 -25 -3 -25 -50z"/>
<path d="M8858 6038 c-24 -20 -28 -44 -12 -67 17 -23 53 -28 72 -9 19 19 14
55 -10 72 -27 19 -30 19 -50 4z"/>
<path d="M10840 5902 c-30 -24 -21 -69 15 -78 35 -9 53 1 61 32 6 21 2 31 -16
46 -12 10 -26 18 -30 18 -4 0 -18 -8 -30 -18z"/>
<path d="M11142 8428 c-16 -16 -15 -53 2 -68 21 -16 56 -9 72 15 27 41 -39 88
-74 53z"/>
<path d="M333 8229 c-31 -11 -40 -54 -18 -79 23 -26 57 -25 80 0 36 40 -10 99
-62 79z"/>
<path d="M442 8048 c4 -30 43 -33 43 -3 0 13 -8 21 -23 23 -20 3 -23 0 -20
-20z"/>
<path d="M260 7351 c0 -8 112 -81 124 -81 12 0 116 73 116 81 0 5 -54 9 -120
9 -66 0 -120 -4 -120 -9z"/>
<path d="M262 7244 l3 -69 118 -3 117 -3 0 71 0 70 -55 -37 c-55 -36 -56 -36
-88 -20 -18 9 -47 26 -65 38 l-33 22 3 -69z"/>
<path d="M372 6468 c-45 -17 -81 -32 -79 -34 2 -2 19 -10 38 -18 l36 -15 49
50 c26 27 46 49 44 48 -3 0 -42 -14 -88 -31z"/>
<path d="M431 6426 c-43 -43 -43 -44 -30 -80 7 -20 16 -36 19 -36 3 0 18 36
32 80 14 44 25 80 24 80 -1 0 -21 -20 -45 -44z"/>
<path d="M290 4730 l-20 -40 34 0 c25 0 38 -6 46 -20 6 -11 20 -20 30 -20 11
0 25 9 32 20 9 13 24 20 45 20 38 0 38 -1 16 45 l-17 35 -73 0 -73 0 -20 -40z"/>
<path d="M262 4623 l3 -38 115 0 115 0 3 38 c3 35 2 37 -26 37 -16 0 -37 -9
-47 -20 -10 -11 -31 -20 -46 -20 -18 0 -34 8 -41 20 -9 13 -24 20 -46 20 -32
0 -33 -1 -30 -37z"/>
<path d="M7542 4158 c-25 -25 -11 -88 19 -88 35 0 51 57 23 84 -19 19 -26 20
-42 4z"/>
<path d="M10739 4146 c-15 -32 -4 -76 19 -76 40 0 57 54 26 84 -21 22 -33 20
-45 -8z"/>
<path d="M7260 4155 c-11 -13 -7 -15 25 -15 32 0 36 2 25 15 -7 8 -18 15 -25
15 -7 0 -18 -7 -25 -15z"/>
<path d="M7743 4163 c-24 -9 -13 -23 18 -23 20 0 29 4 27 13 -5 13 -26 18 -45
10z"/>
<path d="M7930 4149 c-15 -26 -9 -59 12 -72 37 -24 66 44 32 77 -21 21 -31 20
-44 -5z"/>
<path d="M8921 4156 c-17 -20 -10 -67 12 -80 15 -9 21 -7 33 8 18 26 18 51 -2
70 -19 20 -28 20 -43 2z"/>
<path d="M9201 4156 c-7 -8 -11 -30 -9 -48 2 -25 8 -34 25 -36 39 -6 55 67 19
90 -16 11 -22 10 -35 -6z"/>
<path d="M9611 4100 c-30 -7 -39 -28 -16 -36 18 -7 50 18 44 33 -2 5 -15 7
-28 3z"/>
<path d="M9953 4163 c-24 -9 -13 -23 18 -23 20 0 29 4 27 13 -5 13 -26 18 -45
10z"/>
<path d="M10140 4149 c-15 -26 -9 -59 12 -72 37 -24 66 44 32 77 -21 21 -31
20 -44 -5z"/>
<path d="M10347 4163 c-15 -14 -6 -23 23 -23 32 0 40 14 14 24 -20 8 -29 8
-37 -1z"/>
<path d="M10961 4100 c-30 -7 -39 -28 -16 -36 18 -7 50 18 44 33 -2 5 -15 7
-28 3z"/>
<path d="M11731 4100 c-30 -7 -39 -28 -16 -36 18 -7 50 18 44 33 -2 5 -15 7
-28 3z"/>
<path d="M11997 4163 c-15 -14 -6 -23 23 -23 32 0 40 14 14 24 -20 8 -29 8
-37 -1z"/>
<path d="M12452 4158 c-24 -24 -11 -88 17 -88 39 0 55 54 25 84 -19 19 -26 20
-42 4z"/>
<path d="M12746 4154 c-28 -27 -12 -84 23 -84 30 0 44 63 19 88 -16 16 -23 15
-42 -4z"/>
<path d="M12940 4155 c-11 -13 -7 -15 25 -15 32 0 36 2 25 15 -7 8 -18 15 -25
15 -7 0 -18 -7 -25 -15z"/>
<path d="M13517 4163 c-15 -14 -6 -23 23 -23 32 0 40 14 14 24 -20 8 -29 8
-37 -1z"/>
<path d="M10222 3428 c-7 -7 -12 -21 -12 -33 0 -46 53 -62 71 -21 21 45 -26
87 -59 54z"/>
<path d="M10799 3419 c-15 -29 3 -69 31 -69 28 0 46 40 31 69 -7 11 -20 21
-31 21 -11 0 -24 -10 -31 -21z"/>
<path d="M8547 3434 c-18 -19 -5 -34 29 -34 28 0 35 3 32 18 -3 17 -48 29 -61
16z"/>
<path d="M9029 3419 c-8 -16 -8 -28 0 -45 18 -41 71 -25 71 21 0 44 -50 61
-71 24z"/>
<path d="M9797 3434 c-18 -19 -5 -34 29 -34 28 0 35 3 32 18 -3 17 -48 29 -61
16z"/>
<path d="M10361 3418 c-12 -33 2 -63 32 -66 29 -4 43 23 33 64 -9 33 -53 34
-65 2z"/>
<path d="M8991 3048 c-12 -33 2 -63 32 -66 29 -4 43 23 33 64 -9 33 -53 34
-65 2z"/>
<path d="M9651 3057 c-14 -18 -4 -27 29 -27 15 0 30 3 33 7 10 10 -13 33 -33
33 -10 0 -23 -6 -29 -13z"/>
<path d="M9797 3063 c-16 -16 -5 -33 21 -33 34 0 43 7 35 26 -5 14 -44 19 -56
7z"/>
<path d="M10241 3057 c-14 -18 -4 -27 29 -27 15 0 30 3 33 7 10 10 -13 33 -33
33 -10 0 -23 -6 -29 -13z"/>
<path d="M10807 3064 c-18 -19 -5 -34 29 -34 28 0 35 3 32 18 -3 17 -48 29
-61 16z"/>
<path d="M11041 3057 c-14 -18 -4 -27 29 -27 15 0 30 3 33 7 10 10 -13 33 -33
33 -10 0 -23 -6 -29 -13z"/>
<path d="M270 505 c0 -26 22 -33 49 -16 21 13 5 41 -24 41 -20 0 -25 -5 -25
-25z"/>
<path d="M270 435 c0 -21 5 -25 29 -25 17 0 33 5 36 10 10 16 -15 40 -41 40
-19 0 -24 -5 -24 -25z"/>
</g>
</svg>
