<?xml version="1.0" standalone="no"?>
<!DOCTYPE svg PUBLIC "-//W3C//DTD SVG 20010904//EN"
 "http://www.w3.org/TR/2001/REC-SVG-20010904/DTD/svg10.dtd">
<svg version="1.0" xmlns="http://www.w3.org/2000/svg"
 width="1920.000000pt" height="1080.000000pt" viewBox="0 0 1920.000000 1080.000000"
 preserveAspectRatio="xMidYMid meet">

<g transform="translate(0.000000,1080.000000) scale(0.100000,-0.100000)"
fill="#000000" stroke="none">
<path d="M0 5400 l0 -5400 9475 0 9475 0 0 5400 0 5400 -9475 0 -9475 0 0
-5400z m4826 5135 c1 -16 5 -38 9 -49 13 -30 -8 -51 -54 -54 l-41 -3 0 71 0
71 43 -3 c39 -3 42 -5 43 -33z m54 14 c0 -15 4 -19 16 -15 32 12 54 -12 54
-59 0 -57 -18 -59 -22 -2 -2 34 -7 42 -23 42 -16 0 -21 -8 -23 -42 -5 -70 -22
-49 -22 27 0 40 4 70 10 70 6 0 10 -9 10 -21z m750 0 c0 -15 4 -19 16 -15 32
12 54 -12 54 -59 0 -57 -18 -59 -22 -2 -2 34 -7 42 -23 42 -16 0 -21 -8 -23
-42 -5 -70 -22 -49 -22 27 0 40 4 70 10 70 6 0 10 -9 10 -21z m170 -9 c0 -28
3 -30 35 -30 32 0 35 2 35 30 0 17 5 30 10 30 6 0 10 -30 10 -70 0 -40 -4 -70
-10 -70 -5 0 -10 14 -10 30 0 28 -3 30 -35 30 -32 0 -35 -2 -35 -30 0 -16 -4
-30 -10 -30 -6 0 -10 30 -10 70 0 40 4 70 10 70 6 0 10 -13 10 -30z m188 -37
l-3 -68 -34 0 c-19 0 -36 6 -38 12 -3 9 4 11 26 7 l31 -6 0 61 c0 36 4 61 10
61 7 0 10 -25 8 -67z m-973 -48 c16 0 21 8 23 43 4 57 22 43 22 -17 l0 -48
-37 -1 c-43 -2 -53 9 -53 59 0 52 14 58 20 7 4 -35 9 -43 25 -43z m93 44 l18
-42 12 42 c7 22 17 41 22 41 13 0 13 -5 -7 -61 -10 -27 -23 -49 -29 -49 -11 0
-44 78 -44 102 0 19 12 5 28 -33z m141 32 c7 -5 16 -30 18 -55 l6 -47 -44 3
c-39 3 -44 6 -44 28 0 20 6 26 28 28 15 2 27 9 27 18 0 16 -26 19 -35 4 -4 -6
-11 -7 -17 -4 -7 5 -4 12 7 21 22 15 35 16 54 4z m122 -12 c12 -19 11 -89 0
-89 -6 0 -11 19 -13 43 -2 34 -7 42 -23 42 -16 0 -21 -8 -23 -42 -5 -62 -22
-53 -22 11 l0 54 36 -3 c20 -1 40 -9 45 -16z m103 5 c9 -8 16 -24 16 -35 0
-15 -7 -19 -35 -19 -19 0 -35 -4 -35 -9 0 -15 23 -19 43 -9 21 11 32 5 22 -11
-9 -15 -58 -14 -73 1 -28 28 -4 98 33 98 7 0 21 -7 29 -16z m107 -1 c13 -15
11 -16 -13 -10 -39 10 -46 -11 -8 -24 24 -9 30 -17 28 -33 -3 -24 -52 -36 -71
-17 -16 16 0 26 17 12 8 -7 20 -10 26 -6 17 11 11 23 -15 29 -31 8 -42 31 -25
51 16 20 44 19 61 -2z m-1378 -24 c16 -9 22 -9 25 0 7 22 22 10 22 -19 0 -27
-3 -30 -30 -30 -16 0 -30 5 -30 10 0 6 6 10 13 10 8 0 7 4 -3 10 -8 5 -29 10
-47 10 -37 0 -63 -29 -63 -72 0 -77 117 -88 136 -13 3 14 10 25 15 25 27 0
-11 -72 -46 -88 -41 -19 -64 -14 -96 17 -74 74 11 189 104 140z m12197 -114
c0 -8 -6 -15 -14 -15 -17 0 -28 14 -19 24 12 12 33 6 33 -9z m-5765 -20 c52
-51 15 -135 -60 -135 -46 0 -85 36 -85 80 0 44 39 80 85 80 25 0 44 -8 60 -25z
m4715 -40 l0 -65 35 0 c24 0 35 -5 35 -15 0 -11 -12 -15 -50 -15 l-50 0 0 80
c0 64 3 80 15 80 12 0 15 -14 15 -65z m450 -14 l0 -78 -49 -1 c-46 -2 -50 0
-62 30 -18 44 4 83 49 83 27 0 32 4 32 22 0 14 6 23 15 23 12 0 15 -15 15 -79z
m191 60 c18 -14 24 -29 24 -61 0 -55 -29 -80 -91 -80 l-44 0 0 80 0 80 44 0
c28 0 52 -7 67 -19z m469 -61 c0 -64 -3 -80 -15 -80 -12 0 -15 16 -15 80 0 64
3 80 15 80 12 0 15 -16 15 -80z m-260 55 c0 -8 7 -15 15 -15 8 0 15 -4 15 -9
0 -5 -7 -11 -15 -15 -9 -3 -15 -18 -15 -36 0 -18 6 -33 15 -36 25 -10 17 -26
-12 -22 -25 3 -28 7 -31 48 -2 24 -9 48 -15 53 -9 7 -9 10 1 14 6 2 12 11 12
19 0 8 7 14 15 14 8 0 15 -7 15 -15z m-5333 -35 c9 -22 19 -40 23 -40 4 0 14
18 23 40 23 58 37 50 37 -20 0 -61 -19 -87 -21 -27 l-1 32 -14 -32 c-8 -18
-19 -33 -24 -33 -5 0 -16 15 -24 33 l-14 32 -1 -32 c-2 -60 -21 -34 -21 27 0
70 14 78 37 20z m373 30 c0 -5 -4 -10 -10 -10 -5 0 -10 5 -10 10 0 6 5 10 10
10 6 0 10 -4 10 -10z m345 -6 c21 -21 13 -29 -13 -13 -28 18 -52 5 -52 -29 0
-42 24 -60 50 -37 23 21 39 13 20 -10 -15 -18 -61 -20 -78 -3 -19 19 -15 85 6
97 25 15 48 13 67 -5z m385 -44 c0 -33 -4 -60 -10 -60 -6 0 -10 27 -10 60 0
33 4 60 10 60 6 0 10 -27 10 -60z m340 0 c0 -59 0 -60 -28 -60 -33 0 -52 16
-52 45 0 25 18 45 41 45 9 0 19 7 23 15 11 29 16 14 16 -45z m952 13 l21 -47
17 44 c26 66 40 63 40 -9 0 -34 -4 -61 -10 -61 -5 0 -10 15 -10 33 l-1 32 -14
-32 c-18 -43 -29 -42 -48 5 l-16 37 0 -37 c-1 -21 -5 -38 -11 -38 -6 0 -10 27
-10 60 0 73 14 77 42 13z m-2071 25 c5 -65 3 -98 -8 -98 -8 0 -13 13 -13 34 0
19 -5 36 -12 38 -9 3 -8 9 2 21 18 20 30 21 31 5z m927 -5 c12 -12 13 -18 4
-21 -16 -5 -16 -44 1 -61 10 -10 8 -12 -8 -9 -14 2 -21 14 -26 43 -6 37 -3 65
8 65 2 0 12 -8 21 -17z m434 -20 l38 -37 40 39 c27 26 43 36 50 29 7 -7 -7
-26 -40 -59 l-49 -48 -45 49 c-25 27 -46 52 -46 57 0 15 15 6 52 -30z m1228
-8 c12 -14 16 -13 42 11 17 17 28 22 28 14 0 -17 -39 -60 -55 -60 -12 0 -65
51 -65 63 0 11 34 -9 50 -28z m1754 19 c9 -8 16 -24 16 -35 0 -16 -7 -19 -40
-19 -22 0 -40 -5 -40 -10 0 -17 29 -23 45 -10 19 16 40 3 24 -16 -19 -23 -75
-18 -93 8 -9 12 -16 29 -16 38 0 50 69 79 104 44z m124 4 c7 -7 12 -34 12 -60
l0 -48 -50 0 c-38 0 -52 4 -57 16 -9 24 10 49 41 52 14 2 26 10 26 18 0 17 -5
17 -30 2 -22 -14 -35 -6 -27 17 8 18 67 21 85 3z m476 -10 c26 -37 20 -48 -25
-48 -28 0 -39 -4 -36 -12 4 -14 21 -15 51 -3 14 6 17 4 14 -11 -2 -13 -13 -20
-37 -22 -40 -4 -71 20 -71 56 0 57 73 85 104 40z m204 10 c7 -7 12 -34 12 -60
l0 -48 -50 0 c-38 0 -52 4 -57 16 -9 24 10 49 41 52 14 2 26 10 26 18 0 17 -5
17 -30 2 -22 -14 -35 -6 -27 17 8 18 67 21 85 3z m62 -48 c0 -47 -3 -60 -15
-60 -12 0 -15 13 -15 60 0 47 3 60 15 60 12 0 15 -13 15 -60z m169 46 c16 -19
-5 -32 -25 -15 -11 9 -18 9 -26 1 -8 -8 -1 -13 23 -19 29 -8 34 -14 34 -39 0
-27 -3 -29 -43 -32 -31 -2 -44 1 -48 13 -9 23 4 31 27 17 11 -7 25 -10 31 -6
7 4 -3 14 -23 23 -36 17 -50 48 -27 62 21 13 64 10 77 -5z m-5531 -8 c21 -21
13 -38 -18 -38 -16 0 -30 -4 -30 -9 0 -16 20 -23 34 -12 14 12 29 4 20 -10 -9
-15 -62 -10 -68 7 -15 39 1 74 34 74 9 0 21 -5 28 -12z m102 -7 c15 -29 13
-31 -26 -31 -32 0 -35 -2 -24 -15 7 -9 21 -13 31 -10 11 4 19 2 19 -4 0 -6
-14 -11 -30 -11 -38 0 -59 35 -41 69 15 27 57 28 71 2z m100 -26 c0 -25 -4
-45 -10 -45 -5 0 -10 20 -10 45 0 25 5 45 10 45 6 0 10 -20 10 -45z m88 -2 c2
-26 -1 -43 -7 -43 -6 0 -11 16 -11 35 0 24 -5 35 -15 35 -10 0 -15 -11 -15
-35 0 -19 -4 -35 -10 -35 -5 0 -10 21 -10 46 0 45 0 45 33 42 30 -3 32 -6 35
-45z m102 -6 c0 -29 -5 -58 -12 -65 -17 -17 -43 -15 -59 4 -12 15 -10 16 19
10 21 -5 32 -4 32 3 0 6 -8 11 -18 11 -24 0 -42 19 -42 45 0 29 19 45 52 45
27 0 28 -2 28 -53z m261 32 c16 -30 -3 -69 -34 -69 -29 0 -47 17 -47 45 0 45
60 63 81 24z m137 -26 c2 -26 -1 -43 -7 -43 -6 0 -11 16 -11 36 0 45 -24 42
-28 -4 -4 -44 -22 -40 -22 4 0 45 -24 42 -28 -4 -5 -49 -22 -38 -22 13 l0 45
58 -2 57 -3 3 -42z m103 25 c16 -30 -3 -68 -36 -68 -16 0 -25 -6 -25 -15 0 -8
-4 -15 -10 -15 -6 0 -10 26 -10 58 l0 59 35 1 c26 1 37 -4 46 -20z m127 10
c21 -21 13 -38 -18 -38 -16 0 -30 -4 -30 -9 0 -17 20 -23 35 -11 9 7 15 8 20
0 8 -13 -16 -23 -47 -18 -17 2 -24 11 -26 31 -6 47 36 75 66 45z m150 0 c21
-21 13 -38 -18 -38 -16 0 -30 -4 -30 -9 0 -16 20 -23 34 -12 14 12 29 4 20
-10 -9 -15 -62 -10 -68 7 -15 39 1 74 34 74 9 0 21 -5 28 -12z m1233 -9 c16
-30 -3 -69 -34 -69 -29 0 -47 17 -47 45 0 45 60 63 81 24z m42 -11 l14 -33 7
33 c4 17 12 32 17 32 12 0 11 -5 -3 -51 -15 -51 -33 -49 -51 6 -18 51 -4 62
16 13z m135 5 c3 -20 -1 -23 -28 -23 -21 0 -30 -4 -27 -12 2 -7 16 -12 31 -10
18 2 25 -1 21 -7 -8 -15 -48 -14 -63 1 -16 16 -15 51 0 66 21 21 63 10 66 -15z
m832 -8 c0 -8 -7 -15 -15 -15 -8 0 -15 7 -15 15 0 8 7 15 15 15 8 0 15 -7 15
-15z m60 0 c0 -8 -7 -15 -15 -15 -8 0 -15 7 -15 15 0 8 7 15 15 15 8 0 15 -7
15 -15z m60 0 c0 -8 -7 -15 -15 -15 -8 0 -15 7 -15 15 0 8 7 15 15 15 8 0 15
-7 15 -15z m-9814 -47 c-1 -17 5 -23 19 -23 14 0 20 6 19 23 0 12 3 22 8 22 5
0 8 -10 7 -22 -1 -13 1 -31 6 -41 10 -24 -12 -47 -46 -47 -28 0 -29 1 -29 55
0 30 4 55 8 55 5 0 8 -10 8 -22z m110 -4 c29 11 44 -5 42 -48 -1 -40 -1 -40
-5 -6 -3 19 -8 39 -13 44 -14 15 -38 -12 -43 -47 -2 -18 -4 -5 -4 28 0 33 1
52 4 42 3 -11 11 -16 19 -13z m659 1 c17 0 20 -7 21 -45 l2 -45 -7 40 c-4 26
-11 40 -21 40 -10 0 -17 -14 -21 -40 -5 -35 -6 -33 -7 20 0 33 2 53 6 45 4 -8
16 -15 27 -15z m84 0 c26 8 43 -18 38 -57 l-4 -33 -1 37 c-1 20 -7 40 -12 43
-17 11 -39 -14 -43 -48 -2 -18 -4 -5 -4 28 0 33 1 52 4 42 3 -12 11 -16 22
-12z m213 8 c10 -9 18 -21 18 -27 0 -6 -7 0 -16 12 -23 33 -73 27 -94 -10 -13
-25 -13 -31 0 -55 11 -19 27 -30 50 -35 l35 -6 -34 1 c-64 3 -91 76 -45 121
20 21 63 20 86 -1z m425 -65 c-2 -18 -4 -6 -4 27 0 33 2 48 4 33 2 -15 2 -42
0 -60z m-1277 -13 c9 0 17 13 21 35 l6 35 2 -41 c1 -39 -1 -41 -26 -40 -26 1
-28 4 -29 46 l-2 45 7 -40 c4 -26 11 -40 21 -40z m109 38 c7 21 15 37 17 34 5
-5 -16 -69 -27 -81 -8 -9 -20 14 -33 64 -3 14 2 7 12 -15 l19 -40 12 38z m101
18 c13 -26 13 -74 -1 -66 -6 4 -8 13 -5 21 4 10 -2 14 -19 14 -28 0 -35 -25
-10 -33 11 -4 10 -4 -2 -3 -27 2 -23 40 5 44 12 2 22 10 22 19 0 10 -6 14 -20
10 -11 -3 -18 -1 -14 4 9 15 33 10 44 -10z m88 6 c6 -5 11 -25 10 -45 l-1 -37
-4 35 c-3 19 -8 39 -13 44 -14 15 -38 -12 -43 -47 -3 -25 -4 -22 -5 13 -2 42
0 46 21 45 12 0 28 -4 35 -8z m96 -3 c25 -24 19 -34 -19 -34 -27 0 -33 -3 -28
-16 4 -10 14 -14 29 -11 13 2 21 0 18 -4 -10 -16 -43 -9 -54 10 -15 29 -13 31
27 31 35 0 36 1 21 17 -14 13 -20 14 -32 3 -10 -7 -16 -8 -16 -2 0 9 15 19 32
21 4 1 14 -6 22 -15z m86 5 c12 -8 10 -9 -7 -4 -31 9 -39 -13 -8 -25 17 -7 25
-16 23 -27 -4 -20 -35 -30 -50 -15 -6 6 0 8 16 5 34 -7 34 14 1 27 -28 11 -31
20 -13 38 15 15 19 15 38 1z m236 -95 c-3 -8 -11 -14 -18 -13 -10 0 -10 2 0 6
7 3 13 27 14 61 l2 57 3 -49 c2 -27 2 -55 -1 -62z m254 59 c0 -23 -3 -48 -6
-57 -6 -16 -49 -22 -58 -8 -2 4 7 8 21 7 14 0 28 6 31 14 3 9 -1 11 -16 7 -22
-7 -52 16 -52 39 0 22 28 43 55 41 22 -1 25 -5 25 -43z m133 38 c4 -1 6 -20 6
-43 l-2 -43 -6 40 c-4 26 -11 40 -21 40 -10 0 -16 -13 -19 -40 l-5 -40 -5 40
c-4 26 -11 40 -21 40 -10 0 -17 -14 -21 -40 l-6 -40 -2 46 -1 45 48 -2 c26 -1
50 -2 55 -3z m81 3 c11 -4 16 -19 16 -43 0 -33 -3 -37 -27 -39 -15 -1 -30 3
-34 10 -10 16 9 38 33 38 11 0 18 5 15 13 -2 6 -15 11 -28 9 -19 -2 -21 0 -9
8 18 12 15 11 34 4z m53 -61 c-2 -16 -4 -5 -4 22 0 28 2 40 4 28 2 -13 2 -35
0 -50z m163 57 c12 -8 9 -10 -10 -8 -22 3 -25 -1 -25 -27 0 -25 4 -30 23 -29
14 0 19 -3 13 -9 -5 -5 -17 -7 -27 -5 -23 4 -31 52 -13 74 14 17 19 17 39 4z
m100 -4 c15 -19 9 -56 -11 -69 -25 -16 -49 -1 -49 31 0 46 35 68 60 38z m143
5 c4 -1 6 -20 6 -43 l-2 -43 -6 40 c-4 26 -11 40 -21 40 -10 0 -16 -13 -19
-40 l-5 -40 -5 40 c-4 26 -11 40 -21 40 -10 0 -17 -14 -21 -40 l-6 -40 -2 46
-1 45 48 -2 c26 -1 50 -2 55 -3z m-819 -7 c10 -4 16 -18 16 -35 0 -29 14 -39
23 -16 4 9 6 9 6 0 1 -6 -3 -15 -9 -18 -16 -10 -35 8 -35 34 0 13 -6 26 -12
28 -19 7 -28 -26 -15 -48 10 -15 9 -17 -3 -13 -18 7 -20 60 -2 67 6 3 13 6 14
6 1 1 8 -2 17 -5z m-4606 -156 c-3 -7 -13 -46 -23 -85 -11 -44 -24 -73 -32
-73 -15 0 -16 4 -4 50 6 19 15 54 21 78 7 27 16 42 26 42 9 0 14 -6 12 -12z
m-214 -14 c21 -21 20 -27 -9 -63 l-26 -30 22 -3 c13 -2 24 -9 27 -15 3 -9 -12
-13 -52 -13 -31 0 -56 4 -56 8 0 4 16 23 35 42 36 35 45 60 22 60 -7 0 -18 -5
-24 -11 -18 -18 -35 -1 -23 22 13 23 62 26 84 3z m126 1 c0 -10 -10 -15 -30
-15 -16 0 -30 -4 -30 -10 0 -5 10 -10 23 -10 29 0 47 -18 47 -45 0 -30 -19
-45 -57 -45 -22 0 -36 6 -43 20 -9 17 -8 20 8 20 10 0 23 -5 28 -10 8 -8 15
-6 23 4 19 23 4 38 -30 31 -28 -6 -29 -6 -29 34 l0 41 45 0 c33 0 45 -4 45
-15z m188 3 c19 -19 14 -39 -15 -70 l-27 -28 27 0 c17 0 27 -5 27 -15 0 -11
-12 -15 -50 -15 -61 0 -63 11 -13 62 33 33 34 38 18 44 -11 5 -20 3 -23 -4 -5
-16 -32 -15 -32 1 0 21 22 37 50 37 14 0 31 -5 38 -12z m130 0 c-3 -7 -13 -14
-24 -16 -43 -7 -48 -16 -14 -21 29 -5 36 -11 38 -34 2 -16 -2 -35 -9 -43 -15
-19 -63 -18 -79 1 -18 21 -3 32 22 16 24 -15 44 -1 35 23 -5 11 -14 14 -37 10
-32 -7 -37 4 -24 54 5 19 13 22 51 22 31 0 43 -4 41 -12z m102 -58 c0 -40 -4
-70 -10 -70 -6 0 -10 30 -10 70 0 40 4 70 10 70 6 0 10 -30 10 -70z m171 35
c25 8 59 -20 59 -47 0 -39 -19 -59 -56 -56 l-34 2 1 71 c1 38 4 60 6 47 4 -18
9 -21 24 -17z m769 -35 c0 -40 -4 -70 -10 -70 -6 0 -10 30 -10 70 0 40 4 70
10 70 6 0 10 -30 10 -70z m500 0 l0 -70 -33 0 c-40 0 -57 15 -57 51 0 33 26
62 51 56 11 -3 19 2 22 14 10 38 17 17 17 -51z m-228 22 c-19 -6 -15 -69 6
-81 15 -9 15 -10 -5 -11 -23 0 -25 4 -37 76 -6 40 11 59 33 37 12 -12 13 -17
3 -21z m-1111 -3 c12 -19 11 -89 0 -89 -6 0 -11 19 -13 43 -2 34 -7 42 -23 42
-16 0 -21 -8 -23 -42 -2 -24 -7 -43 -13 -43 -9 0 -13 93 -4 102 10 10 67 1 76
-13z m223 5 c19 -18 21 -65 4 -82 -7 -7 -21 -12 -33 -12 -29 0 -45 19 -45 51
0 29 23 59 45 59 7 0 21 -7 29 -16z m86 -5 c6 13 14 20 17 17 4 -3 0 -17 -7
-31 -11 -20 -10 -28 4 -50 9 -14 12 -25 6 -25 -5 0 -15 9 -22 19 -11 18 -12
18 -29 -3 -21 -25 -24 -18 -7 19 9 19 9 28 0 37 -7 7 -12 19 -12 28 0 10 6 8
19 -9 l19 -24 12 22z m111 11 c10 -6 19 -20 19 -30 0 -16 -7 -20 -35 -20 -25
0 -35 -4 -35 -15 0 -21 27 -30 45 -15 17 14 31 8 20 -9 -9 -15 -58 -14 -73 1
-17 17 -15 58 5 80 19 21 27 22 54 8z m105 -5 c18 -14 17 -14 -13 -9 -26 5
-33 3 -33 -10 0 -9 8 -16 19 -16 24 0 45 -25 37 -46 -8 -20 -67 -15 -74 6 -5
13 -3 13 11 1 17 -14 47 -9 47 8 0 5 -11 12 -25 15 -31 8 -42 31 -25 51 16 19
31 19 56 0z m150 0 c18 -14 17 -14 -13 -9 -26 5 -33 3 -33 -10 0 -9 8 -16 19
-16 24 0 45 -25 37 -46 -8 -20 -67 -15 -74 6 -5 13 -3 13 11 1 17 -14 47 -9
47 8 0 5 -11 12 -25 15 -31 8 -42 31 -25 51 16 19 31 19 56 0z m108 -7 c23
-33 20 -38 -24 -38 -43 0 -50 -9 -24 -31 13 -10 19 -10 36 0 16 10 19 10 16
-1 -3 -7 -19 -14 -36 -16 -27 -3 -34 1 -42 22 -23 62 39 115 74 64z m150 6
c27 -27 20 -44 -19 -44 -25 0 -35 -4 -35 -15 0 -21 27 -30 45 -15 12 10 15 9
15 -4 0 -19 -50 -22 -68 -4 -28 28 -4 98 33 98 7 0 21 -7 29 -16z m111 0 c21
-22 13 -29 -15 -12 -18 11 -23 11 -36 -6 -8 -11 -14 -23 -14 -26 0 -3 6 -15
14 -26 13 -16 18 -17 35 -6 28 16 36 15 21 -3 -15 -18 -51 -20 -68 -3 -17 17
-15 64 4 82 20 20 38 20 59 0z m166 6 c10 -6 19 -20 19 -30 0 -16 -7 -20 -35
-20 -25 0 -35 -4 -35 -15 0 -21 27 -30 45 -15 17 14 31 8 20 -9 -9 -15 -58
-14 -73 1 -17 17 -15 58 5 80 19 21 27 22 54 8z m-2311 -235 c0 -117 0 -116
-145 -113 l-120 3 -3 97 -3 97 66 50 67 50 69 -52 69 -51 0 -81z m14855 -87
l35 -53 0 53 c0 28 5 52 10 52 6 0 10 -30 10 -70 0 -39 -4 -70 -10 -70 -5 0
-25 24 -45 52 l-35 53 0 -53 c0 -28 -4 -52 -10 -52 -6 0 -10 30 -10 70 0 39 4
70 10 70 5 0 25 -24 45 -52z m1852 15 c-3 -10 -5 -4 -5 12 0 17 2 24 5 18 2
-7 2 -21 0 -30z m43 12 c0 -14 -4 -25 -10 -25 -11 0 -14 33 -3 43 11 11 13 8
13 -18z m104 9 c19 -18 20 -30 5 -40 -8 -4 -8 -9 0 -17 16 -16 13 -54 -5 -61
-9 -3 -29 -6 -45 -6 l-29 0 0 70 0 70 29 0 c16 0 37 -7 45 -16z m89 -26 c31
-3 32 -4 33 -53 1 -46 1 -47 -3 -7 -7 72 -58 67 -66 -6 -2 -20 -4 -3 -4 38 0
41 2 65 4 53 3 -16 13 -23 36 -25z m752 -3 c29 0 30 -1 31 -50 1 -27 0 -39 -2
-25 -11 62 -15 70 -34 70 -19 0 -24 -10 -33 -70 -3 -14 -4 9 -4 50 -1 41 2 64
6 50 5 -20 12 -25 36 -25z m175 -15 c36 0 39 2 43 33 2 17 4 -2 4 -43 0 -41
-2 -60 -4 -42 -4 30 -7 32 -43 32 -36 0 -39 -2 -43 -32 -2 -18 -4 1 -4 42 0
41 2 60 4 43 4 -31 7 -33 43 -33z m146 -67 c-8 -19 -58 -13 -64 7 -5 13 -3 13
11 1 32 -25 47 -6 49 61 l2 63 3 -59 c2 -32 2 -65 -1 -73z m54 102 c0 -14 -4
-25 -10 -25 -11 0 -14 33 -3 43 11 11 13 8 13 -18z m27 -12 c-3 -10 -5 -4 -5
12 0 17 2 24 5 18 2 -7 2 -21 0 -30z m-3089 -5 c7 -7 12 -31 12 -55 l0 -43
-39 0 c-27 0 -41 5 -45 16 -9 23 11 44 41 44 15 0 23 5 20 13 -2 6 -16 11 -31
10 -27 -2 -36 11 -13 20 22 9 43 7 55 -5z m165 3 c11 -2 8 -101 -3 -101 -5 0
-10 21 -10 46 0 38 -3 45 -17 42 -13 -2 -19 -15 -21 -46 -4 -56 -22 -54 -22 3
0 32 -4 45 -14 45 -17 0 -26 -22 -26 -61 0 -16 -4 -29 -10 -29 -9 0 -15 92 -6
101 4 3 104 4 129 0z m109 -8 c10 -9 18 -24 18 -35 0 -14 -8 -18 -35 -18 -32
0 -52 -18 -22 -21 17 -2 20 -1 42 7 18 7 18 6 6 -9 -19 -23 -68 -22 -81 2 -15
29 -12 49 10 71 24 24 38 25 62 3z m1756 -75 c18 -18 40 8 45 50 3 31 4 29 5
-13 2 -50 2 -50 -30 -52 -39 -3 -48 9 -47 62 l1 40 8 -38 c4 -21 12 -43 18
-49z m108 39 l11 -32 17 39 c9 22 18 37 21 34 7 -7 -25 -98 -35 -98 -8 0 -40
73 -40 92 0 18 14 -1 26 -35z m152 -8 l3 -46 -38 1 c-31 1 -39 5 -41 23 -3 17
3 24 27 30 38 10 37 29 -1 27 -16 -1 -25 2 -22 8 3 5 20 8 37 6 30 -3 32 -5
35 -49z m108 -4 c1 -46 1 -47 -3 -7 -7 72 -58 67 -66 -6 -3 -29 -4 -26 -5 16
l-2 53 38 -3 37 -3 1 -50z m115 28 c8 -21 6 -23 -31 -23 -43 0 -50 -9 -24 -31
13 -10 19 -10 36 0 16 10 19 10 16 -1 -6 -18 -46 -22 -64 -8 -15 13 -18 47 -8
75 10 25 65 16 75 -12z m94 17 c4 -7 -2 -9 -18 -5 -38 10 -44 -14 -7 -26 24
-9 30 -17 28 -33 -2 -16 -10 -21 -32 -21 -17 0 -31 6 -34 15 -5 13 -3 13 11 1
17 -14 47 -9 47 8 0 5 -13 14 -30 20 -28 9 -38 29 -23 44 10 11 51 8 58 -3z
m-16994 -179 c29 -30 34 -50 19 -86 -5 -14 -2 -26 13 -42 11 -13 16 -23 10
-23 -6 0 -16 7 -23 15 -9 10 -24 13 -56 8 -38 -5 -49 -2 -69 17 -40 38 -30
111 18 130 38 15 58 11 88 -19z m284 3 c19 -20 12 -32 -9 -15 -19 16 -60 10
-64 -9 -1 -10 13 -23 40 -35 45 -21 58 -46 38 -70 -16 -20 -74 -19 -90 0 -18
22 -4 31 16 11 9 -10 23 -15 31 -12 8 3 19 6 24 6 5 0 9 9 9 20 0 13 -10 24
-27 30 -62 22 -77 45 -48 74 21 21 59 21 80 0z m505 -9 c0 -22 3 -24 29 -19
23 5 32 2 40 -14 14 -26 14 -102 1 -102 -5 0 -10 23 -10 51 0 49 -1 50 -27 47
-26 -3 -28 -7 -31 -50 -5 -79 -22 -54 -22 32 0 47 4 80 10 80 6 0 10 -11 10
-25z m-374 -40 c21 -32 11 -45 -37 -45 -43 0 -51 -13 -18 -30 15 -9 24 -8 35
1 16 13 30 6 19 -10 -3 -6 -19 -11 -35 -11 -30 0 -60 30 -60 60 0 27 30 60 55
60 15 0 31 -10 41 -25z m112 13 c7 -7 12 -33 12 -59 l0 -47 -42 2 c-33 1 -44
5 -46 19 -5 25 16 47 44 47 29 0 38 14 20 30 -11 8 -20 8 -35 1 -28 -15 -36
-14 -21 4 15 18 51 20 68 3z m102 2 c0 -4 -9 -10 -19 -13 -16 -4 -21 -16 -24
-53 -3 -48 -3 -47 -5 11 -2 57 -1 60 23 61 14 1 25 -2 25 -6z m107 -6 c2 -7
-8 -9 -26 -6 -40 6 -60 -28 -36 -64 18 -27 19 -28 47 -13 16 9 19 8 16 -3 -7
-21 -60 -23 -75 -2 -18 25 -16 69 3 89 18 17 65 17 71 -1z m7883 -44 c0 -5 -7
-10 -15 -10 -11 0 -15 -11 -15 -40 0 -22 -4 -40 -10 -40 -5 0 -10 18 -10 40 0
22 -4 40 -10 40 -5 0 -10 5 -10 10 0 6 16 10 35 10 19 0 35 -4 35 -10z m150
-40 c0 -48 -1 -50 -29 -50 -18 0 -31 6 -35 16 -10 25 3 54 24 54 10 0 20 7 24
15 10 28 16 15 16 -35z m-85 -15 c0 -25 -4 -31 -26 -33 -29 -3 -44 18 -33 50
4 14 13 18 32 16 23 -2 27 -8 27 -33z m163 -3 c3 -32 2 -33 -30 -30 -38 3 -46
31 -10 36 12 2 22 8 22 13 0 6 -9 7 -20 4 -12 -4 -20 -2 -20 5 0 6 12 10 28 8
23 -2 28 -8 30 -36z m36 16 l7 -23 10 24 c18 44 22 12 5 -34 -11 -26 -24 -45
-33 -45 -13 0 -13 3 -3 15 9 11 9 22 1 46 -13 38 -13 39 -2 39 5 0 12 -10 15
-22z m5400 -230 c5 -9 7 -21 2 -25 -4 -4 -12 0 -17 10 -16 28 -58 22 -70 -10
-22 -57 29 -96 73 -56 16 14 18 14 18 1 0 -25 -26 -40 -62 -36 -56 5 -75 79
-32 123 21 20 73 16 88 -7z m708 -25 l33 -48 3 48 c5 73 22 55 22 -23 0 -38
-4 -70 -9 -70 -4 0 -25 23 -45 52 l-36 52 0 -52 c0 -29 -4 -52 -10 -52 -6 0
-10 30 -10 70 0 39 4 70 10 70 5 0 24 -21 42 -47z m1320 30 c10 -9 18 -30 18
-47 0 -60 -50 -98 -80 -61 -15 18 1 20 18 3 8 -8 15 -8 27 2 22 18 19 39 -5
33 -26 -7 -50 13 -50 41 0 44 39 59 72 29z m86 -55 l-2 -73 -3 63 c-4 58 -5
62 -23 52 -25 -13 -26 -2 -2 16 29 22 32 17 30 -58z m140 0 l-2 -73 -3 63 c-4
58 -5 62 -23 52 -25 -13 -26 -2 -2 16 29 22 32 17 30 -58z m122 52 c12 -23 3
-45 -29 -74 -29 -26 -26 -34 12 -39 24 -3 20 -4 -16 -5 l-48 -2 20 28 c11 16
27 35 36 42 19 16 20 46 0 54 -8 3 -22 -2 -30 -11 -9 -8 -18 -13 -21 -10 -9 8
27 37 46 37 11 0 24 -9 30 -20z m119 2 c5 -10 6 -24 1 -32 -5 -8 -3 -21 3 -32
25 -39 -43 -79 -73 -44 -15 19 -7 21 19 4 15 -9 23 -9 35 1 19 16 10 41 -15
41 -10 0 -19 5 -19 10 0 6 7 10 15 10 21 0 31 30 14 41 -9 5 -22 3 -36 -7 -24
-15 -31 -6 -11 14 18 18 56 14 67 -6z m111 -25 c0 -24 4 -47 9 -52 6 -6 4 -17
-5 -29 -12 -17 -14 -18 -14 -3 0 12 -8 17 -30 17 -16 0 -30 4 -30 9 0 14 54
100 63 101 4 0 7 -19 7 -43z m130 33 c0 -5 -13 -10 -30 -10 -39 0 -40 -26 -1
-33 34 -7 47 -36 31 -67 -13 -24 -52 -27 -70 -5 -14 17 0 21 16 5 16 -16 44 0
44 25 0 26 -18 36 -51 28 -18 -5 -21 -3 -16 11 4 10 7 26 7 37 0 15 7 19 35
19 19 0 35 -4 35 -10z m104 4 c9 -3 16 -13 16 -22 0 -13 -2 -13 -18 1 -12 11
-22 13 -35 6 -26 -15 -21 -37 7 -32 18 4 29 -2 40 -20 20 -30 12 -55 -22 -64
-36 -9 -66 29 -58 75 8 54 30 71 70 56z m136 1 c0 -13 -65 -135 -72 -135 -5 0
5 27 22 60 l30 60 -35 0 c-19 0 -35 5 -35 10 0 6 20 10 45 10 25 0 45 -2 45
-5z m88 -3 c7 -5 12 -22 12 -38 0 -16 1 -40 2 -53 4 -29 -21 -46 -55 -37 -20
5 -27 13 -27 31 0 13 4 27 10 30 6 4 5 13 -2 25 -21 33 24 65 60 42z m120 -4
c16 -16 15 -90 -1 -112 -15 -20 -58 -19 -65 2 -3 11 -1 11 18 0 18 -11 23 -11
36 6 20 28 18 34 -13 28 -43 -8 -69 41 -37 72 18 19 45 21 62 4z m-2896 -18
c19 -17 19 -20 5 -20 -23 0 -23 -58 1 -76 16 -12 15 -13 -5 -14 -23 0 -26 6
-36 74 -5 28 0 56 9 56 3 0 14 -9 26 -20z m280 0 c19 -17 19 -20 5 -20 -23 0
-23 -58 1 -76 16 -12 15 -13 -5 -14 -23 0 -26 6 -36 74 -5 28 0 56 9 56 3 0
14 -9 26 -20z m-462 -20 c23 -23 24 -29 10 -64 -7 -20 -17 -26 -38 -26 -15 0
-33 5 -40 12 -17 17 -15 64 4 82 21 21 40 20 64 -4z m108 8 c14 -12 17 -98 3
-98 -6 0 -11 19 -13 43 -2 29 -8 42 -18 42 -10 0 -16 -13 -18 -42 -4 -61 -22
-53 -22 10 0 50 1 52 28 54 15 1 33 -3 40 -9z m171 3 c7 -5 16 -30 18 -55 l6
-47 -44 3 c-39 3 -44 6 -44 28 0 20 6 26 28 28 15 2 27 9 27 18 0 16 -26 19
-35 4 -4 -6 -11 -7 -17 -4 -7 5 -4 12 7 21 22 15 35 16 54 4z m116 -7 c19 -20
12 -32 -10 -14 -8 7 -22 10 -30 6 -18 -7 -21 -65 -2 -67 17 -2 20 -1 42 7 18
7 18 6 6 -9 -16 -20 -52 -22 -69 -5 -17 17 -15 64 4 82 20 20 38 20 59 0z
m366 6 c13 -7 19 -21 19 -43 0 -38 -15 -57 -45 -57 -30 0 -45 19 -45 57 0 44
32 64 71 43z m1019 -5 c0 -8 7 -15 15 -15 8 0 15 -4 15 -10 0 -5 -7 -10 -15
-10 -8 0 -15 -7 -15 -15 0 -8 -4 -15 -10 -15 -5 0 -10 7 -10 15 0 8 -7 15 -15
15 -8 0 -15 5 -15 10 0 6 7 10 15 10 8 0 15 7 15 15 0 8 5 15 10 15 6 0 10 -7
10 -15z m-16915 -61 c24 -9 47 -61 39 -87 -14 -46 -38 -66 -75 -67 -35 0 -89
-31 -89 -50 0 -24 -22 -62 -30 -54 -15 15 8 81 35 102 24 19 24 21 9 51 -27
54 7 110 68 111 14 0 34 -3 43 -6z m2075 -139 c0 -8 -7 -15 -15 -15 -16 0 -20
12 -8 23 11 12 23 8 23 -8z m-830 -35 l25 -41 5 37 c3 21 11 39 18 42 9 3 12
-15 12 -67 0 -84 -12 -91 -52 -28 l-28 42 0 -42 c0 -32 -4 -43 -15 -43 -12 0
-15 14 -15 70 0 83 13 90 50 30z m498 28 c15 -15 16 -50 1 -65 -8 -8 -8 -17 0
-31 15 -27 14 -32 -4 -32 -9 0 -21 11 -27 25 -6 14 -17 25 -25 25 -7 0 -13
-11 -13 -25 0 -16 -6 -25 -15 -25 -12 0 -15 14 -15 63 0 35 3 67 7 70 11 12
78 8 91 -5z m282 -58 c0 -56 -3 -70 -15 -70 -12 0 -15 14 -15 70 0 56 3 70 15
70 12 0 15 -14 15 -70z m856 28 l29 -42 3 42 c2 29 8 42 18 42 11 0 14 -16 14
-70 0 -84 -13 -90 -56 -28 l-29 42 -3 -42 c-2 -29 -8 -42 -18 -42 -11 0 -14
16 -14 70 0 84 13 90 56 28z m610 18 c16 -17 19 -36 4 -36 -5 0 -10 -13 -10
-30 0 -16 5 -30 10 -30 6 0 10 -5 10 -11 0 -6 -10 -9 -22 -7 -19 2 -24 11 -30
48 -10 72 5 99 38 66z m-3380 -21 c9 -14 13 -32 10 -41 -4 -9 -1 -23 5 -31 15
-18 4 -29 -14 -14 -8 6 -22 9 -31 5 -24 -9 -66 22 -66 51 0 54 66 75 96 30z
m1298 -1 c9 -8 16 -24 16 -35 0 -15 -7 -19 -36 -19 -22 0 -33 -4 -29 -11 4 -6
19 -7 37 -4 23 6 29 4 26 -6 -3 -8 -20 -15 -38 -17 -56 -6 -80 48 -40 88 24
24 43 25 64 4z m64 -16 l8 -33 12 33 c13 37 35 39 40 4 4 -27 22 -29 22 -3 0
20 17 37 27 28 3 -3 0 -29 -7 -56 -9 -39 -16 -51 -31 -51 -12 0 -19 7 -19 19
0 30 -17 34 -24 6 -11 -42 -34 -29 -51 27 -18 63 -18 58 0 58 8 0 18 -14 23
-32z m374 15 c10 -9 18 -24 18 -35 0 -14 -8 -18 -36 -18 -22 0 -33 -4 -29 -11
4 -6 20 -7 38 -3 28 6 30 5 18 -10 -16 -19 -62 -21 -79 -4 -17 17 -15 58 5 80
20 22 41 23 65 1z m121 -1 c35 -31 14 -92 -33 -92 -24 0 -30 -4 -30 -21 0 -12
-5 -19 -12 -17 -13 5 -24 108 -14 133 6 17 68 15 89 -3z m107 -37 c0 -42 -3
-55 -15 -55 -11 0 -15 12 -15 48 0 27 3 52 7 55 16 17 23 3 23 -48z m102 38
c10 -9 18 -24 18 -35 0 -14 -8 -18 -36 -18 -22 0 -33 -4 -29 -11 4 -6 20 -7
38 -3 28 6 30 5 18 -10 -16 -19 -62 -21 -79 -4 -17 17 -15 58 5 80 20 22 41
23 65 1z m99 7 c31 -17 23 -32 -13 -25 -22 5 -30 4 -23 -3 6 -6 19 -12 30 -14
14 -2 20 -11 20 -28 0 -22 -4 -25 -39 -25 -24 0 -41 5 -44 14 -3 10 3 12 27 6
19 -4 31 -3 31 4 0 5 -10 11 -21 13 -12 2 -27 11 -33 21 -9 15 -7 21 8 33 24
17 31 17 57 4z m770 -11 c27 -27 20 -43 -19 -47 -18 -2 -32 -8 -32 -14 0 -6
13 -8 37 -3 33 6 35 5 24 -9 -16 -19 -62 -21 -79 -4 -17 17 -15 64 4 82 21 21
40 20 65 -5z m57 -11 c10 -33 11 -32 27 17 2 8 9 15 15 15 6 0 13 -7 15 -15
16 -49 17 -50 27 -17 5 18 14 32 19 30 14 -5 13 -10 0 -64 -9 -34 -16 -45 -29
-42 -9 2 -18 13 -20 26 -2 12 -7 22 -12 22 -5 0 -10 -10 -12 -22 -5 -40 -35
-34 -47 9 -6 21 -11 46 -11 56 0 29 19 19 28 -15z m206 16 c9 -8 16 -24 16
-35 0 -15 -7 -19 -36 -19 -22 0 -33 -4 -29 -11 4 -6 19 -7 37 -4 23 6 29 4 26
-6 -3 -8 -20 -15 -38 -17 -56 -6 -80 48 -40 88 24 24 43 25 64 4z m100 10 c9
-3 16 -12 16 -20 0 -11 -7 -13 -26 -8 -19 5 -25 4 -20 -5 4 -6 13 -11 20 -11
8 0 19 -7 26 -15 10 -12 10 -18 0 -31 -16 -18 -71 -15 -78 5 -3 10 3 11 27 6
40 -8 40 3 1 16 -31 11 -39 36 -18 57 13 13 28 15 52 6z m408 -51 l38 -37 38
37 c21 20 41 37 45 37 18 0 3 -28 -35 -67 l-42 -43 -48 47 c-45 45 -57 63 -41
63 4 0 24 -17 45 -37z m10130 -130 l38 -37 40 39 c27 26 43 36 50 29 7 -7 -2
-21 -25 -44 -19 -19 -35 -38 -35 -43 0 -5 11 -18 25 -29 33 -25 49 -55 35 -63
-6 -4 -28 12 -48 34 l-38 41 -39 -40 c-21 -22 -43 -40 -47 -40 -18 0 -6 26 29
62 l37 38 -37 38 c-20 21 -37 41 -37 45 0 15 15 6 52 -30z m-9054 15 c16 -16
15 -53 -2 -70 -12 -12 -12 -18 0 -39 17 -31 17 -39 0 -39 -7 0 -19 14 -26 30
-8 18 -20 30 -31 30 -14 0 -19 -7 -19 -30 0 -16 -4 -30 -10 -30 -6 0 -10 33
-10 80 l0 80 43 0 c24 0 48 -5 55 -12z m312 -68 c0 -64 -3 -80 -15 -80 -12 0
-15 16 -15 80 0 64 3 80 15 80 12 0 15 -16 15 -80z m-192 28 c7 -7 12 -22 12
-35 0 -20 -5 -23 -41 -23 -28 0 -39 -4 -36 -12 2 -8 19 -12 41 -11 50 3 43
-21 -6 -25 -28 -2 -40 2 -52 20 -20 28 -20 48 0 76 17 24 62 30 82 10z m142
-20 c13 -25 13 -31 0 -55 -11 -20 -25 -29 -48 -31 -27 -3 -32 -7 -32 -28 0
-16 -5 -24 -12 -22 -9 3 -14 32 -16 86 l-3 81 48 -2 c40 -2 50 -6 63 -29z
m100 20 c1 -7 7 -26 14 -43 l13 -30 13 43 c7 23 19 42 27 42 16 0 15 -5 -20
-94 -22 -58 -49 -88 -64 -72 -4 4 1 14 12 22 20 15 19 23 -22 132 -3 6 2 12
11 12 9 0 16 -6 16 -12z m9755 -78 c-3 -5 -19 -10 -36 -10 -22 0 -29 -5 -29
-20 0 -16 7 -20 30 -20 17 0 30 -4 30 -10 0 -5 -13 -10 -30 -10 -23 0 -30 -4
-30 -20 0 -15 7 -20 29 -20 17 0 33 -4 36 -10 4 -6 -12 -10 -39 -10 l-46 0 0
70 0 70 46 0 c27 0 43 -4 39 -10z m315 0 c0 -5 -4 -10 -10 -10 -5 0 -10 5 -10
10 0 6 5 10 10 10 6 0 10 -4 10 -10z m40 -60 c0 -40 -4 -70 -10 -70 -6 0 -10
30 -10 70 0 40 4 70 10 70 6 0 10 -30 10 -70z m100 0 c0 -40 -4 -70 -10 -70
-6 0 -10 30 -10 70 0 40 4 70 10 70 6 0 10 -30 10 -70z m133 38 c37 -50 3
-108 -64 -108 l-39 0 0 71 0 70 42 -3 c31 -2 46 -10 61 -30z m294 -5 c-3 -10
-5 -4 -5 12 0 17 2 24 5 18 2 -7 2 -21 0 -30z m43 12 c0 -14 -4 -25 -10 -25
-5 0 -10 11 -10 25 0 14 5 25 10 25 6 0 10 -11 10 -25z m70 -17 c38 5 60 -33
42 -73 -10 -21 -18 -25 -47 -23 l-35 2 1 71 c1 38 4 58 6 44 3 -22 8 -25 33
-21z m119 0 c30 4 41 -13 41 -70 0 -45 -19 -32 -22 15 -2 34 -7 42 -23 42 -16
0 -21 -8 -23 -42 -5 -67 -22 -50 -22 20 0 63 12 101 18 55 3 -21 7 -24 31 -20z
m744 0 c31 -3 32 -4 33 -53 1 -46 1 -47 -3 -7 -7 72 -58 67 -66 -6 -2 -20 -4
-3 -4 38 0 41 2 65 4 53 3 -16 13 -23 36 -25z m116 0 c30 4 41 -13 41 -70 0
-45 -19 -32 -22 15 -2 34 -7 42 -23 42 -16 0 -21 -8 -23 -42 -5 -67 -22 -50
-22 20 0 63 12 101 18 55 3 -21 7 -24 31 -20z m81 32 c0 -5 -4 -10 -10 -10 -5
0 -10 5 -10 10 0 6 5 10 10 10 6 0 10 -4 10 -10z m610 0 c0 -5 -4 -10 -10 -10
-5 0 -10 5 -10 10 0 6 5 10 10 10 6 0 10 -4 10 -10z m37 -97 c-2 -21 -4 -4 -4
37 0 41 2 58 4 38 2 -21 2 -55 0 -75z m483 82 c0 -14 -4 -25 -10 -25 -11 0
-14 33 -3 43 11 11 13 8 13 -18z m27 -12 c-3 -10 -5 -4 -5 12 0 17 2 24 5 18
2 -7 2 -21 0 -30z m-997 7 c23 -23 27 -82 8 -97 -11 -8 -48 -10 -87 -4 -16 2
-23 39 -11 61 7 13 21 20 40 20 28 0 30 -3 30 -35 0 -24 5 -35 15 -35 22 0 19
56 -5 80 -43 43 -110 14 -110 -48 0 -49 24 -72 74 -73 39 -1 40 -1 14 -11 -81
-29 -145 98 -75 147 31 21 83 19 107 -5z m-2125 -10 c4 -6 13 -5 25 2 29 18
50 -6 50 -58 0 -56 -18 -57 -22 -1 -2 29 -8 42 -18 42 -10 0 -16 -13 -18 -42
-2 -24 -7 -43 -12 -43 -5 0 -10 19 -12 43 -2 29 -8 42 -18 42 -10 0 -16 -13
-18 -42 -4 -61 -22 -53 -22 10 0 51 1 52 30 54 16 1 32 -2 35 -7z m164 1 c7
-5 16 -30 18 -55 l6 -47 -44 3 c-39 3 -44 6 -44 28 0 20 6 26 28 28 15 2 27 9
27 18 0 16 -26 19 -35 4 -4 -6 -11 -7 -17 -4 -7 5 -4 12 7 21 22 15 35 16 54
4z m61 -52 c0 -27 -4 -49 -10 -49 -5 0 -10 25 -10 56 0 34 4 53 10 49 6 -3 10
-28 10 -56z m880 12 c0 -69 45 -63 53 7 3 31 4 29 5 -13 2 -49 1 -51 -28 -53
-20 -2 -32 4 -40 17 -13 25 -13 81 0 81 6 0 10 -18 10 -39z m116 2 l16 -37 18
40 c10 21 19 33 19 27 1 -19 -30 -93 -39 -93 -6 0 -40 82 -40 97 0 14 14 -4
26 -34z m152 -13 l3 -46 -36 -2 c-24 -2 -37 2 -41 13 -9 22 14 45 43 45 15 0
23 5 20 13 -2 6 -16 11 -31 10 -14 -1 -26 3 -26 8 0 6 15 9 33 7 30 -3 32 -5
35 -48z m108 -5 c1 -46 1 -47 -3 -7 -7 72 -58 67 -66 -6 -3 -29 -4 -26 -5 16
l-2 53 38 -3 37 -3 1 -50z m112 43 c23 -23 13 -38 -23 -38 -25 0 -35 -4 -35
-15 0 -22 27 -30 47 -14 14 12 16 12 11 -1 -6 -19 -45 -25 -64 -10 -17 15 -19
61 -2 78 7 7 21 12 33 12 12 0 26 -5 33 -12z m102 3 c0 -4 -11 -6 -25 -3 -18
3 -25 0 -25 -12 0 -9 6 -16 13 -16 7 0 22 -6 32 -14 17 -12 17 -16 5 -30 -16
-20 -61 -17 -68 4 -5 13 -3 13 11 1 17 -14 47 -9 47 8 0 5 -13 14 -30 20 -28
9 -38 29 -23 44 9 10 63 8 63 -2z m270 -50 c0 -43 -5 -62 -17 -72 -15 -12 -16
-12 -10 4 4 10 7 43 7 73 0 30 5 54 10 54 6 0 10 -26 10 -59z m290 -2 c0 -37
-5 -61 -14 -69 -18 -14 -58 -10 -64 8 -3 11 0 11 16 1 17 -10 23 -10 36 0 23
20 19 32 -8 25 -28 -7 -56 18 -56 50 0 32 19 47 57 44 l33 -2 0 -57z m158 8
l-2 -52 -3 48 c-3 38 -8 47 -23 47 -19 0 -24 -10 -33 -70 -3 -14 -5 -7 -6 18
-1 28 -6 45 -16 49 -22 8 -28 -1 -36 -50 l-6 -42 -2 52 -1 52 65 0 65 -1 -2
-51z m110 3 l3 -46 -36 -2 c-24 -2 -37 2 -41 13 -9 22 14 45 43 45 15 0 23 5
20 13 -2 6 -16 11 -31 10 -14 -1 -26 3 -26 8 0 6 15 9 33 7 30 -3 32 -5 35
-48z m39 -27 c-2 -16 -4 -3 -4 27 0 30 2 43 4 28 2 -16 2 -40 0 -55z m211 59
c3 -11 1 -11 -18 0 -18 11 -23 11 -36 -6 -8 -11 -14 -23 -14 -26 0 -3 6 -15
14 -26 13 -17 18 -17 36 -6 19 11 21 11 18 0 -6 -18 -46 -22 -64 -8 -17 15
-18 62 -2 78 16 16 60 11 66 -6z m112 -2 c12 -22 4 -60 -14 -72 -38 -26 -84
20 -67 66 13 33 64 37 81 6z m158 -33 l-2 -52 -3 48 c-3 38 -8 47 -23 47 -19
0 -24 -10 -33 -70 -3 -14 -5 -7 -6 18 -1 28 -6 45 -16 49 -22 8 -28 -1 -36
-50 l-6 -42 -2 52 -1 52 65 0 65 -1 -2 -51z m-378 -37 c0 -5 -4 -10 -10 -10
-5 0 -10 5 -10 10 0 6 5 10 10 10 6 0 10 -4 10 -10z m-16690 -251 c0 -5 -7 -9
-15 -9 -15 0 -20 12 -9 23 8 8 24 -1 24 -14z m620 0 c0 -5 -7 -9 -15 -9 -15 0
-20 12 -9 23 8 8 24 -1 24 -14z m-1180 -9 c0 -17 5 -19 24 -14 34 8 64 -36 50
-74 -8 -23 -16 -27 -52 -28 l-42 -2 0 69 c0 39 4 69 10 69 6 0 10 -9 10 -20z
m120 1 c0 -14 5 -18 19 -14 28 7 51 -23 51 -68 0 -28 -4 -39 -15 -39 -11 0
-15 11 -15 38 0 43 -6 53 -26 45 -9 -3 -14 -20 -14 -44 0 -28 -4 -39 -15 -39
-12 0 -15 14 -15 63 0 35 3 67 7 70 12 13 23 7 23 -12z m603 -12 c17 -22 23
-75 9 -95 -4 -6 -28 -11 -55 -12 -37 0 -50 4 -58 19 -21 40 12 84 55 73 22 -5
26 -12 26 -40 0 -19 5 -34 11 -34 6 0 9 16 7 37 -2 29 -9 41 -30 53 -25 13
-31 13 -55 0 -22 -12 -29 -24 -31 -54 -4 -49 20 -78 63 -76 45 3 52 1 35 -10
-20 -13 -54 -12 -85 2 -35 16 -52 75 -34 114 27 56 104 68 142 23z m497 -39
c0 -40 -4 -70 -10 -70 -6 0 -10 30 -10 70 0 40 4 70 10 70 6 0 10 -30 10 -70z
m1816 9 l22 -54 25 58 c14 31 31 57 36 57 7 0 11 -28 11 -70 0 -78 -19 -99
-21 -22 l-1 47 -21 -47 c-11 -27 -24 -48 -28 -48 -3 0 -16 21 -27 48 l-20 47
-1 -47 c-1 -27 -5 -48 -11 -48 -6 0 -10 30 -10 71 0 85 14 88 46 8z m434 51
c0 -17 -61 -133 -66 -127 -3 3 6 28 20 56 14 28 26 53 26 56 0 3 -16 5 -36 5
-21 0 -33 4 -29 10 8 13 85 13 85 0z m1329 1 c8 -5 12 -18 9 -29 -3 -10 -1
-27 4 -36 14 -25 -8 -46 -48 -46 l-34 0 0 60 c0 59 1 60 28 60 15 0 33 -4 41
-9z m51 -10 c0 -15 5 -18 21 -14 12 4 25 0 30 -8 12 -19 11 -79 -1 -79 -5 0
-10 16 -10 36 0 28 -3 35 -17 32 -12 -2 -19 -14 -21 -36 -6 -56 -22 -35 -22
28 0 33 4 60 10 60 6 0 10 -9 10 -19z m670 -16 c22 0 25 -5 28 -42 2 -26 -1
-43 -7 -43 -6 0 -11 16 -11 36 0 28 -3 35 -17 32 -12 -2 -19 -14 -21 -36 -5
-52 -22 -36 -22 21 0 55 11 83 20 50 3 -11 14 -18 30 -18z m70 20 c0 -8 8 -15
18 -15 27 0 42 -20 42 -57 0 -43 -18 -43 -22 -1 -2 22 -9 34 -20 36 -15 3 -18
-4 -18 -32 0 -20 -4 -36 -10 -36 -6 0 -10 27 -10 60 0 33 4 60 10 60 6 0 10
-7 10 -15z m100 5 c0 -5 -7 -10 -15 -10 -8 0 -15 5 -15 10 0 6 7 10 15 10 8 0
15 -4 15 -10z m520 0 c0 -5 -4 -10 -10 -10 -5 0 -10 5 -10 10 0 6 5 10 10 10
6 0 10 -4 10 -10z m30 -50 c0 -33 -4 -60 -10 -60 -11 0 -14 103 -3 113 12 12
13 8 13 -53z m-1921 -7 c-1 -62 -6 -56 -11 15 -2 23 0 42 4 42 5 0 7 -26 7
-57z m1505 38 c11 -12 16 -31 14 -53 -3 -31 -5 -33 -45 -35 -33 -1 -45 3 -53
18 -15 27 4 59 35 59 21 0 25 -5 25 -30 0 -16 5 -30 10 -30 19 0 11 59 -9 70
-43 23 -81 -1 -81 -50 0 -35 38 -65 70 -55 11 4 20 2 20 -4 0 -6 -16 -11 -35
-11 -64 0 -97 65 -59 118 20 29 83 31 108 3z m-5588 -42 l12 -34 11 28 c6 16
11 33 11 38 0 10 13 12 22 3 10 -9 -29 -99 -44 -102 -12 -2 -48 74 -48 101 0
21 25 -3 36 -34z m102 -8 c3 -33 7 -42 20 -39 12 2 18 15 20 46 5 61 22 52 22
-11 l0 -54 -37 -1 c-44 -2 -53 9 -53 66 0 58 24 52 28 -7z m113 12 l13 -38 14
38 c14 36 32 50 32 25 0 -26 -33 -98 -45 -98 -13 0 -45 68 -45 95 0 28 19 15
31 -22z m99 -18 c0 -30 -4 -55 -10 -55 -5 0 -10 25 -10 55 0 30 5 55 10 55 6
0 10 -25 10 -55z m298 -19 l-3 -71 -39 0 c-24 0 -41 5 -44 13 -3 10 4 12 32 7
28 -6 36 -4 36 8 0 10 -6 13 -20 10 -29 -8 -50 14 -50 53 0 37 16 51 61 51
l30 0 -3 -71z m97 62 c4 -4 15 -2 25 4 29 18 50 -6 50 -58 0 -24 -4 -44 -10
-44 -5 0 -10 18 -10 39 0 24 -5 41 -14 44 -20 8 -26 -2 -26 -45 0 -21 -4 -38
-10 -38 -5 0 -10 18 -10 40 0 33 -3 40 -20 40 -17 0 -20 -7 -20 -40 0 -22 -4
-40 -10 -40 -5 0 -10 24 -10 54 0 53 0 54 29 52 16 -1 33 -4 36 -8z m166 2
c14 -8 19 -21 19 -56 l0 -45 -42 3 c-36 2 -44 7 -46 26 -3 18 2 23 27 28 18 4
34 10 36 15 9 13 -16 22 -28 10 -15 -15 -27 -14 -27 3 0 24 31 32 61 16z m67
-48 c2 -42 0 -52 -12 -52 -13 0 -16 12 -16 56 0 73 24 70 28 -4z m198 44 c24
-18 13 -31 -14 -17 -24 13 -46 -7 -40 -36 3 -13 12 -17 36 -16 24 2 30 0 26
-12 -7 -18 -55 -20 -72 -3 -18 18 -15 75 6 87 23 14 35 13 58 -3z m108 -2 c19
-18 21 -65 4 -82 -19 -19 -66 -15 -78 7 -15 29 -12 49 10 71 24 24 43 25 64 4z
m177 -5 c15 -24 11 -89 -6 -89 -11 0 -15 11 -15 38 0 21 -3 42 -7 45 -13 13
-33 -16 -33 -49 0 -19 -4 -34 -10 -34 -5 0 -10 17 -10 38 0 21 -3 42 -7 45
-13 13 -33 -16 -33 -49 0 -19 -4 -34 -10 -34 -5 0 -10 24 -10 53 l0 54 66 -2
c44 -2 69 -7 75 -16z m2757 9 c18 -18 15 -68 -4 -75 -37 -14 -70 41 -44 73 15
17 32 18 48 2z m534 -25 c2 -21 8 -38 13 -38 6 0 11 17 13 38 5 53 22 46 22
-9 0 -45 0 -45 -32 -42 -31 3 -33 6 -36 46 -2 23 1 42 7 42 5 0 11 -17 13 -37z
m95 5 l10 -33 13 33 c6 17 16 32 22 32 6 0 7 -8 3 -17 -4 -10 -12 -30 -17 -45
-5 -16 -14 -28 -19 -28 -8 0 -39 63 -39 81 0 22 18 6 27 -23z m131 -15 l3 -43
-36 0 c-32 0 -36 3 -33 23 2 14 11 23 26 25 12 2 22 8 22 14 0 6 -10 8 -25 4
-14 -4 -25 -3 -25 2 0 16 14 23 40 20 22 -3 25 -8 28 -45z m92 28 c13 -24 13
-71 1 -71 -6 0 -11 15 -13 32 -2 22 -9 34 -20 36 -15 3 -18 -4 -18 -32 0 -20
-4 -36 -10 -36 -5 0 -10 20 -10 45 0 43 1 45 30 45 19 0 33 -7 40 -19z m84 13
c9 -3 16 -15 16 -25 0 -15 -7 -19 -31 -19 -20 0 -29 -4 -26 -12 2 -7 16 -12
31 -11 14 1 24 -2 21 -8 -9 -13 -49 -11 -63 3 -24 24 -8 78 24 78 7 0 19 -3
28 -6z m93 -11 c3 -7 -3 -9 -16 -6 -30 8 -26 -6 5 -17 37 -14 28 -44 -14 -48
-19 -2 -32 1 -32 8 0 7 8 9 19 5 29 -9 34 10 6 23 -24 11 -32 31 -18 46 11 10
46 3 50 -11z m233 -43 c0 -41 -4 -60 -12 -60 -9 0 -12 17 -10 60 5 78 22 78
22 0z m250 1 c0 -62 -12 -78 -51 -66 -29 9 -23 26 6 19 15 -4 25 -2 25 5 0 6
-8 11 -18 11 -24 0 -42 19 -42 45 0 29 19 45 52 45 27 0 28 -1 28 -59z m138
46 c14 -10 16 -77 2 -77 -5 0 -10 16 -10 35 0 24 -5 35 -15 35 -10 0 -15 -11
-15 -35 0 -44 -18 -46 -22 -2 -2 20 -8 32 -18 32 -10 0 -16 -12 -18 -32 -5
-49 -22 -40 -22 11 l0 43 53 -1 c28 0 58 -5 65 -9z m90 1 c7 -7 12 -27 12 -46
0 -32 -1 -33 -37 -30 -30 2 -38 7 -38 23 0 12 8 21 20 23 11 2 25 9 30 14 7 7
1 9 -17 6 -27 -5 -35 1 -21 15 10 11 38 8 51 -5z m52 -33 c0 -25 -4 -45 -10
-45 -5 0 -10 20 -10 45 0 25 5 45 10 45 6 0 10 -20 10 -45z m168 27 c3 -9 -3
-11 -22 -6 -32 8 -47 -20 -23 -43 14 -14 18 -14 33 -2 15 12 17 12 12 -1 -2
-8 -16 -16 -31 -18 -34 -4 -51 26 -37 63 8 21 16 26 37 23 14 -2 28 -9 31 -16z
m94 -8 c15 -33 1 -58 -35 -62 -33 -4 -51 26 -37 62 13 36 56 36 72 0z m136 13
c14 -10 16 -77 2 -77 -5 0 -10 16 -10 35 0 24 -5 35 -15 35 -10 0 -15 -11 -15
-35 0 -44 -18 -46 -22 -2 -2 20 -8 32 -18 32 -10 0 -16 -12 -18 -32 -5 -49
-22 -40 -22 11 l0 43 53 -1 c28 0 58 -5 65 -9z m-3380 -47 l3 -45 -36 -3 c-24
-1 -37 3 -41 13 -9 22 14 45 43 45 15 0 23 5 20 13 -2 6 -16 11 -31 10 -15 -1
-24 2 -20 8 3 6 18 9 32 7 24 -3 27 -8 30 -48z m75 39 c-19 -7 -23 -16 -23
-49 0 -22 -4 -40 -10 -40 -5 0 -10 22 -10 48 0 48 0 49 33 50 28 0 29 -1 10
-9z m-3695 -11 c13 -13 17 -183 6 -212 -5 -13 -27 -16 -138 -16 -89 0 -136 4
-144 12 -15 15 -16 181 -2 209 10 17 22 19 138 19 86 0 132 -4 140 -12z m6682
-48 c0 -5 -7 -10 -15 -10 -8 0 -15 5 -15 10 0 6 7 10 15 10 8 0 15 -4 15 -10z
m-5018 -15 c0 -5 -5 -11 -11 -13 -6 -2 -11 4 -11 13 0 9 5 15 11 13 6 -2 11
-8 11 -13z m13158 -115 l0 -60 30 0 c17 0 30 -4 30 -10 0 -5 -18 -10 -40 -10
l-40 0 0 70 c0 40 4 70 10 70 6 0 10 -27 10 -60z m100 50 c0 -5 -4 -10 -10
-10 -5 0 -10 5 -10 10 0 6 5 10 10 10 6 0 10 -4 10 -10z m160 -27 l0 -36 25
23 c31 29 46 18 17 -13 -20 -22 -20 -22 -1 -46 26 -32 15 -40 -16 -11 l-25 23
0 -21 c0 -12 -4 -22 -10 -22 -6 0 -10 30 -10 70 0 40 4 70 10 70 6 0 10 -17
10 -37z m280 -31 l0 -69 -40 -1 c-41 -2 -60 15 -60 56 0 28 34 55 59 47 17 -5
21 -2 21 14 0 12 5 21 10 21 6 0 10 -29 10 -68z m45 58 c-3 -5 -10 -10 -16
-10 -5 0 -9 5 -9 10 0 6 7 10 16 10 8 0 12 -4 9 -10z m445 -60 c0 -40 -4 -70
-10 -70 -11 0 -14 123 -3 133 12 13 13 7 13 -63z m40 60 c0 -5 -2 -10 -4 -10
-3 0 -8 5 -11 10 -3 6 -1 10 4 10 6 0 11 -4 11 -10z m184 -51 c11 11 24 21 29
21 6 0 1 -10 -11 -23 l-22 -24 20 -18 c11 -10 20 -23 20 -28 0 -6 -10 -1 -23
11 -29 27 -37 28 -37 2 0 -11 -4 -20 -10 -20 -12 0 -14 123 -2 134 4 4 9 -11
12 -34 l5 -42 19 21z m256 -7 l0 -69 -34 -1 c-42 -2 -58 16 -54 60 3 30 6 33
36 33 27 0 32 4 32 22 0 13 5 23 10 23 6 0 10 -29 10 -68z m50 64 c0 -3 -4 -8
-10 -11 -5 -3 -10 -1 -10 4 0 6 5 11 10 11 6 0 10 -2 10 -4z m595 -73 c-10
-38 -22 -72 -27 -78 -7 -7 -8 -3 -5 10 3 11 13 48 23 83 9 34 19 60 22 57 3
-2 -3 -35 -13 -72z m55 67 c0 -5 -2 -10 -4 -10 -3 0 -8 5 -11 10 -3 6 -1 10 4
10 6 0 11 -4 11 -10z m166 -70 c-11 -44 -25 -80 -29 -80 -5 0 -6 7 -3 17 4 9
14 45 22 80 9 34 20 63 23 63 4 0 -2 -36 -13 -80z m124 70 c0 -5 -2 -10 -4
-10 -3 0 -8 5 -11 10 -3 6 -1 10 4 10 6 0 11 -4 11 -10z m490 -58 l0 -69 -34
-1 c-42 -2 -58 16 -54 60 3 30 6 33 36 33 27 0 32 4 32 22 0 13 5 23 10 23 6
0 10 -29 10 -68z m110 0 l0 -68 -35 -2 c-30 -2 -37 1 -45 23 -6 16 -6 34 0 51
9 22 15 25 40 22 26 -4 30 -1 30 19 0 13 2 23 5 23 3 0 5 -31 5 -68z m182 26
c-6 -18 -16 -53 -22 -77 -6 -23 -14 -41 -16 -38 -4 4 18 105 32 146 10 30 15
1 6 -31z m-828 0 c8 -5 7 -8 -1 -8 -8 0 -13 -13 -13 -33 0 -18 6 -39 13 -46
10 -11 9 -13 -3 -9 -9 3 -16 20 -18 46 -2 23 -7 42 -13 42 -5 0 -4 9 3 20 9
13 14 16 17 8 2 -7 9 -16 15 -20z m-2354 -43 c0 -30 -4 -55 -10 -55 -5 0 -10
25 -10 55 0 30 5 55 10 55 6 0 10 -25 10 -55z m98 43 c14 -12 17 -98 3 -98 -6
0 -11 19 -13 43 -2 29 -8 42 -18 42 -10 0 -16 -13 -18 -42 -4 -61 -22 -53 -22
10 0 50 1 52 28 54 15 1 33 -3 40 -9z m213 -9 c28 -28 20 -43 -26 -49 -34 -4
-36 -6 -22 -19 14 -11 20 -11 32 -1 18 15 34 5 18 -11 -6 -6 -23 -9 -39 -7
-39 4 -54 46 -30 82 20 31 39 33 67 5z m169 -34 c0 -30 -4 -55 -10 -55 -11 0
-14 93 -3 103 12 12 13 8 13 -48z m98 43 c14 -12 17 -98 3 -98 -6 0 -11 19
-13 43 -2 29 -8 42 -18 42 -10 0 -16 -13 -18 -42 -4 -61 -22 -53 -22 10 0 50
1 52 28 54 15 1 33 -3 40 -9z m389 -75 c-2 -16 -4 -3 -4 27 0 30 2 43 4 28 2
-16 2 -40 0 -55z m109 22 c1 -46 1 -47 -3 -7 -7 72 -58 67 -66 -6 -3 -29 -4
-26 -5 16 l-2 53 38 -3 37 -3 1 -50z m215 28 c8 -21 6 -23 -31 -23 -43 0 -50
-9 -24 -31 13 -10 19 -10 36 0 16 10 19 10 16 -1 -6 -18 -46 -22 -64 -8 -15
13 -18 47 -8 75 10 25 65 16 75 -12z m156 -50 c-2 -16 -4 -3 -4 27 0 30 2 43
4 28 2 -16 2 -40 0 -55z m109 22 l2 -50 -7 45 c-5 36 -10 45 -26 45 -16 0 -21
-8 -23 -42 -4 -59 -22 -54 -22 6 l0 49 38 -1 37 -2 1 -50z m164 40 c15 -18 7
-19 -21 -2 -17 10 -22 9 -34 -6 -24 -33 10 -86 38 -58 17 17 31 13 17 -4 -29
-35 -80 -8 -80 42 0 40 54 59 80 28z m112 -10 c16 -35 -3 -75 -35 -75 -32 0
-47 18 -47 55 0 39 6 45 42 45 21 0 32 -7 40 -25z m166 -27 c2 -29 -1 -48 -7
-48 -6 0 -11 20 -11 46 0 38 -3 45 -17 42 -13 -2 -19 -15 -21 -46 -4 -57 -22
-54 -22 4 0 38 -3 45 -17 42 -13 -2 -19 -15 -21 -46 -4 -59 -22 -53 -22 8 l0
50 68 -2 67 -3 3 -47z m109 -25 c-2 -16 -4 -3 -4 27 0 30 2 43 4 28 2 -16 2
-40 0 -55z m109 22 c1 -46 1 -47 -3 -7 -7 72 -58 67 -66 -6 -3 -29 -4 -26 -5
16 l-2 53 38 -3 37 -3 1 -50z m181 -22 c-2 -16 -4 -3 -4 27 0 30 2 43 4 28 2
-16 2 -40 0 -55z m161 24 l-2 -52 -3 48 c-3 38 -8 47 -23 47 -19 0 -24 -10
-33 -70 -3 -14 -5 -7 -6 18 -1 28 -6 45 -16 49 -22 8 -28 -1 -36 -50 l-6 -42
-2 52 -1 52 65 0 65 -1 -2 -51z m58 10 l11 -32 17 39 c9 22 18 37 21 34 7 -7
-25 -98 -35 -98 -8 0 -40 73 -40 92 0 18 14 -1 26 -35z m152 -8 l3 -46 -38 1
c-31 1 -39 5 -41 23 -3 17 3 24 27 30 38 10 37 29 -1 27 -16 -1 -25 2 -22 8 3
5 20 8 37 6 30 -3 32 -5 35 -49z m340 39 c23 -23 13 -38 -23 -38 -25 0 -35 -4
-35 -15 0 -22 27 -30 47 -14 14 12 16 12 11 -1 -7 -22 -50 -25 -65 -4 -27 37
-10 84 32 84 12 0 26 -5 33 -12z m-17613 -88 c29 0 34 4 38 28 2 15 4 0 4 -33
0 -33 -2 -48 -4 -32 -4 23 -9 27 -38 27 -29 0 -34 -4 -38 -27 -2 -16 -4 -1 -4
32 0 33 2 48 4 33 4 -24 9 -28 38 -28z m172 -32 c-2 -18 -4 -6 -4 27 0 33 2
48 4 33 2 -15 2 -42 0 -60z m40 0 c-2 -18 -4 -6 -4 27 0 33 2 48 4 33 2 -15 2
-42 0 -60z m-83 46 c25 -24 19 -34 -19 -34 -27 0 -33 -3 -28 -16 4 -10 14 -14
29 -11 13 2 21 0 18 -4 -10 -16 -43 -9 -54 10 -15 29 -13 31 27 31 35 0 36 1
21 17 -14 13 -20 14 -32 3 -10 -7 -16 -8 -16 -2 0 9 15 19 32 21 4 1 14 -6 22
-15z m176 2 c15 -19 9 -56 -11 -69 -25 -16 -49 -1 -49 31 0 46 35 68 60 38z
m15820 0 c0 -11 -19 -15 -25 -6 -3 5 1 10 9 10 9 0 16 -2 16 -4z m-11200 -101
c0 -8 8 -15 19 -15 26 0 43 -24 39 -57 -3 -24 -8 -28 -40 -31 l-38 -3 0 60 c0
34 4 61 10 61 6 0 10 -7 10 -15z m100 1 c0 -8 10 -16 23 -18 18 -2 23 -10 25
-45 2 -26 -1 -43 -7 -43 -6 0 -11 16 -11 35 0 24 -5 35 -15 35 -10 0 -15 -11
-15 -35 0 -19 -4 -35 -10 -35 -6 0 -10 27 -10 60 0 33 4 60 10 60 6 0 10 -6
10 -14z m280 4 c0 -5 -4 -10 -10 -10 -5 0 -10 5 -10 10 0 6 5 10 10 10 6 0 10
-4 10 -10z m520 0 c0 -5 -4 -10 -10 -10 -5 0 -10 5 -10 10 0 6 5 10 10 10 6 0
10 -4 10 -10z m40 -50 c0 -33 -4 -60 -10 -60 -6 0 -10 27 -10 60 0 33 4 60 10
60 6 0 10 -27 10 -60z m-1600 25 c0 -19 6 -25 23 -26 l22 -2 -22 -4 c-16 -3
-23 -11 -23 -29 0 -13 -4 -24 -10 -24 -5 0 -10 25 -10 55 0 30 5 55 10 55 6 0
10 -11 10 -25z m1175 9 c10 -11 15 -29 13 -53 -3 -36 -3 -36 -48 -36 -45 0
-45 0 -45 35 0 32 3 35 32 38 29 3 32 1 35 -30 3 -26 6 -29 12 -15 12 25 -19
67 -49 67 -26 0 -55 -33 -55 -62 0 -29 38 -61 66 -55 13 2 24 0 24 -4 0 -11
-61 -12 -76 -1 -36 24 -40 84 -8 116 20 21 78 20 99 0z m-1080 -24 c-7 -8 -15
-28 -18 -45 -3 -22 -4 -19 -6 15 -1 39 2 46 19 46 17 0 17 -2 5 -16z m93 8
c18 -18 15 -68 -4 -75 -37 -14 -70 41 -44 73 15 17 32 18 48 2z m148 -38 l2
-45 -7 40 c-4 26 -11 40 -21 40 -10 0 -16 -13 -19 -40 l-5 -40 -5 40 c-4 26
-11 40 -21 40 -10 0 -17 -14 -21 -40 l-6 -40 -2 46 -1 46 53 -1 52 -1 1 -45z
m516 18 c2 -22 9 -34 21 -36 14 -3 17 4 17 32 0 20 5 36 10 36 6 0 10 -20 10
-45 0 -44 0 -45 -34 -45 -35 0 -46 15 -46 68 0 34 18 26 22 -10z m101 0 l14
-33 7 33 c4 17 12 32 17 32 12 0 11 -5 -3 -51 -15 -51 -33 -49 -51 6 -18 51
-4 62 16 13z m87 -13 c0 -25 -4 -45 -10 -45 -5 0 -10 20 -10 45 0 25 5 45 10
45 6 0 10 -20 10 -45z m250 -6 c0 -62 -23 -89 -64 -73 -25 10 -19 23 10 21 15
-1 29 3 31 9 2 7 -5 10 -21 7 -32 -6 -50 25 -36 61 8 21 15 25 45 24 35 -1 35
-1 35 -49z m138 4 c2 -26 -1 -43 -7 -43 -6 0 -11 16 -11 35 0 24 -5 35 -15 35
-10 0 -15 -11 -15 -35 0 -19 -4 -35 -10 -35 -5 0 -10 16 -10 35 0 24 -5 35
-15 35 -10 0 -15 -11 -15 -35 0 -19 -4 -35 -10 -35 -5 0 -10 20 -10 45 l0 45
58 -2 57 -3 3 -42z m90 0 c3 -43 3 -43 -31 -43 -34 0 -48 13 -40 38 3 6 16 12
29 12 13 0 24 5 24 11 0 7 -10 9 -25 5 -14 -4 -25 -3 -25 2 0 16 14 23 40 20
22 -3 25 -8 28 -45z m42 2 c0 -25 -4 -45 -10 -45 -5 0 -10 20 -10 45 0 25 5
45 10 45 6 0 10 -20 10 -45z m168 27 c3 -9 -3 -11 -22 -6 -23 5 -26 3 -26 -19
0 -32 16 -43 37 -25 14 11 15 11 11 -2 -3 -9 -17 -15 -34 -15 -24 0 -30 4 -32
28 -2 16 2 35 9 43 14 17 51 15 57 -4z m90 6 c7 -7 12 -22 12 -34 0 -51 -72
-61 -78 -11 -6 47 36 75 66 45z m150 -35 c2 -26 -1 -43 -7 -43 -6 0 -11 16
-11 35 0 24 -5 35 -15 35 -10 0 -15 -11 -15 -35 0 -19 -4 -35 -10 -35 -5 0
-10 16 -10 35 0 24 -5 35 -15 35 -10 0 -15 -11 -15 -35 0 -19 -4 -35 -10 -35
-5 0 -10 20 -10 45 l0 45 58 -2 57 -3 3 -42z m-328 -33 c0 -5 -4 -10 -10 -10
-5 0 -10 5 -10 10 0 6 5 10 10 10 6 0 10 -4 10 -10z m-4410 -117 c0 -17 -44
-133 -51 -133 -4 0 -10 11 -13 25 -4 15 -21 32 -44 44 l-37 19 35 15 c81 34
110 41 110 30z m120 -28 c16 -20 5 -32 -14 -16 -20 17 -36 5 -36 -26 0 -23 3
-25 31 -19 22 4 29 2 27 -7 -3 -6 -19 -13 -36 -15 -27 -3 -34 1 -42 24 -20 51
37 98 70 59z m410 5 c0 -5 -4 -10 -10 -10 -5 0 -10 5 -10 10 0 6 5 10 10 10 6
0 10 -4 10 -10z m250 -15 c7 -14 17 -25 22 -25 4 0 8 11 8 25 0 14 5 25 10 25
6 0 10 -22 10 -50 0 -57 -16 -66 -42 -22 l-17 27 -1 -27 c0 -16 -4 -28 -10
-28 -5 0 -10 23 -10 50 0 55 10 63 30 25z m-1953 -52 c-2 -16 -4 -5 -4 22 0
28 2 40 4 28 2 -13 2 -35 0 -50z m125 20 c-3 -15 1 -29 9 -34 11 -7 11 -9 -2
-9 -17 0 -30 52 -21 80 8 22 19 -9 14 -37z m327 19 c-14 -5 -11 -50 4 -55 7
-4 6 -6 -4 -6 -12 -1 -18 9 -21 33 -5 46 0 59 17 43 7 -7 9 -13 4 -15z m161
-18 c0 -44 -1 -45 -27 -42 -24 3 -28 8 -28 33 0 23 5 31 23 33 12 2 22 8 22
13 0 5 2 9 5 9 3 0 5 -21 5 -46z m-534 -9 c1 -28 1 -28 -3 -2 -6 38 -33 36
-33 -3 0 -16 -4 -30 -10 -30 -5 0 -10 16 -10 36 0 33 2 35 28 32 22 -2 27 -8
28 -33z m132 13 c3 -13 -3 -18 -22 -18 -14 0 -26 -5 -26 -11 0 -7 10 -9 28 -4
20 5 24 4 16 -5 -28 -28 -65 7 -50 46 8 21 50 14 54 -8z m45 14 c-6 -4 -13
-21 -16 -37 -4 -27 -4 -27 -6 8 -1 29 3 37 17 37 11 0 13 -3 5 -8z m77 4 c0
-2 3 -11 6 -20 5 -12 0 -16 -20 -16 -14 0 -26 -5 -26 -11 0 -7 10 -9 26 -5 17
5 23 3 19 -4 -20 -33 -72 8 -54 42 8 15 49 27 49 14z m70 -6 c0 -5 -7 -7 -15
-4 -8 4 -15 2 -15 -4 0 -5 9 -12 21 -15 12 -3 19 -12 17 -19 -6 -17 -37 -23
-51 -9 -7 7 -3 8 12 4 12 -3 21 -1 21 6 0 6 -6 11 -14 11 -18 0 -29 16 -21 30
8 13 45 13 45 0z m128 -12 c3 -14 -3 -18 -23 -18 -16 0 -24 -4 -19 -11 3 -6
15 -9 25 -6 11 3 19 1 19 -4 0 -5 -11 -9 -24 -9 -26 0 -40 23 -30 52 7 24 47
21 52 -4z m850 -16 c3 -32 2 -33 -29 -30 -38 4 -51 27 -20 35 12 3 21 9 21 14
0 5 -7 6 -15 3 -8 -4 -15 -1 -15 6 0 6 11 10 28 8 23 -2 28 -8 30 -36z m122 3
c0 -19 -4 -35 -10 -35 -5 0 -10 11 -10 25 0 14 -4 25 -10 25 -5 0 -10 -11 -10
-25 0 -14 -4 -25 -10 -25 -5 0 -10 11 -10 25 0 14 -4 25 -10 25 -5 0 -10 -11
-10 -25 0 -16 -6 -25 -15 -25 -10 0 -15 11 -15 35 l0 35 55 0 55 0 0 -35z m85
0 c0 -23 -5 -31 -22 -33 -13 -2 -23 -10 -23 -18 0 -8 -4 -14 -10 -14 -5 0 -10
23 -10 51 l0 50 33 -3 c28 -3 32 -6 32 -33z m75 0 c0 -32 -2 -35 -30 -35 -23
0 -30 4 -30 20 0 11 6 20 14 20 8 0 17 4 20 9 4 5 -4 7 -16 3 -14 -3 -19 -2
-14 6 4 7 18 12 32 12 21 0 24 -5 24 -35z m40 0 c0 -19 -4 -35 -10 -35 -5 0
-10 16 -10 35 0 19 5 35 10 35 6 0 10 -16 10 -35z m90 4 c0 -40 -16 -69 -40
-69 -28 0 -35 20 -8 21 22 2 22 2 1 6 -25 5 -36 27 -28 54 5 14 16 19 41 19
31 0 34 -2 34 -31z m70 -4 c0 -19 -4 -35 -10 -35 -5 0 -10 11 -10 25 0 14 -4
25 -10 25 -5 0 -10 -11 -10 -25 0 -14 -4 -25 -10 -25 -5 0 -10 16 -10 35 0 32
2 35 30 35 28 0 30 -3 30 -35z m218 -3 c3 -32 2 -33 -29 -30 -38 4 -51 27 -20
35 12 3 21 9 21 13 0 5 -10 6 -22 2 -15 -4 -19 -2 -14 7 5 7 20 11 34 9 22 -2
28 -9 30 -36z m120 1 c2 -25 -1 -33 -12 -33 -11 0 -17 10 -18 33 l-1 32 -4
-32 c-5 -40 -33 -46 -33 -8 0 14 -4 25 -10 25 -5 0 -10 -11 -10 -25 0 -14 -4
-25 -10 -25 -5 0 -10 16 -10 36 l0 35 53 -3 c51 -3 52 -4 55 -35z m80 15 c3
-14 -3 -18 -23 -18 -14 0 -24 -4 -21 -9 3 -5 16 -7 29 -4 17 4 19 3 11 -6 -29
-31 -76 4 -60 45 8 21 60 14 64 -8z m11886 -80 c5 -9 7 -21 2 -25 -4 -4 -12 0
-17 10 -16 28 -58 22 -70 -10 -22 -57 29 -96 73 -56 16 14 18 14 18 1 0 -25
-26 -40 -62 -36 -56 5 -75 79 -32 123 21 20 73 16 88 -7z m851 -30 l35 -53 0
53 c0 28 5 52 10 52 6 0 10 -30 10 -70 0 -39 -4 -70 -10 -70 -5 0 -25 24 -45
52 l-35 53 0 -53 c0 -28 -4 -52 -10 -52 -6 0 -10 30 -10 70 0 39 4 70 10 70 5
0 25 -24 45 -52z m1416 42 c21 -12 26 -49 8 -67 -8 -8 -8 -17 1 -33 17 -32 5
-36 -15 -6 -23 35 -52 34 -58 -1 -2 -16 -5 5 -6 45 -1 71 -1 72 25 72 14 0 34
-5 45 -10z m414 -35 c29 0 30 -1 31 -50 1 -27 0 -39 -2 -25 -11 62 -15 70 -34
70 -19 0 -24 -10 -33 -70 -3 -14 -4 9 -4 50 -1 41 2 64 6 50 5 -20 12 -25 36
-25z m85 41 c0 -3 -4 -8 -10 -11 -5 -3 -10 -1 -10 4 0 6 5 11 10 11 6 0 10 -2
10 -4z m180 -38 c38 5 57 -28 41 -71 -9 -24 -16 -27 -46 -25 l-35 2 1 71 c1
38 4 58 6 44 3 -22 8 -25 33 -21z m-2840 -8 c23 -23 24 -29 10 -64 -7 -20 -17
-26 -38 -26 -15 0 -33 5 -40 12 -17 17 -15 64 4 82 21 21 40 20 64 -4z m170 0
c13 -19 13 -90 1 -90 -6 0 -11 19 -13 43 -2 29 -8 42 -18 42 -10 0 -16 -13
-18 -42 -2 -24 -7 -43 -12 -43 -5 0 -10 19 -12 43 -2 29 -8 42 -18 42 -10 0
-16 -13 -18 -42 -4 -61 -22 -53 -22 10 l0 52 60 0 c43 0 64 -4 70 -15z m102 9
c21 -11 25 -68 6 -87 -7 -7 -22 -12 -35 -12 -16 0 -23 -6 -23 -20 0 -11 -4
-20 -10 -20 -6 0 -10 31 -10 73 0 71 0 72 27 74 15 0 36 -3 45 -8z m107 2 c7
-5 16 -30 18 -55 l6 -47 -44 3 c-39 3 -44 6 -44 28 0 20 6 26 28 28 15 2 27 9
27 18 0 16 -26 19 -35 4 -4 -6 -11 -7 -17 -4 -7 5 -4 12 7 21 22 15 35 16 54
4z m122 -12 c12 -19 11 -89 0 -89 -6 0 -11 19 -13 43 -2 34 -7 42 -23 42 -16
0 -21 -8 -23 -42 -5 -62 -22 -53 -22 11 l0 54 36 -3 c20 -1 40 -9 45 -16z m52
-16 l15 -38 18 40 c9 22 19 34 21 27 7 -19 -38 -133 -54 -139 -22 -8 -28 6 -9
20 15 11 16 16 3 47 -24 57 -29 80 -19 80 6 0 17 -17 25 -37z m345 25 c7 -7
12 -31 12 -55 l0 -43 -39 0 c-27 0 -41 5 -45 16 -9 23 11 44 41 44 15 0 23 5
20 13 -2 6 -16 11 -31 10 -27 -2 -36 11 -13 20 22 9 43 7 55 -5z m172 -8 c13
-19 13 -90 1 -90 -6 0 -11 19 -13 43 -2 29 -8 42 -18 42 -10 0 -16 -13 -18
-42 -2 -24 -7 -43 -12 -43 -5 0 -10 19 -12 43 -2 29 -8 42 -18 42 -10 0 -16
-13 -18 -42 -4 -61 -22 -53 -22 10 l0 52 60 0 c43 0 64 -4 70 -15z m102 3 c10
-9 18 -24 18 -35 0 -14 -8 -18 -35 -18 -32 0 -52 -18 -22 -21 17 -2 20 -1 42
7 18 7 18 6 6 -9 -19 -23 -68 -22 -81 2 -15 29 -12 49 10 71 24 24 38 25 62 3z
m-11456 -9 c18 -14 18 -15 -5 -4 -19 10 -26 9 -39 -4 -14 -14 -12 -17 21 -31
44 -18 51 -51 12 -61 -29 -7 -55 0 -55 16 0 7 7 6 19 -1 20 -13 51 -6 51 11 0
6 -13 16 -29 21 -37 13 -48 39 -25 56 23 16 26 16 50 -3z m12562 4 c23 -23 13
-38 -23 -38 -25 0 -35 -4 -35 -15 0 -22 27 -30 47 -14 14 12 16 12 11 -1 -7
-22 -50 -25 -65 -4 -27 37 -10 84 32 84 12 0 26 -5 33 -12z m110 -38 l3 -46
-36 -2 c-24 -2 -37 2 -41 13 -9 22 14 45 43 45 15 0 23 5 20 13 -2 6 -16 11
-31 10 -14 -1 -26 3 -26 8 0 6 15 9 33 7 30 -3 32 -5 35 -48z m110 30 c4 -12
2 -13 -9 -2 -37 34 -81 -20 -45 -56 14 -14 20 -15 37 -4 18 11 20 11 17 0 -6
-18 -46 -22 -64 -8 -15 13 -18 47 -8 75 8 20 65 17 72 -5z m149 -57 c-2 -16
-4 -3 -4 27 0 30 2 43 4 28 2 -16 2 -40 0 -55z m109 22 l2 -50 -7 45 c-5 36
-10 45 -26 45 -16 0 -21 -8 -23 -42 -4 -59 -22 -54 -22 6 l0 49 38 -1 37 -2 1
-50z m236 30 c16 -35 -3 -75 -35 -75 -32 0 -47 18 -47 55 0 39 6 45 42 45 21
0 32 -7 40 -25z m54 8 c12 -17 14 -17 28 2 18 24 21 13 4 -14 -9 -15 -8 -24 5
-45 10 -14 13 -26 8 -26 -6 0 -15 9 -21 20 -11 21 -11 21 -30 -2 -22 -26 -27
-18 -8 11 9 15 9 25 0 45 -13 30 -5 34 14 9z m-13168 -19 c33 11 55 -23 41
-62 -7 -17 -15 -22 -39 -20 -30 2 -30 3 -29 58 1 30 3 47 6 37 3 -11 11 -16
21 -13z m321 -2 c-12 -5 -11 -69 1 -75 6 -3 5 -4 -2 -3 -7 1 -15 21 -18 43 -8
51 -3 66 15 50 7 -7 9 -13 4 -15z m-433 -50 c8 -39 38 -23 45 23 l6 40 2 -45
c1 -44 0 -46 -28 -48 -31 -2 -42 17 -40 68 1 20 2 21 6 5 2 -11 6 -30 9 -43z
m187 -53 c-4 -4 -6 20 -3 54 l5 62 3 -54 c2 -30 0 -58 -5 -62z m91 95 c25 -24
19 -34 -20 -34 -32 0 -35 -2 -23 -16 7 -8 21 -13 31 -11 10 3 16 1 12 -4 -16
-26 -64 4 -64 40 0 12 28 41 40 41 5 0 16 -7 24 -16z m97 -1 c12 -16 12 -17
-2 -5 -25 19 -51 4 -47 -27 2 -22 8 -26 31 -24 15 1 25 -2 22 -8 -17 -26 -65
0 -65 36 0 42 37 58 61 28z m-5141 -75 c0 -26 -95 -282 -106 -285 -6 -2 -23
24 -38 57 -25 58 -29 63 -91 91 -36 16 -65 33 -65 38 0 7 268 108 293 110 4 1
7 -5 7 -11z m4670 -333 c0 -21 5 -25 29 -25 25 0 30 5 34 28 2 15 4 0 4 -33 0
-33 -2 -48 -4 -32 -4 22 -9 27 -34 27 -24 0 -29 -4 -29 -25 0 -14 -4 -25 -10
-25 -5 0 -10 25 -10 55 0 30 5 55 10 55 6 0 10 -11 10 -25z m197 -57 c-2 -18
-4 -6 -4 27 0 33 2 48 4 33 2 -15 2 -42 0 -60z m40 0 c-2 -18 -4 -6 -4 27 0
33 2 48 4 33 2 -15 2 -42 0 -60z m229 -15 c-7 -18 -48 -13 -54 7 -5 13 -3 13
11 2 24 -21 37 -6 39 46 l1 47 4 -44 c3 -24 2 -50 -1 -58z m145 40 c-2 -68
-11 -67 -11 2 0 32 3 55 7 52 3 -4 5 -28 4 -54z m-453 25 c22 -22 13 -38 -19
-38 -20 0 -29 -4 -26 -12 2 -7 16 -12 31 -11 14 1 24 -2 21 -8 -9 -13 -39 -11
-53 3 -24 24 -8 78 23 78 6 0 16 -5 23 -12z m170 0 c18 -18 15 -68 -4 -75 -37
-14 -70 41 -44 73 15 17 32 18 48 2z m230 0 c18 -18 15 -68 -4 -75 -37 -14
-70 41 -44 73 15 17 32 18 48 2z m100 0 c7 -7 11 -28 11 -47 -2 -34 -2 -35 -6
-6 -3 17 -12 38 -20 48 -18 19 -4 24 15 5z m95 3 c4 0 6 -20 5 -43 -1 -41 -1
-41 -5 -8 -3 19 -8 39 -13 44 -14 15 -38 -12 -43 -47 -3 -25 -4 -22 -5 13 -2
44 -1 46 26 44 15 -1 30 -2 35 -3z m9755 -129 c2 -7 -6 -12 -17 -12 -21 0 -27
11 -14 24 9 9 26 2 31 -12z m182 3 c0 -8 -6 -15 -14 -15 -17 0 -28 14 -19 24
12 12 33 6 33 -9z m138 -3 c2 -7 -6 -12 -17 -12 -21 0 -27 11 -14 24 9 9 26 2
31 -12z m-601 -54 c12 -35 25 -71 28 -80 5 -14 2 -18 -13 -18 -11 0 -22 8 -25
20 -3 14 -14 20 -32 20 -18 0 -29 -6 -32 -20 -3 -11 -14 -20 -24 -20 -24 0
-24 -2 7 86 22 61 30 74 48 74 17 0 25 -12 43 -62z m203 37 c0 -8 7 -15 15
-15 8 0 15 -4 15 -9 0 -5 -7 -11 -15 -15 -9 -3 -15 -18 -15 -36 0 -18 6 -33
15 -36 25 -10 17 -26 -12 -22 -25 3 -28 7 -31 48 -2 24 -9 48 -15 53 -9 7 -9
10 1 14 6 2 12 11 12 19 0 8 7 14 15 14 8 0 15 -7 15 -15z m320 0 c0 -8 7 -15
15 -15 8 0 15 -4 15 -10 0 -5 -7 -10 -15 -10 -11 0 -15 -11 -15 -35 0 -22 6
-38 15 -41 25 -10 17 -26 -12 -22 -25 3 -28 7 -31 48 -2 24 -9 48 -15 53 -9 7
-9 10 1 14 6 2 12 11 12 19 0 8 7 14 15 14 8 0 15 -7 15 -15z m-380 -35 c9
-17 8 -20 -9 -20 -11 0 -22 4 -26 10 -11 18 -35 -2 -35 -30 0 -33 16 -48 33
-31 6 6 19 11 29 11 16 0 17 -3 8 -20 -15 -29 -74 -27 -94 2 -32 46 -6 98 49
98 24 0 38 -6 45 -20z m140 -40 c0 -53 -2 -60 -20 -60 -18 0 -20 7 -20 60 0
53 2 60 20 60 18 0 20 -7 20 -60z m50 51 c0 -5 5 -22 11 -38 l11 -28 13 35 c6
19 19 36 28 38 21 4 21 -2 -2 -63 -28 -75 -53 -73 -79 4 -20 60 -20 61 -1 61
10 0 19 -4 19 -9z m130 -51 c0 -47 -3 -60 -15 -60 -12 0 -15 13 -15 60 0 47 3
60 15 60 12 0 15 -13 15 -60z m140 0 c0 -53 -2 -60 -20 -60 -18 0 -20 7 -20
60 0 53 2 60 20 60 18 0 20 -7 20 -60z m114 44 c9 -8 16 -24 16 -35 0 -16 -7
-19 -40 -19 -22 0 -40 -5 -40 -10 0 -17 29 -23 45 -10 19 16 40 3 24 -16 -19
-23 -75 -18 -93 8 -9 12 -16 29 -16 38 0 50 69 79 104 44z m125 2 c16 -19 -5
-32 -25 -15 -10 8 -18 9 -25 2 -7 -7 -1 -14 20 -21 58 -21 48 -72 -14 -72 -40
0 -67 26 -39 37 10 4 19 2 22 -5 2 -7 10 -12 19 -12 23 0 9 24 -18 30 -24 6
-35 30 -25 56 7 18 70 19 85 0z m-15999 -406 c0 -5 -4 -10 -10 -10 -5 0 -10 5
-10 10 0 6 5 10 10 10 6 0 10 -4 10 -10z m250 0 c0 -6 -42 -10 -106 -10 -67 0
-103 4 -99 10 3 6 50 10 106 10 59 0 99 -4 99 -10z m-250 -86 c0 -8 -4 -12
-10 -9 -5 3 -10 10 -10 16 0 5 5 9 10 9 6 0 10 -7 10 -16z m248 4 c-3 -9 -33
-14 -93 -16 -93 -3 -120 1 -110 18 10 16 208 13 203 -2z m-248 -83 c0 -8 -4
-15 -10 -15 -5 0 -10 7 -10 15 0 8 5 15 10 15 6 0 10 -7 10 -15z m240 0 c0
-11 -163 -20 -187 -10 -8 2 -11 10 -8 15 9 14 195 9 195 -5z m15870 -10 c0 -8
-7 -15 -15 -15 -8 0 -15 7 -15 15 0 8 7 15 15 15 8 0 15 -7 15 -15z m-670 -10
c0 -10 -10 -15 -33 -15 -41 0 -57 -15 -57 -56 0 -40 21 -58 60 -52 24 4 30 1
28 -11 -2 -11 -16 -17 -40 -19 -86 -7 -119 101 -49 155 24 18 91 17 91 -2z
m1140 -47 l40 -63 0 63 c0 48 3 62 15 62 12 0 15 -16 15 -85 0 -76 -2 -85 -19
-85 -12 0 -32 22 -57 63 l-39 62 -3 -62 c-2 -47 -7 -63 -17 -63 -12 0 -15 17
-15 85 0 79 2 85 20 85 14 0 33 -19 60 -62z m-1020 -7 c5 -11 10 -38 10 -60
l0 -40 -46 2 c-50 2 -72 21 -61 51 4 9 20 19 37 22 16 4 30 11 30 16 0 5 -13
7 -30 3 -16 -4 -30 -2 -30 3 0 29 74 32 90 3z m208 7 c18 -15 16 -108 -3 -108
-11 0 -15 12 -15 44 0 30 -5 46 -15 50 -19 7 -35 -23 -35 -63 0 -20 -5 -31
-14 -31 -11 0 -16 14 -18 48 -2 34 -7 47 -18 47 -11 0 -16 -13 -18 -47 -3 -40
-6 -48 -23 -48 -17 0 -19 7 -19 59 l0 59 83 0 c45 0 88 -5 95 -10z m150 0 c17
-15 15 -74 -5 -93 -10 -11 -27 -15 -45 -13 -26 4 -28 2 -28 -29 0 -23 -5 -33
-15 -33 -12 0 -15 16 -15 88 l0 89 48 1 c26 0 53 -4 60 -10z m120 0 c7 -7 12
-33 12 -59 l0 -46 -45 -1 c-35 -1 -47 3 -55 18 -8 15 -6 24 10 40 11 11 29 20
41 20 12 0 17 4 13 11 -3 6 -17 8 -30 5 -23 -6 -32 3 -17 17 11 11 58 8 71 -5z
m72 -48 c0 -47 -3 -60 -15 -60 -12 0 -15 13 -15 60 0 47 3 60 15 60 12 0 15
-13 15 -60z m150 -9 c0 -86 -16 -111 -71 -111 -28 0 -39 4 -39 15 0 11 7 14
24 9 15 -3 29 1 40 11 24 25 19 35 -14 29 -38 -8 -60 10 -60 48 0 54 15 68 70
67 l50 -2 0 -66z m127 57 c19 -16 17 -108 -2 -108 -11 0 -15 12 -15 44 0 25
-5 48 -10 51 -20 12 -40 -17 -40 -56 0 -28 -4 -39 -15 -39 -12 0 -15 13 -15
59 l0 59 42 0 c23 1 48 -4 55 -10z m391 -50 l3 -57 -48 2 c-46 2 -48 3 -48 32
0 25 5 32 34 41 21 7 29 14 22 18 -6 4 -20 4 -31 1 -11 -4 -20 -2 -20 3 0 17
15 23 50 20 l35 -3 3 -57z m129 50 c7 -6 14 -5 18 2 8 14 48 13 63 -2 18 -18
16 -108 -3 -108 -11 0 -15 11 -15 38 0 21 -5 43 -12 50 -19 19 -38 -6 -38 -49
0 -27 -4 -39 -14 -39 -11 0 -16 14 -18 48 -2 34 -7 47 -18 47 -11 0 -16 -13
-18 -47 -3 -40 -6 -48 -23 -48 -17 0 -19 7 -19 59 l0 60 43 -1 c23 0 47 -4 54
-10z m217 -10 c27 -38 20 -48 -30 -48 -41 0 -45 -2 -33 -16 9 -11 22 -14 42
-10 20 4 27 2 25 -7 -3 -6 -21 -13 -40 -15 -28 -2 -40 2 -52 20 -20 28 -20 48
0 76 10 14 26 22 44 22 18 0 34 -8 44 -22z m-504 -528 c0 -5 -7 -10 -15 -10
-8 0 -15 5 -15 10 0 6 7 10 15 10 8 0 15 -4 15 -10z m-1250 -15 c10 -12 10
-18 0 -30 -9 -10 -9 -15 -1 -15 17 0 13 -37 -5 -44 -23 -9 -54 -7 -54 2 0 5
10 8 21 8 30 -1 37 24 8 31 l-23 6 23 9 c25 9 23 34 -3 32 -9 -1 -16 2 -16 7
0 15 37 10 50 -6z m140 5 c0 -5 -12 -10 -27 -10 l-27 0 33 -30 c27 -25 31 -33
21 -45 -16 -19 -70 -20 -70 -1 0 9 8 12 25 8 32 -6 32 3 -2 32 -34 29 -26 56
17 56 16 0 30 -4 30 -10z m610 -30 c-11 -21 -20 -46 -20 -55 0 -8 -4 -15 -10
-15 -14 0 -13 15 5 57 19 45 20 41 -12 46 -20 3 -15 4 15 6 l42 1 -20 -40z
m158 28 c7 -7 12 -27 12 -45 0 -36 -21 -53 -64 -53 -25 0 -26 3 -26 55 l0 55
33 0 c18 0 38 -5 45 -12z m562 2 c0 -5 -9 -10 -20 -10 -27 0 -25 -10 7 -36 24
-19 26 -24 14 -38 -16 -19 -62 -18 -68 0 -2 7 6 10 22 7 33 -7 32 6 -2 33 -24
19 -26 24 -14 38 15 17 61 22 61 6z m-1274 -14 c9 -9 10 -17 4 -21 -13 -8 -13
-45 0 -45 6 0 10 -5 10 -11 0 -6 -10 -9 -22 -7 -16 2 -24 12 -29 37 -11 55 6
77 37 47z m82 -18 c20 -20 14 -28 -19 -28 -17 0 -28 -4 -24 -10 3 -5 15 -10
26 -10 10 0 19 -4 19 -10 0 -14 -43 -13 -58 2 -24 24 -7 68 28 68 9 0 21 -5
28 -12z m97 -28 c0 -31 -3 -35 -27 -38 -20 -2 -28 -9 -28 -23 0 -10 -4 -19
-10 -19 -6 0 -10 26 -10 59 l0 59 38 -1 c35 -2 37 -3 37 -37z m75 30 c0 -5 -8
-10 -17 -10 -15 0 -14 -3 4 -15 13 -9 20 -22 17 -30 -7 -17 -64 -21 -64 -5 0
6 10 10 22 10 l22 0 -21 15 c-13 9 -20 22 -17 30 7 17 54 21 54 5z m558 -32
c3 -38 3 -38 -33 -38 -32 0 -36 3 -33 22 2 14 13 25 28 29 24 7 24 7 3 8 -13
1 -23 6 -23 12 0 6 12 9 28 7 23 -3 27 -8 30 -40z m40 15 l10 -28 7 28 c4 15
13 27 21 27 11 0 9 -11 -7 -52 -11 -29 -23 -56 -25 -60 -7 -11 -34 -10 -34 2
0 6 5 10 11 10 11 0 9 30 -6 78 -11 32 11 28 23 -5z m112 17 c0 -5 -8 -10 -17
-10 -15 0 -14 -3 4 -15 13 -9 20 -22 17 -30 -7 -17 -64 -21 -64 -5 0 6 10 10
22 10 l22 0 -21 15 c-13 9 -20 22 -17 30 7 17 54 21 54 5z m90 -30 c0 -29 -4
-40 -15 -40 -11 0 -15 11 -15 40 0 29 4 40 15 40 11 0 15 -11 15 -40z m88 -2
c2 -22 -1 -38 -7 -38 -6 0 -11 14 -11 30 0 20 -5 30 -15 30 -10 0 -15 -10 -15
-30 0 -20 -5 -30 -15 -30 -11 0 -15 11 -15 41 l0 40 38 -3 c35 -3 37 -5 40
-40z m223 26 c11 -14 13 -14 21 0 6 10 23 16 43 16 l35 0 0 -60 c0 -47 -3 -60
-15 -60 -8 0 -15 9 -15 20 0 13 -7 20 -20 20 -10 0 -24 9 -30 20 -11 21 -70
29 -70 10 0 -5 11 -10 25 -10 14 0 25 -5 25 -11 0 -6 -14 -9 -32 -7 -26 2 -34
8 -36 26 -7 45 41 70 69 36z m139 -15 c0 -38 24 -35 28 4 5 42 22 32 22 -13 0
-39 -1 -40 -34 -40 -36 0 -46 12 -46 56 0 15 6 24 15 24 10 0 15 -10 15 -31z
m138 9 c3 -13 -3 -18 -22 -18 -14 0 -26 -4 -26 -10 0 -5 12 -10 26 -10 14 0
23 -4 19 -10 -10 -16 -54 -11 -63 8 -6 10 -6 27 -1 40 7 18 15 23 36 20 17 -2
29 -10 31 -20z m90 -20 c2 -22 -1 -38 -7 -38 -6 0 -11 14 -11 30 0 20 -5 30
-15 30 -10 0 -15 -10 -15 -30 0 -16 -4 -30 -10 -30 -5 0 -10 18 -10 41 0 39 1
40 33 37 29 -3 32 -6 35 -40z m82 32 c0 -5 -9 -10 -20 -10 -13 0 -20 -7 -20
-20 0 -13 7 -20 20 -20 11 0 20 -4 20 -10 0 -17 -49 -11 -58 8 -15 27 3 62 33
62 14 0 25 -4 25 -10z m88 -12 c3 -13 -3 -18 -22 -18 -14 0 -26 -4 -26 -10 0
-5 9 -10 20 -10 11 0 20 -4 20 -10 0 -5 -11 -10 -25 -10 -32 0 -50 32 -35 61
14 25 63 23 68 -3z m-17238 -54 c27 -48 31 -63 28 -117 l-3 -62 -134 -3 c-90
-2 -138 1 -147 9 -22 18 -17 103 7 152 37 74 43 77 135 77 l82 0 32 -56z
m16730 -385 c0 -5 -7 -9 -15 -9 -15 0 -20 12 -9 23 8 8 24 -1 24 -14z m50 -59
c0 -56 -3 -70 -15 -70 -12 0 -15 14 -15 70 0 56 3 70 15 70 12 0 15 -14 15
-70z m-970 46 c0 -9 -8 -12 -25 -8 -34 6 -34 -21 0 -36 31 -14 41 -37 25 -57
-16 -19 -80 -20 -80 -2 0 9 10 12 30 9 17 -2 30 0 30 6 0 6 -13 20 -30 32 -32
23 -37 39 -18 58 17 17 68 15 68 -2z m50 -1 c0 -8 8 -15 18 -15 16 -1 16 -1 0
-14 -22 -16 -24 -66 -3 -66 8 0 15 -4 15 -10 0 -5 -11 -10 -25 -10 -22 0 -25
4 -25 39 0 22 -6 42 -12 45 -10 5 -10 7 0 12 6 3 12 12 12 20 0 8 5 14 10 14
6 0 10 -7 10 -15z m350 -50 c0 -51 -3 -65 -15 -65 -11 0 -15 12 -15 45 0 36
-3 45 -17 45 -15 1 -14 4 6 20 13 11 27 20 32 20 5 0 9 -29 9 -65z m200 55 c0
-5 -11 -10 -25 -10 -16 0 -25 -6 -25 -15 0 -9 9 -15 25 -15 14 0 25 -4 25 -10
0 -5 -11 -10 -25 -10 -18 0 -25 -5 -25 -20 0 -16 7 -20 30 -20 17 0 30 -4 30
-10 0 -5 -18 -10 -40 -10 l-40 0 0 65 0 65 35 0 c19 0 35 -4 35 -10z m-442
-32 c7 -7 12 -20 12 -30 0 -13 -8 -18 -31 -18 -19 0 -28 -4 -23 -11 3 -6 17
-8 31 -4 18 4 24 2 21 -7 -3 -7 -19 -14 -36 -16 -26 -3 -34 1 -44 22 -23 52
32 102 70 64z m120 -26 c4 -40 -12 -62 -44 -62 -17 0 -24 -6 -24 -20 0 -11 -4
-20 -10 -20 -6 0 -10 30 -10 69 l0 69 43 -2 c40 -1 42 -3 45 -34z m172 23 c0
-8 -4 -15 -9 -15 -13 0 -22 16 -14 24 11 11 23 6 23 -9z m318 -37 c2 -29 -1
-48 -7 -48 -6 0 -11 12 -11 28 0 15 -4 33 -9 41 -14 22 -31 3 -31 -35 0 -19
-4 -34 -10 -34 -5 0 -10 12 -10 28 0 15 -4 33 -9 41 -14 22 -31 3 -31 -35 0
-19 -4 -34 -10 -34 -5 0 -10 22 -10 49 l0 48 68 -1 67 -1 3 -47z m96 36 c3 -9
6 -31 6 -50 0 -33 -1 -34 -39 -34 -27 0 -41 5 -45 16 -8 21 11 44 35 44 11 0
19 5 19 11 0 7 -10 9 -25 7 -14 -3 -25 -2 -25 2 0 24 65 28 74 4z m56 -34 c0
-38 -4 -50 -15 -50 -11 0 -15 12 -15 50 0 38 4 50 15 50 11 0 15 -12 15 -50z
m-1342 -53 c4 -91 -2 -97 -93 -97 -106 0 -105 0 -105 84 0 40 3 76 7 80 4 4
48 5 98 4 l90 -3 3 -68z m872 18 c0 -8 -4 -15 -9 -15 -13 0 -22 16 -14 24 11
11 23 6 23 -9z m-405 -290 c-14 -36 -25 -68 -25 -70 0 -16 -20 0 -30 24 -6 16
-25 35 -41 41 -16 7 -29 15 -29 19 0 7 107 48 132 50 15 1 14 -6 -7 -64z m690
0 c16 0 20 -7 21 -35 l1 -35 -4 33 c-6 46 -36 40 -44 -8 -5 -26 -6 -18 -7 30
0 38 3 54 7 40 4 -16 13 -25 26 -25z m442 -47 c-2 -18 -4 -4 -4 32 0 36 2 50
4 33 2 -18 2 -48 0 -65z m-946 73 c-25 -7 -42 -31 -22 -31 6 0 20 -9 32 -21
25 -25 10 -50 -30 -48 -20 1 -21 2 -6 6 50 11 51 14 15 43 -29 24 -32 30 -21
44 7 9 23 16 35 15 19 -1 19 -2 -3 -8z m365 -45 c-11 -30 -22 -51 -24 -46 -2
4 4 25 12 45 20 47 21 43 -11 48 -23 3 -22 4 8 6 l36 1 -21 -54z m334 8 c21
-48 27 -82 9 -51 -5 9 -19 17 -31 17 -11 0 -27 -8 -35 -17 -8 -11 -5 3 7 37
11 30 20 56 20 58 0 1 2 2 5 2 3 0 15 -21 25 -46z m-451 8 c-12 -5 -11 -59 1
-65 6 -3 5 -4 -2 -3 -13 3 -27 61 -20 83 3 9 7 9 17 0 7 -7 9 -13 4 -15z m190
0 c-14 -5 -11 -60 4 -65 7 -3 5 -6 -5 -6 -14 -1 -18 7 -18 34 0 19 -5 35 -10
35 -7 0 -6 5 2 13 9 10 16 11 24 3 7 -6 8 -12 3 -14z m-331 -14 c3 -14 -3 -18
-27 -18 -29 0 -41 17 -24 34 13 13 48 1 51 -16z m39 -40 c-2 -13 -4 -3 -4 22
0 25 2 35 4 23 2 -13 2 -33 0 -45z m49 17 c1 -28 0 -31 -3 -10 -2 17 -12 36
-21 43 -16 13 -15 14 3 10 16 -2 20 -12 21 -43z m559 7 c0 -20 5 -27 20 -27
23 0 35 50 13 58 -8 2 -8 4 2 3 10 -1 15 -12 15 -36 0 -31 -3 -35 -25 -35 -18
0 -27 -7 -31 -25 -4 -15 -7 0 -8 39 0 35 2 61 7 57 4 -4 7 -20 7 -34z m112 25
c-9 -7 -18 -25 -20 -42 -3 -25 -4 -23 -6 10 -1 35 2 41 20 42 19 2 19 0 6 -10z
m40 -49 c-2 -13 -4 -3 -4 22 0 25 2 35 4 23 2 -13 2 -33 0 -45z m-17052 -88
c0 -82 -3 -114 -12 -117 -10 -4 -13 24 -13 117 0 93 3 121 13 118 9 -4 12 -36
12 -118z m16230 77 c16 -5 15 -5 -4 -4 -14 1 -26 9 -28 17 -3 10 -2 11 4 4 4
-7 17 -14 28 -17z m-16147 -120 c2 -64 0 -77 -13 -77 -12 0 -15 15 -15 81 0
60 3 80 13 77 8 -3 13 -31 15 -81z m-168 -27 c0 -27 -4 -50 -10 -50 -5 0 -10
23 -10 50 0 28 5 50 10 50 6 0 10 -22 10 -50z m16942 -345 c0 -5 -5 -11 -11
-13 -6 -2 -11 4 -11 13 0 9 5 15 11 13 6 -2 11 -8 11 -13z m48 -65 c0 -40 -4
-70 -10 -70 -6 0 -10 30 -10 70 0 40 4 70 10 70 6 0 10 -30 10 -70z m-990 46
c0 -9 -8 -12 -25 -8 -34 6 -34 -21 0 -36 31 -14 41 -37 25 -57 -16 -19 -80
-20 -80 -2 0 9 10 12 30 9 17 -2 30 0 30 6 0 6 -13 20 -30 32 -32 23 -37 39
-18 58 17 17 68 15 68 -2z m50 -1 c0 -8 8 -15 18 -15 16 -1 16 -1 0 -14 -22
-16 -24 -66 -3 -66 8 0 15 -4 15 -10 0 -5 -11 -10 -25 -10 -22 0 -25 4 -25 39
0 22 -6 42 -12 45 -10 5 -10 7 0 12 6 3 12 12 12 20 0 8 5 14 10 14 6 0 10 -7
10 -15z m378 -14 c3 -15 -6 -33 -24 -52 l-28 -29 32 0 c18 0 32 -4 32 -10 0
-5 -20 -10 -45 -10 -55 0 -59 16 -14 58 35 33 32 57 -7 48 -13 -4 -24 -3 -24
2 0 16 14 23 45 20 23 -2 31 -9 33 -27z m202 19 c0 -5 -11 -10 -25 -10 -16 0
-25 -6 -25 -15 0 -9 9 -15 25 -15 14 0 25 -4 25 -10 0 -5 -11 -10 -25 -10 -18
0 -25 -5 -25 -20 0 -16 7 -20 30 -20 17 0 30 -4 30 -10 0 -5 -18 -10 -40 -10
l-40 0 0 65 0 65 35 0 c19 0 35 -4 35 -10z m-472 -32 c7 -7 12 -20 12 -30 0
-13 -8 -18 -31 -18 -19 0 -28 -4 -23 -11 3 -6 17 -8 31 -4 18 4 24 2 21 -7 -3
-7 -19 -14 -36 -16 -26 -3 -34 1 -44 22 -23 52 32 102 70 64z m120 -26 c4 -40
-12 -62 -44 -62 -17 0 -24 -6 -24 -20 0 -11 -4 -20 -10 -20 -6 0 -10 30 -10
69 l0 69 43 -2 c40 -1 42 -3 45 -34z m202 23 c0 -8 -4 -15 -9 -15 -13 0 -22
16 -14 24 11 11 23 6 23 -9z m312 1 c4 -6 8 -28 8 -48 0 -27 -4 -38 -15 -38
-11 0 -15 11 -15 41 0 52 -24 48 -28 -4 -5 -54 -32 -50 -32 4 0 52 -24 48 -28
-4 -2 -24 -8 -37 -18 -37 -10 0 -14 13 -14 50 l0 50 68 -1 c38 -1 70 -6 74
-13z m102 -2 c3 -9 6 -31 6 -50 0 -33 -1 -34 -39 -34 -27 0 -41 5 -45 16 -8
21 11 44 35 44 11 0 19 5 19 11 0 7 -10 9 -25 7 -14 -3 -25 -2 -25 2 0 24 65
28 74 4z m46 -34 c0 -27 -4 -50 -10 -50 -5 0 -10 23 -10 50 0 28 5 50 10 50 6
0 10 -22 10 -50z m-1362 -63 c4 -91 -2 -97 -93 -97 -106 0 -105 0 -105 84 0
40 3 76 7 80 4 4 48 5 98 4 l90 -3 3 -68z m902 28 c0 -8 -4 -15 -9 -15 -13 0
-22 16 -14 24 11 11 23 6 23 -9z m-453 -257 c29 -21 33 -28 33 -70 l0 -48 -70
0 -70 0 0 44 c0 38 5 48 33 70 17 14 34 26 36 26 3 0 20 -10 38 -22z m-4437 4
c0 -14 -86 -93 -93 -85 -4 4 12 26 35 50 41 41 58 52 58 35z m5150 -50 l0 -59
-32 1 c-26 1 -34 6 -36 24 -4 30 16 55 40 49 14 -4 18 1 18 19 0 13 2 24 5 24
3 0 5 -26 5 -58z m227 -34 c-2 -18 -4 -4 -4 32 0 36 2 50 4 33 2 -18 2 -48 0
-65z m433 82 c0 -5 -4 -10 -10 -10 -5 0 -10 5 -10 10 0 6 5 10 10 10 6 0 10
-4 10 -10z m27 -82 c-2 -18 -4 -4 -4 32 0 36 2 50 4 33 2 -18 2 -48 0 -65z
m-1153 66 c32 -32 10 -94 -34 -94 -26 0 -50 27 -50 55 0 28 24 55 50 55 10 0
26 -7 34 -16z m593 -4 c4 -12 3 -13 -5 -1 -12 17 -42 7 -42 -13 0 -8 8 -20 18
-26 16 -10 15 -10 -3 -8 -21 3 -31 29 -21 54 7 19 48 14 53 -6z m328 -52 c12
-34 12 -39 1 -25 -7 9 -25 17 -40 17 -18 0 -26 -5 -27 -17 0 -10 -3 -13 -5 -7
-3 6 5 33 16 60 24 54 28 52 55 -28z m-276 34 c-13 -5 -11 -46 3 -60 9 -9 9
-12 0 -12 -14 0 -27 49 -23 88 1 10 4 10 15 0 8 -7 10 -14 5 -16z m-535 -14
c14 -23 -3 -53 -30 -53 -12 0 -21 -9 -25 -25 -4 -16 -7 -3 -8 36 -1 60 0 61
25 60 15 -1 32 -9 38 -18z m84 -1 c3 -12 -3 -17 -22 -17 -32 0 -34 -17 -3 -30
22 -10 22 -10 -3 -7 -29 2 -40 38 -19 63 16 19 43 14 47 -9z m39 -39 c-2 -13
-4 -3 -4 22 0 25 2 35 4 23 2 -13 2 -33 0 -45z m49 17 c1 -28 0 -31 -3 -10 -2
17 -12 36 -21 43 -16 13 -15 14 3 10 16 -2 20 -12 21 -43z m92 23 c3 -14 -3
-18 -27 -18 -23 0 -29 -4 -25 -15 4 -8 16 -16 28 -16 19 -1 19 -2 2 -6 -12 -3
-25 2 -33 13 -20 27 -16 34 18 34 19 0 28 4 23 11 -3 6 -15 9 -25 6 -11 -3
-16 -1 -13 5 10 15 48 5 52 -14z m368 -23 c1 -28 0 -31 -3 -10 -2 17 -12 36
-21 43 -16 13 -15 14 3 10 16 -2 20 -12 21 -43z m282 17 c4 -29 -16 -55 -39
-49 -13 4 -19 -2 -22 -22 -2 -14 -5 1 -6 35 l-1 61 33 -1 c25 -1 33 -6 35 -24z
m39 -34 c-2 -13 -4 -3 -4 22 0 25 2 35 4 23 2 -13 2 -33 0 -45z m50 0 c-2 -13
-4 -3 -4 22 0 25 2 35 4 23 2 -13 2 -33 0 -45z m-507 42 c0 -5 -4 -10 -10 -10
-5 0 -10 5 -10 10 0 6 5 10 10 10 6 0 10 -4 10 -10z m-5290 -9 c0 -13 -26 -32
-33 -24 -8 7 11 33 24 33 5 0 9 -4 9 -9z m5270 -36 c-7 -8 -22 -14 -34 -14
-19 2 -19 2 2 6 13 3 26 11 29 19 3 8 8 13 11 10 3 -3 -1 -12 -8 -21z m187
-17 c-3 -8 -6 -5 -6 6 -1 11 2 17 5 13 3 -3 4 -12 1 -19z m-6596 -353 c37 -20
69 -70 69 -110 0 -62 -63 -125 -125 -125 -61 0 -125 63 -125 123 0 63 62 127
123 127 15 0 41 -7 58 -15z m-333 -7 c16 -16 16 -190 0 -206 -8 -8 -46 -12
-103 -12 -57 0 -95 4 -103 12 -8 8 -12 46 -12 103 0 57 4 95 12 103 16 16 190
16 206 0z m652 -8 c27 -27 25 -55 -6 -79 -34 -27 -40 -26 -69 4 -30 29 -31 35
-4 69 24 31 52 33 79 6z m-4400 -39 c0 -5 -4 -21 -10 -35 -9 -25 -8 -26 30
-26 22 0 40 -5 40 -11 0 -13 -92 -119 -104 -119 -5 0 -6 16 -3 35 5 33 4 35
-21 35 -58 0 -59 15 -8 74 43 51 76 71 76 47z m3240 -1 c0 -5 -11 -10 -24 -10
-14 0 -32 -10 -40 -22 -13 -19 -14 -25 -2 -43 7 -11 25 -21 40 -23 36 -4 33
-22 -4 -22 -34 0 -70 33 -70 65 0 32 36 65 70 65 17 0 30 -4 30 -10z m130 -12
c11 -12 20 -31 20 -43 0 -32 -36 -65 -70 -65 -17 0 -30 5 -30 10 0 6 11 10 24
10 14 0 32 10 40 22 13 19 14 25 2 43 -7 11 -25 21 -40 23 -36 4 -33 22 4 22
17 0 38 -9 50 -22z m1380 14 c0 -5 -11 -19 -25 -32 l-25 -24 27 -28 c39 -41
19 -48 -22 -8 l-35 34 32 33 c31 32 48 41 48 25z m98 -25 l32 -33 -35 -34
c-41 -40 -61 -33 -22 8 l27 28 -25 24 c-25 24 -32 40 -17 40 4 0 22 -15 40
-33z m-1964 -40 c21 -43 26 -61 18 -69 -8 -8 -13 -7 -18 5 -8 22 -72 23 -80 2
-8 -19 -24 -19 -24 0 0 24 53 125 65 122 5 -1 23 -29 39 -60z m154 46 c5 -10
10 -37 11 -60 1 -49 -19 -66 -72 -61 l-32 3 -3 68 -3 67 45 0 c33 0 48 -5 54
-17z m-1633 -33 c33 -34 27 -63 -18 -91 -47 -28 -82 -24 -125 15 l-37 34 21
29 c23 31 74 52 109 45 13 -2 35 -17 50 -32z m-2785 15 c18 -21 6 -29 -19 -13
-16 10 -23 10 -32 1 -10 -10 -8 -14 7 -18 57 -18 73 -57 31 -76 -26 -12 -67 1
-67 21 0 12 7 13 29 1 21 -12 51 3 36 18 -6 5 -19 11 -29 13 -10 1 -24 10 -29
20 -23 36 45 67 73 33z m290 -44 c0 -52 -3 -59 -22 -64 -32 -9 -58 10 -58 41
0 32 16 52 42 52 10 0 18 7 18 15 0 8 5 15 10 15 6 0 10 -26 10 -59z m1316 12
c10 -25 20 -40 22 -32 13 40 33 81 38 76 10 -9 -29 -117 -42 -117 -7 0 -19 19
-27 43 -8 23 -18 50 -22 60 -4 9 -3 17 3 17 6 0 18 -21 28 -47z m244 37 c0 -5
-4 -10 -10 -10 -5 0 -10 5 -10 10 0 6 5 10 10 10 6 0 10 -4 10 -10z m130 -8
c0 -13 8 -18 26 -17 31 0 46 -28 33 -62 -6 -18 -16 -23 -44 -23 l-35 0 0 60
c0 33 4 60 10 60 6 0 10 -8 10 -18z m100 -42 c0 -33 -4 -60 -10 -60 -6 0 -10
27 -10 60 0 33 4 60 10 60 6 0 10 -27 10 -60z m926 52 c33 -22 15 -72 -27 -72
-12 0 -19 -7 -19 -20 0 -11 -4 -20 -10 -20 -6 0 -10 27 -10 60 0 59 1 60 28
60 15 0 32 -4 38 -8z m294 -2 c0 -5 -4 -10 -10 -10 -5 0 -10 5 -10 10 0 6 5
10 10 10 6 0 10 -4 10 -10z m370 0 c0 -5 -13 -10 -30 -10 -20 0 -30 -5 -30
-15 0 -9 9 -15 25 -15 14 0 25 -4 25 -10 0 -5 -11 -10 -25 -10 -18 0 -25 -5
-25 -19 0 -15 8 -21 33 -24 28 -3 26 -4 -10 -5 l-43 -2 0 60 0 60 40 0 c22 0
40 -4 40 -10z m270 0 c0 -5 -4 -10 -10 -10 -5 0 -10 5 -10 10 0 6 5 10 10 10
6 0 10 -4 10 -10z m40 -50 c0 -33 -4 -60 -10 -60 -6 0 -10 27 -10 60 0 33 4
60 10 60 6 0 10 -27 10 -60z m-3440 15 l36 -35 34 35 c32 33 60 45 60 27 0 -4
-22 -30 -50 -57 l-50 -49 -45 44 c-44 43 -57 70 -33 70 7 0 28 -16 48 -35z
m5358 23 c-3 -8 -21 -13 -43 -13 -22 0 -40 5 -42 13 -3 8 9 12 42 12 33 0 45
-4 43 -12z m-1198 -13 c0 -12 -13 -15 -55 -15 -42 0 -55 3 -55 15 0 12 13 15
55 15 42 0 55 -3 55 -15z m-4602 -7 c21 -21 13 -38 -18 -38 -29 0 -38 -9 -23
-23 3 -4 12 -2 20 5 10 8 17 8 24 1 8 -8 5 -15 -11 -23 -17 -9 -26 -8 -46 5
-26 17 -30 35 -14 66 12 21 50 25 68 7z m96 -4 c12 -31 7 -74 -9 -74 -11 0
-15 11 -15 36 0 45 -24 42 -28 -4 -5 -49 -22 -38 -22 13 0 44 0 45 34 45 22 0
36 -6 40 -16z m1554 -31 l3 -43 -36 0 c-32 0 -36 3 -33 23 2 14 11 23 26 25
12 2 22 8 22 14 0 6 -10 8 -25 4 -14 -4 -25 -3 -25 2 0 16 14 23 40 20 22 -3
25 -8 28 -45z m72 37 c0 -5 -7 -10 -15 -10 -10 0 -15 -11 -15 -35 0 -19 -4
-35 -10 -35 -5 0 -10 20 -10 45 0 41 2 45 25 45 14 0 25 -4 25 -10z m30 -35
c0 -25 -4 -45 -10 -45 -5 0 -10 20 -10 45 0 25 5 45 10 45 6 0 10 -20 10 -45z
m88 -2 l3 -43 -36 0 c-32 0 -36 3 -33 23 2 14 11 23 26 25 12 2 22 8 22 14 0
6 -10 8 -25 4 -14 -4 -25 -3 -25 2 0 16 14 23 40 20 22 -3 25 -8 28 -45z m230
35 c22 -22 13 -38 -19 -38 -20 0 -29 -4 -26 -12 2 -7 14 -12 26 -11 11 2 21
-2 21 -8 0 -6 -14 -9 -32 -7 -28 2 -34 8 -36 31 -6 47 36 75 66 45z m90 -6 c3
-9 -3 -11 -22 -6 -34 8 -34 -4 0 -16 32 -12 29 -44 -5 -48 -27 -4 -49 12 -32
22 6 4 11 2 11 -3 0 -6 7 -11 15 -11 24 0 17 20 -10 30 -28 11 -31 20 -13 38
16 16 50 12 56 -6z m832 8 c0 -5 -7 -10 -15 -10 -10 0 -15 -11 -15 -35 0 -19
-4 -35 -10 -35 -5 0 -10 20 -10 45 0 41 2 45 25 45 14 0 25 -4 25 -10z m80 -9
c15 -29 13 -31 -26 -31 -32 0 -35 -2 -24 -15 8 -10 21 -13 33 -9 13 4 17 2 13
-5 -4 -6 -18 -11 -31 -11 -32 0 -48 30 -35 64 12 32 54 36 70 7z m42 -13 l12
-33 13 33 c20 49 34 38 15 -13 -9 -25 -21 -45 -27 -45 -5 0 -17 20 -26 45 -9
25 -12 45 -7 45 5 0 14 -15 20 -32z m88 -13 c0 -25 -4 -45 -10 -45 -5 0 -10
20 -10 45 0 25 5 45 10 45 6 0 10 -20 10 -45z m90 26 c15 -29 13 -31 -26 -31
-32 0 -35 -2 -24 -15 8 -10 21 -13 33 -9 13 4 17 2 13 -5 -4 -6 -18 -11 -31
-11 -32 0 -48 30 -35 64 12 32 54 36 70 7z m45 -8 l7 -28 10 28 c13 36 25 34
36 -5 l9 -33 7 33 c4 17 12 32 17 32 6 0 8 -8 5 -17 -3 -10 -8 -30 -12 -45 -7
-32 -34 -38 -34 -9 0 28 -18 36 -22 9 -5 -36 -24 -31 -36 10 -14 47 -15 52 -3
52 5 0 12 -12 16 -27z m373 -20 c2 -26 -1 -43 -7 -43 -6 0 -11 16 -11 35 0 24
-5 35 -15 35 -10 0 -15 -11 -15 -35 0 -19 -4 -35 -10 -35 -5 0 -10 16 -10 35
0 24 -5 35 -15 35 -10 0 -15 -11 -15 -35 0 -19 -4 -35 -10 -35 -5 0 -10 20
-10 45 l0 45 58 -2 57 -3 3 -42z m90 0 c3 -43 3 -43 -31 -43 -34 0 -48 13 -40
38 3 6 16 12 29 12 13 0 24 5 24 11 0 7 -10 9 -25 5 -14 -4 -25 -3 -25 2 0 16
14 23 40 20 22 -3 25 -8 28 -45z m42 2 c0 -25 -4 -45 -10 -45 -5 0 -10 20 -10
45 0 25 5 45 10 45 6 0 10 -20 10 -45z m8012 20 c0 -5 -5 -11 -11 -13 -6 -2
-11 4 -11 13 0 9 5 15 11 13 6 -2 11 -8 11 -13z m48 -65 c0 -40 -4 -70 -10
-70 -6 0 -10 30 -10 70 0 40 4 70 10 70 6 0 10 -30 10 -70z m-6188 43 c19 -17
25 -63 8 -63 -5 0 -10 8 -10 19 0 30 -25 42 -77 39 -44 -3 -49 -5 -59 -36 -5
-18 -13 -29 -17 -26 -12 13 -7 47 10 66 22 24 118 25 145 1z m5198 3 c0 -9 -8
-12 -25 -8 -34 6 -34 -21 0 -36 31 -14 41 -37 25 -57 -16 -19 -80 -20 -80 -2
0 9 10 12 30 9 17 -2 30 0 30 6 0 6 -13 20 -30 32 -32 23 -37 39 -18 58 17 17
68 15 68 -2z m50 -1 c0 -8 8 -15 18 -15 16 -1 16 -1 0 -14 -22 -16 -24 -66 -3
-66 8 0 15 -4 15 -10 0 -5 -11 -10 -25 -10 -22 0 -25 4 -25 39 0 22 -6 42 -12
45 -10 5 -10 7 0 12 6 3 12 12 12 20 0 8 5 14 10 14 6 0 10 -7 10 -15z m376 0
c4 -8 1 -22 -5 -29 -8 -10 -9 -16 -1 -21 16 -10 12 -52 -6 -59 -27 -10 -64 -7
-64 7 0 7 12 13 28 12 33 0 38 28 5 33 -28 4 -30 18 -3 25 29 7 25 27 -6 27
-14 0 -23 4 -19 10 10 16 65 12 71 -5z m204 5 c0 -5 -11 -10 -25 -10 -16 0
-25 -6 -25 -15 0 -9 9 -15 25 -15 14 0 25 -4 25 -10 0 -5 -11 -10 -25 -10 -18
0 -25 -5 -25 -20 0 -16 7 -20 30 -20 17 0 30 -4 30 -10 0 -5 -18 -10 -40 -10
l-40 0 0 65 0 65 35 0 c19 0 35 -4 35 -10z m-472 -32 c7 -7 12 -20 12 -30 0
-13 -8 -18 -31 -18 -19 0 -28 -4 -23 -11 3 -6 17 -8 31 -4 18 4 24 2 21 -7 -3
-7 -19 -14 -36 -16 -26 -3 -34 1 -44 22 -23 52 32 102 70 64z m120 -26 c4 -40
-12 -62 -44 -62 -17 0 -24 -6 -24 -20 0 -11 -4 -20 -10 -20 -6 0 -10 30 -10
69 l0 69 43 -2 c40 -1 42 -3 45 -34z m202 23 c0 -8 -4 -15 -9 -15 -13 0 -22
16 -14 24 11 11 23 6 23 -9z m312 1 c4 -6 8 -28 8 -48 0 -27 -4 -38 -15 -38
-11 0 -15 11 -15 41 0 52 -24 48 -28 -4 -5 -54 -32 -50 -32 4 0 52 -24 48 -28
-4 -2 -24 -8 -37 -18 -37 -10 0 -14 13 -14 50 l0 50 68 -1 c38 -1 70 -6 74
-13z m102 -2 c3 -9 6 -31 6 -50 0 -33 -1 -34 -39 -34 -27 0 -41 5 -45 16 -8
21 11 44 35 44 11 0 19 5 19 11 0 7 -10 9 -25 7 -14 -3 -25 -2 -25 2 0 24 65
28 74 4z m46 -34 c0 -27 -4 -50 -10 -50 -5 0 -10 23 -10 50 0 28 5 50 10 50 6
0 10 -22 10 -50z m-1362 -63 c4 -91 -2 -97 -93 -97 -106 0 -105 0 -105 84 0
40 3 76 7 80 4 4 48 5 98 4 l90 -3 3 -68z m902 28 c0 -8 -4 -15 -9 -15 -13 0
-22 16 -14 24 11 11 23 6 23 -9z m-453 -257 c29 -21 33 -28 33 -70 l0 -48 -70
0 -70 0 0 44 c0 38 5 48 33 70 17 14 34 26 36 26 3 0 20 -10 38 -22z m713 -46
l0 -59 -32 1 c-26 1 -34 6 -36 24 -4 30 16 55 40 49 14 -4 18 1 18 19 0 13 2
24 5 24 3 0 5 -26 5 -58z m310 -34 c-6 -26 -8 -20 -8 32 0 52 2 58 8 33 4 -18
4 -48 0 -65z m467 0 c-2 -18 -4 -4 -4 32 0 36 2 50 4 33 2 -18 2 -48 0 -65z
m-1243 66 c32 -32 10 -94 -34 -94 -26 0 -50 27 -50 55 0 28 24 55 50 55 10 0
26 -7 34 -16z m689 -56 c9 -6 9 -8 0 -8 -7 0 -14 -8 -14 -17 -1 -17 -2 -17 -6
0 -3 10 -14 17 -29 17 -30 0 -30 3 4 46 l27 34 3 -32 c2 -18 9 -36 15 -40z
m297 67 c0 -2 9 -28 20 -57 12 -31 15 -46 7 -35 -18 21 -67 23 -67 2 0 -8 -4
-15 -9 -15 -6 0 -3 17 6 38 17 43 29 58 19 25 -6 -19 -4 -23 14 -23 18 0 20 4
14 23 -3 12 -11 24 -15 25 -12 5 -11 22 1 22 6 0 10 -2 10 -5z m-412 -57 l-2
-53 -3 48 c-2 26 -8 45 -14 42 -5 -4 -9 -1 -9 4 0 6 7 11 15 11 12 0 15 -12
13 -52z m161 24 c-12 -5 -11 -59 1 -65 6 -3 5 -4 -2 -3 -13 3 -27 61 -20 83 3
9 7 9 17 0 7 -7 9 -13 4 -15z m-625 -14 c14 -23 -3 -53 -30 -53 -12 0 -21 -9
-25 -25 -4 -16 -7 -3 -8 36 -1 60 0 61 25 60 15 -1 32 -9 38 -18z m84 -1 c3
-12 -3 -17 -22 -17 -32 0 -34 -17 -3 -30 22 -10 22 -10 -3 -7 -29 2 -40 38
-19 63 16 19 43 14 47 -9z m39 -39 c-2 -13 -4 -3 -4 22 0 25 2 35 4 23 2 -13
2 -33 0 -45z m49 17 c1 -28 0 -31 -3 -10 -2 17 -12 36 -21 43 -16 13 -15 14 3
10 16 -2 20 -12 21 -43z m92 23 c3 -14 -3 -18 -27 -18 -23 0 -29 -4 -25 -15 4
-8 16 -16 28 -16 19 -1 19 -2 2 -6 -12 -3 -25 2 -33 13 -20 27 -16 34 18 34
19 0 28 4 23 11 -3 6 -15 9 -25 6 -11 -3 -16 -1 -13 5 10 15 48 5 52 -14z
m458 -2 c3 -14 4 -33 1 -43 -3 -10 -5 -4 -6 14 -1 19 -8 36 -18 42 -17 10 -17
10 -1 11 10 0 20 -10 24 -24z m278 2 c14 -23 -3 -53 -30 -53 -12 0 -21 -9 -25
-25 -4 -16 -7 -3 -8 36 -1 60 0 61 25 60 15 -1 32 -9 38 -18z m57 13 c-7 -5
-17 -24 -21 -42 l-8 -34 -1 40 c-1 35 2 41 21 42 16 2 19 0 9 -6z m36 -53 c-2
-13 -4 -3 -4 22 0 25 2 35 4 23 2 -13 2 -33 0 -45z m-17435 -1433 c8 -18 8
-28 -1 -39 -8 -10 -9 -16 -1 -21 16 -10 12 -62 -6 -69 -9 -3 -36 -6 -60 -6
l-44 0 0 80 0 80 50 0 c44 0 52 -3 62 -25z m58 -10 c0 -34 1 -35 40 -35 39 0
40 1 40 35 0 24 5 35 15 35 12 0 15 -16 15 -80 0 -64 -3 -80 -15 -80 -10 0
-15 11 -15 35 0 34 -1 35 -40 35 -39 0 -40 -1 -40 -35 0 -24 -5 -35 -15 -35
-12 0 -15 16 -15 80 0 64 3 80 15 80 10 0 15 -11 15 -35z"/>
<path d="M4760 10530 c0 -15 7 -20 25 -20 18 0 25 5 25 20 0 15 -7 20 -25 20
-18 0 -25 -5 -25 -20z"/>
<path d="M4760 10471 c0 -17 6 -21 31 -21 24 0 30 4 27 18 -2 10 -14 18 -31
20 -22 3 -27 -1 -27 -17z"/>
<path d="M5218 10472 c-20 -4 -23 -17 -7 -28 12 -7 33 10 28 23 -2 5 -12 7
-21 5z"/>
<path d="M5427 10514 c-14 -14 -6 -24 19 -24 16 0 24 5 22 13 -5 14 -31 21
-41 11z"/>
<path d="M15733 10323 c-17 -6 -16 -60 1 -66 17 -7 36 11 36 34 0 20 -21 38
-37 32z"/>
<path d="M15910 10310 c0 -46 2 -50 23 -50 30 0 47 18 47 50 0 32 -17 50 -47
50 -21 0 -23 -4 -23 -50z"/>
<path d="M12254 10305 c-8 -21 3 -48 19 -43 19 7 22 58 2 58 -8 0 -18 -7 -21
-15z"/>
<path d="M15477 10324 c-13 -13 -7 -24 14 -24 11 0 19 5 17 12 -5 14 -22 21
-31 12z"/>
<path d="M15597 10274 c-4 -4 -4 -11 -1 -15 8 -14 31 -10 38 6 5 15 -24 22
-37 9z"/>
<path d="M16077 10324 c-13 -13 -7 -24 14 -24 11 0 19 5 17 12 -5 14 -22 21
-31 12z"/>
<path d="M16277 10274 c-4 -4 -4 -11 -1 -15 8 -14 31 -10 38 6 5 15 -24 22
-37 9z"/>
<path d="M10990 10310 c0 -5 9 -10 20 -10 11 0 20 5 20 10 0 6 -9 10 -20 10
-11 0 -20 -4 -20 -10z"/>
<path d="M11085 10310 c-4 -6 5 -10 20 -10 15 0 24 4 20 10 -3 6 -12 10 -20
10 -8 0 -17 -4 -20 -10z"/>
<path d="M11370 10295 c0 -18 5 -25 20 -25 15 0 20 7 20 25 0 18 -5 25 -20 25
-15 0 -20 -7 -20 -25z"/>
<path d="M11637 10313 c-11 -10 -8 -41 4 -49 16 -9 41 20 33 39 -6 17 -25 22
-37 10z"/>
<path d="M11875 10310 c-8 -12 3 -50 14 -50 15 0 33 30 27 45 -6 17 -32 20
-41 5z"/>
<path d="M12010 10310 c0 -5 9 -10 21 -10 11 0 17 5 14 10 -3 6 -13 10 -21 10
-8 0 -14 -4 -14 -10z"/>
<path d="M12160 10310 c0 -5 9 -10 20 -10 11 0 20 5 20 10 0 6 -9 10 -20 10
-11 0 -20 -4 -20 -10z"/>
<path d="M13387 10313 c-11 -10 -8 -41 4 -49 16 -9 41 20 33 39 -6 17 -25 22
-37 10z"/>
<path d="M13565 10310 c-3 -5 3 -10 14 -10 12 0 21 5 21 10 0 6 -6 10 -14 10
-8 0 -18 -4 -21 -10z"/>
<path d="M4750 10200 c0 -17 5 -21 28 -18 16 2 27 9 27 18 0 9 -11 16 -27 18
-23 3 -28 -1 -28 -18z"/>
<path d="M5882 10238 c-16 -16 -15 -33 4 -48 22 -19 54 12 38 37 -14 22 -27
26 -42 11z"/>
<path d="M6115 10200 c-8 -12 20 -24 35 -15 5 3 10 10 10 16 0 12 -37 12 -45
-1z"/>
<path d="M6424 10236 c-10 -26 1 -51 21 -51 37 0 29 64 -8 65 -4 0 -10 -6 -13
-14z"/>
<path d="M1675 10021 c-8 -27 12 -63 33 -59 12 2 17 13 17 38 0 28 -4 36 -22
38 -14 2 -23 -3 -28 -17z"/>
<path d="M2894 10026 c-11 -28 0 -61 21 -61 16 0 20 7 20 35 0 25 -5 36 -18
38 -9 2 -20 -3 -23 -12z"/>
<path d="M1790 10020 c-13 -24 2 -60 25 -60 8 0 19 9 25 20 13 24 -2 60 -25
60 -8 0 -19 -9 -25 -20z"/>
<path d="M1997 10034 c-14 -14 -6 -24 19 -24 16 0 24 5 22 13 -5 14 -31 21
-41 11z"/>
<path d="M2347 10026 c-5 -12 1 -16 24 -16 20 0 29 4 27 13 -7 18 -45 20 -51
3z"/>
<path d="M2500 10025 c-11 -13 -8 -15 20 -15 21 0 30 4 28 13 -7 18 -33 20
-48 2z"/>
<path d="M2787 10034 c-14 -14 -6 -24 19 -24 16 0 24 5 22 13 -5 14 -31 21
-41 11z"/>
<path d="M322 9919 l-53 -41 3 -71 c3 -70 4 -72 31 -75 l27 -3 0 66 0 66 53
-3 52 -3 3 -62 c3 -59 4 -63 27 -63 24 0 25 2 24 78 l0 77 -49 38 c-27 20 -53
37 -57 37 -5 0 -32 -19 -61 -41z"/>
<path d="M360 9780 c0 -47 2 -50 25 -50 23 0 25 3 25 50 0 47 -2 50 -25 50
-23 0 -25 -3 -25 -50z"/>
<path d="M17310 9740 c0 -16 7 -20 30 -20 23 0 30 4 30 20 0 16 -7 20 -30 20
-23 0 -30 -4 -30 -20z"/>
<path d="M17312 9678 c4 -27 26 -34 52 -15 25 18 12 37 -25 37 -26 0 -30 -3
-27 -22z"/>
<path d="M15485 9677 c-11 -9 -14 -16 -7 -21 15 -9 42 4 42 20 0 18 -11 18
-35 1z"/>
<path d="M15750 9715 c-11 -13 -8 -15 18 -15 24 0 30 4 26 15 -4 8 -12 15 -19
15 -7 0 -18 -7 -25 -15z"/>
<path d="M17760 9675 c-10 -12 -9 -16 4 -21 16 -6 46 11 46 27 0 15 -37 10
-50 -6z"/>
<path d="M17977 9724 c-15 -15 -6 -24 24 -24 20 0 29 4 27 13 -5 14 -40 21
-51 11z"/>
<path d="M1052 9544 c-26 -18 -30 -65 -6 -88 23 -24 70 -20 88 6 21 30 20 54
-4 78 -24 24 -48 25 -78 4z"/>
<path d="M1487 9504 c-15 -16 -5 -24 29 -24 24 0 34 4 32 13 -5 13 -50 22 -61
11z"/>
<path d="M1621 9459 c-19 -8 -21 -12 -11 -24 7 -8 16 -15 21 -15 13 0 39 31
34 41 -7 11 -13 11 -44 -2z"/>
<path d="M9864 9425 c-3 -8 -3 -19 1 -25 11 -18 25 -11 25 15 0 27 -17 34 -26
10z"/>
<path d="M9783 9424 c-8 -22 15 -44 26 -25 10 16 4 41 -10 41 -5 0 -12 -7 -16
-16z"/>
<path d="M9940 9400 c0 -5 7 -10 15 -10 8 0 15 5 15 10 0 6 -7 10 -15 10 -8 0
-15 -4 -15 -10z"/>
<path d="M17407 9199 c-20 -12 -22 -32 -3 -48 18 -15 46 -4 46 19 0 26 -22 40
-43 29z"/>
<path d="M17995 9160 c-19 -37 -19 -40 5 -40 16 0 20 7 20 35 0 43 -5 44 -25
5z"/>
<path d="M18222 9148 c-16 -16 -15 -33 4 -48 22 -19 54 12 38 37 -14 22 -27
26 -42 11z"/>
<path d="M18447 9203 c-15 -14 -7 -43 12 -43 26 0 36 17 21 35 -14 16 -23 19
-33 8z"/>
<path d="M18433 9124 c-7 -18 14 -35 37 -31 8 1 16 12 18 25 3 18 -1 22 -23
22 -14 0 -28 -7 -32 -16z"/>
<path d="M18563 9203 c-19 -7 -16 -50 3 -57 19 -7 44 10 44 30 0 16 -30 33
-47 27z"/>
<path d="M15477 9163 c-12 -11 -8 -50 7 -62 11 -9 18 -8 30 4 19 19 19 21 6
46 -11 19 -31 25 -43 12z"/>
<path d="M15778 9122 c-20 -4 -23 -17 -7 -28 12 -7 33 10 28 23 -2 5 -12 7
-21 5z"/>
<path d="M16247 9164 c-12 -13 -8 -62 6 -67 23 -9 39 9 35 39 -3 27 -26 43
-41 28z"/>
<path d="M333 9089 c-31 -11 -40 -54 -18 -79 23 -26 57 -25 80 0 36 40 -10 99
-62 79z"/>
<path d="M2074 8945 c-7 -18 3 -35 22 -35 20 0 30 30 13 41 -20 12 -29 11 -35
-6z"/>
<path d="M442 8908 c4 -30 43 -33 43 -3 0 13 -8 21 -23 23 -20 3 -23 0 -20
-20z"/>
<path d="M1750 8910 c0 -5 9 -10 20 -10 11 0 20 5 20 10 0 6 -9 10 -20 10 -11
0 -20 -4 -20 -10z"/>
<path d="M2190 8910 c0 -5 9 -10 20 -10 11 0 20 5 20 10 0 6 -9 10 -20 10 -11
0 -20 -4 -20 -10z"/>
<path d="M2307 8905 c-9 -22 3 -46 22 -43 10 2 16 13 16 28 0 28 -29 40 -38
15z"/>
<path d="M2520 8910 c0 -5 9 -10 20 -10 11 0 20 5 20 10 0 6 -9 10 -20 10 -11
0 -20 -4 -20 -10z"/>
<path d="M3390 8910 c0 -5 9 -10 20 -10 11 0 20 5 20 10 0 6 -9 10 -20 10 -11
0 -20 -4 -20 -10z"/>
<path d="M3650 8910 c0 -5 9 -10 20 -10 11 0 20 5 20 10 0 6 -9 10 -20 10 -11
0 -20 -4 -20 -10z"/>
<path d="M5210 8740 c0 -28 3 -31 28 -28 21 2 27 8 27 28 0 20 -6 26 -27 28
-25 3 -28 0 -28 -28z"/>
<path d="M5347 8724 c-15 -15 -6 -24 24 -24 20 0 29 4 27 13 -5 14 -40 21 -51
11z"/>
<path d="M5474 8716 c-3 -8 -4 -25 -2 -38 2 -17 9 -23 28 -23 22 0 25 4 25 35
0 29 -4 36 -23 38 -13 2 -24 -3 -28 -12z"/>
<path d="M15910 8599 l0 -50 33 3 c29 3 32 6 35 42 4 42 -8 56 -45 56 -21 0
-23 -5 -23 -51z"/>
<path d="M16374 8595 c-8 -32 16 -61 41 -51 26 10 16 70 -12 74 -17 3 -24 -3
-29 -23z"/>
<path d="M17547 8603 c-4 -3 -7 -17 -7 -30 0 -26 34 -33 44 -8 11 30 -17 59
-37 38z"/>
<path d="M15628 8572 c-20 -4 -23 -17 -7 -28 12 -7 33 10 28 23 -2 5 -12 7
-21 5z"/>
<path d="M16813 8565 c-3 -9 -2 -19 1 -23 8 -8 38 10 44 26 6 18 -38 14 -45
-3z"/>
<path d="M17030 8605 c-11 -13 -8 -15 20 -15 21 0 30 4 28 13 -7 18 -33 20
-48 2z"/>
<path d="M17682 8604 c-15 -26 -3 -54 23 -54 28 0 43 34 25 55 -16 20 -37 19
-48 -1z"/>
<path d="M17963 8565 c-3 -9 -2 -19 1 -23 8 -8 38 10 44 26 6 18 -38 14 -45
-3z"/>
<path d="M18317 8614 c-12 -12 -8 -51 7 -63 24 -20 47 -2 44 33 -2 22 -9 32
-23 34 -12 2 -24 0 -28 -4z"/>
<path d="M920 8235 c-16 -19 -3 -57 18 -53 22 4 28 53 8 61 -8 3 -20 0 -26 -8z"/>
<path d="M1551 8226 c-15 -18 -3 -48 18 -44 21 4 27 44 7 51 -8 3 -19 0 -25
-7z"/>
<path d="M5660 8265 c0 -8 9 -15 20 -15 11 0 20 7 20 15 0 8 -9 15 -20 15 -11
0 -20 -7 -20 -15z"/>
<path d="M5660 8210 c0 -21 16 -26 39 -11 18 11 5 31 -20 31 -12 0 -19 -7 -19
-20z"/>
<path d="M6660 8219 c0 -25 33 -22 38 4 2 12 -3 17 -17 17 -15 0 -21 -6 -21
-21z"/>
<path d="M1700 8235 c-17 -20 -8 -50 15 -50 14 0 21 8 23 26 4 31 -20 45 -38
24z"/>
<path d="M1998 8202 c-10 -2 -18 -8 -18 -13 0 -13 27 -11 35 2 9 13 4 16 -17
11z"/>
<path d="M2353 8243 c-7 -3 -13 -18 -13 -35 0 -25 3 -29 23 -26 13 2 23 11 25
24 3 23 -16 44 -35 37z"/>
<path d="M5292 8251 c-21 -13 -11 -56 13 -56 15 0 20 7 20 29 0 31 -12 41 -33
27z"/>
<path d="M6045 8209 c-4 -6 -5 -13 -2 -16 7 -7 27 6 27 18 0 12 -17 12 -25 -2z"/>
<path d="M6225 8240 c-3 -5 3 -10 14 -10 12 0 21 5 21 10 0 6 -6 10 -14 10 -8
0 -18 -4 -21 -10z"/>
<path d="M6787 8243 c-15 -15 -7 -43 13 -43 15 0 20 7 20 25 0 24 -18 34 -33
18z"/>
<path d="M7025 8211 c-3 -5 -1 -12 5 -16 12 -7 30 2 30 16 0 12 -27 12 -35 0z"/>
<path d="M7326 8234 c-9 -23 19 -53 35 -37 15 15 7 47 -12 51 -9 2 -19 -5 -23
-14z"/>
<path d="M4084 8199 c-11 -18 13 -34 31 -19 8 7 15 16 15 21 0 13 -38 11 -46
-2z"/>
<path d="M260 8211 c0 -8 112 -81 124 -81 12 0 116 73 116 81 0 5 -54 9 -120
9 -66 0 -120 -4 -120 -9z"/>
<path d="M262 8104 l3 -69 118 -3 117 -3 0 71 0 70 -55 -37 c-55 -36 -56 -36
-88 -20 -18 9 -47 26 -65 38 l-33 22 3 -69z"/>
<path d="M15812 8058 c-17 -17 -15 -43 4 -59 14 -11 18 -10 30 6 8 10 14 24
14 30 0 12 -20 35 -30 35 -3 0 -11 -5 -18 -12z"/>
<path d="M16774 8045 c-8 -32 14 -59 40 -49 27 10 18 68 -11 72 -17 3 -24 -3
-29 -23z"/>
<path d="M18254 8045 c-8 -32 14 -59 40 -49 27 10 18 68 -11 72 -17 3 -24 -3
-29 -23z"/>
<path d="M18377 8064 c-12 -13 -8 -51 8 -64 21 -18 47 5 43 39 -3 26 -35 41
-51 25z"/>
<path d="M15700 8055 c-11 -13 -8 -15 20 -15 28 0 31 2 20 15 -7 8 -16 15 -20
15 -4 0 -13 -7 -20 -15z"/>
<path d="M16667 8064 c-15 -15 -6 -24 24 -24 20 0 29 4 27 13 -5 14 -40 21
-51 11z"/>
<path d="M17204 8045 c-8 -32 16 -61 41 -51 26 10 16 70 -12 74 -17 3 -24 -3
-29 -23z"/>
<path d="M18150 8015 c-10 -12 -9 -16 4 -21 16 -6 46 11 46 27 0 15 -37 10
-50 -6z"/>
<path d="M18497 8063 c-15 -14 -6 -23 23 -23 22 0 28 4 24 15 -6 15 -35 20
-47 8z"/>
<path d="M1194 7986 c-10 -26 1 -51 21 -51 37 0 29 64 -8 65 -4 0 -10 -6 -13
-14z"/>
<path d="M5862 7833 c2 -17 9 -28 18 -28 9 0 16 11 18 28 3 22 -1 27 -18 27
-17 0 -21 -5 -18 -27z"/>
<path d="M6310 7830 c0 -11 7 -20 15 -20 8 0 15 9 15 20 0 11 -7 20 -15 20 -8
0 -15 -9 -15 -20z"/>
<path d="M5352 7861 c-21 -13 -11 -56 13 -56 15 0 20 7 20 29 0 31 -12 41 -33
27z"/>
<path d="M6424 7845 c-4 -9 -2 -21 4 -27 15 -15 44 -1 40 19 -4 23 -36 29 -44
8z"/>
<path d="M6665 7821 c-3 -5 -1 -12 5 -16 12 -7 30 2 30 16 0 12 -27 12 -35 0z"/>
<path d="M6972 7833 c2 -17 9 -28 18 -28 9 0 16 11 18 28 3 22 -1 27 -18 27
-17 0 -21 -5 -18 -27z"/>
<path d="M2350 7653 c-30 -13 -32 -16 -16 -25 14 -8 24 -5 44 14 l27 23 -23
-26 c-21 -24 -22 -59 -3 -59 10 0 32 71 25 82 -7 10 -12 10 -54 -9z"/>
<path d="M1824 7615 c-7 -18 3 -35 22 -35 8 0 14 10 14 25 0 27 -27 35 -36 10z"/>
<path d="M1420 7620 c0 -5 9 -10 21 -10 11 0 17 5 14 10 -3 6 -13 10 -21 10
-8 0 -14 -4 -14 -10z"/>
<path d="M1550 7620 c0 -5 7 -10 15 -10 8 0 15 5 15 10 0 6 -7 10 -15 10 -8 0
-15 -4 -15 -10z"/>
<path d="M1750 7620 c0 -5 7 -10 15 -10 8 0 15 5 15 10 0 6 -7 10 -15 10 -8 0
-15 -4 -15 -10z"/>
<path d="M2600 7589 c0 -5 5 -7 10 -4 6 3 10 8 10 11 0 2 -4 4 -10 4 -5 0 -10
-5 -10 -11z"/>
<path d="M2800 7605 c0 -9 5 -15 11 -13 6 2 11 8 11 13 0 5 -5 11 -11 13 -6 2
-11 -4 -11 -13z"/>
<path d="M2880 7589 c0 -5 5 -7 10 -4 6 3 10 8 10 11 0 2 -4 4 -10 4 -5 0 -10
-5 -10 -11z"/>
<path d="M3000 7605 c0 -8 5 -15 10 -15 6 0 10 7 10 15 0 8 -4 15 -10 15 -5 0
-10 -7 -10 -15z"/>
<path d="M3300 7589 c0 -5 5 -7 10 -4 6 3 10 8 10 11 0 2 -4 4 -10 4 -5 0 -10
-5 -10 -11z"/>
<path d="M3495 7620 c-3 -5 1 -10 10 -10 9 0 13 5 10 10 -3 6 -8 10 -10 10 -2
0 -7 -4 -10 -10z"/>
<path d="M17630 7515 c0 -21 5 -25 30 -25 25 0 30 4 30 25 0 21 -5 25 -30 25
-25 0 -30 -4 -30 -25z"/>
<path d="M18344 7485 c-9 -36 17 -65 41 -45 23 19 15 64 -12 68 -17 3 -24 -3
-29 -23z"/>
<path d="M15477 7503 c-12 -11 -8 -50 7 -62 11 -9 18 -8 30 4 19 19 19 21 6
46 -11 19 -31 25 -43 12z"/>
<path d="M15757 7504 c-12 -13 -8 -62 6 -67 23 -9 39 9 35 39 -3 27 -26 43
-41 28z"/>
<path d="M15878 7462 c-20 -4 -23 -17 -7 -28 12 -7 33 10 28 23 -2 5 -12 7
-21 5z"/>
<path d="M16385 7457 c-11 -9 -14 -16 -7 -21 15 -9 42 4 42 20 0 18 -11 18
-35 1z"/>
<path d="M16650 7495 c-11 -13 -8 -15 18 -15 24 0 30 4 26 15 -4 8 -12 15 -19
15 -7 0 -18 -7 -25 -15z"/>
<path d="M17757 7503 c-15 -14 -6 -23 23 -23 22 0 28 4 24 15 -6 15 -35 20
-47 8z"/>
<path d="M17863 7455 c-3 -9 -2 -19 1 -23 8 -8 38 10 44 26 6 18 -38 14 -45
-3z"/>
<path d="M18454 7485 c-8 -32 16 -61 41 -51 26 10 16 70 -12 74 -17 3 -24 -3
-29 -23z"/>
<path d="M5402 7468 c-17 -17 -15 -48 4 -55 24 -9 46 24 33 48 -11 22 -20 24
-37 7z"/>
<path d="M5530 7465 c-11 -13 -8 -15 20 -15 28 0 31 2 20 15 -7 8 -16 15 -20
15 -4 0 -13 -7 -20 -15z"/>
<path d="M372 7328 c-45 -17 -81 -32 -79 -34 2 -2 19 -10 38 -18 l36 -15 49
50 c26 27 46 49 44 48 -3 0 -42 -14 -88 -31z"/>
<path d="M431 7286 c-43 -43 -43 -44 -30 -80 7 -20 16 -36 19 -36 3 0 18 36
32 80 14 44 25 80 24 80 -1 0 -21 -20 -45 -44z"/>
<path d="M5323 7053 c-22 -8 -14 -23 13 -23 15 0 24 5 22 12 -5 14 -18 18 -35
11z"/>
<path d="M5492 7051 c-21 -13 -11 -56 13 -56 15 0 20 7 20 29 0 31 -12 41 -33
27z"/>
<path d="M5722 7051 c-21 -13 -11 -56 13 -56 15 0 20 7 20 29 0 31 -12 41 -33
27z"/>
<path d="M15377 6876 c-11 -27 -8 -36 8 -36 16 0 17 5 6 34 -7 18 -8 18 -14 2z"/>
<path d="M16087 6874 c-13 -13 -7 -24 14 -24 11 0 19 5 17 12 -5 14 -22 21
-31 12z"/>
<path d="M15770 6190 c-11 -7 -12 -12 -3 -21 13 -13 33 -4 33 17 0 16 -9 18
-30 4z"/>
<path d="M16122 6228 c-28 -28 3 -83 33 -58 8 7 15 20 15 29 0 17 -18 41 -30
41 -3 0 -11 -5 -18 -12z"/>
<path d="M16255 6190 c-3 -5 -4 -14 0 -20 8 -13 35 -1 35 16 0 16 -26 19 -35
4z"/>
<path d="M16452 6228 c-17 -17 -15 -55 4 -62 20 -8 44 10 44 33 0 17 -18 41
-30 41 -3 0 -11 -5 -18 -12z"/>
<path d="M16984 6189 c-8 -14 11 -33 25 -25 6 4 11 14 11 22 0 16 -26 19 -36
3z"/>
<path d="M17330 6225 c-11 -13 -9 -15 15 -15 16 0 25 5 23 12 -7 19 -24 20
-38 3z"/>
<path d="M16490 5655 c0 -32 3 -36 23 -33 17 2 22 10 22 33 0 23 -5 31 -22 33
-20 3 -23 -1 -23 -33z"/>
<path d="M15878 5653 c7 -3 16 -2 19 1 4 3 -2 6 -13 5 -11 0 -14 -3 -6 -6z"/>
<path d="M15965 5650 c-8 -14 3 -30 21 -30 8 0 14 9 14 20 0 21 -24 28 -35 10z"/>
<path d="M16610 5630 c-13 -8 -12 -10 3 -10 9 0 17 5 17 10 0 12 -1 12 -20 0z"/>
<path d="M17158 5653 c7 -3 16 -2 19 1 4 3 -2 6 -13 5 -11 0 -14 -3 -6 -6z"/>
<path d="M17240 5640 c0 -11 7 -20 15 -20 8 0 15 9 15 20 0 11 -7 20 -15 20
-8 0 -15 -9 -15 -20z"/>
<path d="M17438 5653 c7 -3 16 -2 19 1 4 3 -2 6 -13 5 -11 0 -14 -3 -6 -6z"/>
<path d="M17698 5653 c7 -3 16 -2 19 1 4 3 -2 6 -13 5 -11 0 -14 -3 -6 -6z"/>
<path d="M290 5590 l-20 -40 34 0 c25 0 38 -6 46 -20 6 -11 20 -20 30 -20 11
0 25 9 32 20 9 13 24 20 45 20 38 0 38 -1 16 45 l-17 35 -73 0 -73 0 -20 -40z"/>
<path d="M262 5483 l3 -38 115 0 115 0 3 38 c3 35 2 37 -27 37 -20 0 -35 -7
-43 -20 -9 -13 -24 -20 -45 -20 -22 0 -37 7 -45 20 -9 13 -24 20 -46 20 -32 0
-33 -1 -30 -37z"/>
<path d="M16420 5160 c0 -5 9 -10 21 -10 11 0 17 5 14 10 -3 6 -13 10 -21 10
-8 0 -14 -4 -14 -10z"/>
<path d="M16525 5150 c-8 -26 7 -45 30 -36 21 8 16 50 -7 54 -10 2 -19 -5 -23
-18z"/>
<path d="M17120 5120 c0 -5 7 -10 15 -10 8 0 15 5 15 10 0 6 -7 10 -15 10 -8
0 -15 -4 -15 -10z"/>
<path d="M15710 5135 c0 -3 18 -16 39 -31 l39 -25 41 27 c23 14 41 28 41 30 0
2 -36 4 -80 4 -44 0 -80 -2 -80 -5z"/>
<path d="M15710 5061 l0 -41 80 0 80 0 0 40 c0 45 -5 48 -40 20 -32 -25 -45
-25 -86 1 l-34 21 0 -41z"/>
<path d="M16320 4853 c-8 -3 -26 -10 -40 -15 -23 -9 -24 -10 -6 -20 15 -8 23
-5 44 16 27 27 27 28 2 19z"/>
<path d="M16322 4817 c-14 -15 -18 -27 -12 -37 11 -17 14 -14 28 28 13 38 12
39 -16 9z"/>
<path d="M17206 4814 c-10 -26 -7 -34 13 -34 14 0 18 5 14 20 -7 27 -20 34
-27 14z"/>
<path d="M16600 4800 c0 -5 9 -10 20 -10 11 0 20 5 20 10 0 6 -9 10 -20 10
-11 0 -20 -4 -20 -10z"/>
<path d="M16420 4190 c0 -5 9 -10 21 -10 11 0 17 5 14 10 -3 6 -13 10 -21 10
-8 0 -14 -4 -14 -10z"/>
<path d="M16525 4180 c-8 -26 7 -45 30 -36 21 8 16 50 -7 54 -10 2 -19 -5 -23
-18z"/>
<path d="M17150 4150 c0 -5 7 -10 15 -10 8 0 15 5 15 10 0 6 -7 10 -15 10 -8
0 -15 -4 -15 -10z"/>
<path d="M15710 4155 c0 -3 18 -16 39 -31 l39 -25 41 27 c23 14 41 28 41 30 0
2 -36 4 -80 4 -44 0 -80 -2 -80 -5z"/>
<path d="M15710 4081 l0 -41 80 0 80 0 0 40 c0 45 -5 48 -40 20 -32 -25 -45
-25 -86 1 l-34 21 0 -41z"/>
<path d="M16265 3866 l-29 -23 34 -18 c27 -14 37 -15 53 -6 10 7 21 10 24 7 3
-3 -6 -11 -21 -17 -23 -11 -32 -10 -57 5 l-29 17 0 -30 0 -31 60 0 61 0 -3 41
c-1 31 -8 45 -29 60 -33 23 -28 24 -64 -5z"/>
<path d="M16994 3826 c-9 -24 4 -48 23 -44 12 2 18 12 18 28 0 29 -32 41 -41
16z"/>
<path d="M16520 3856 c-28 -35 11 -93 48 -70 35 22 22 84 -18 84 -10 0 -23 -7
-30 -14z"/>
<path d="M17462 3840 c-7 -19 -6 -26 5 -28 22 -5 27 5 16 30 l-11 23 -10 -25z"/>
<path d="M16644 3826 c-9 -24 4 -48 23 -44 12 2 18 12 18 28 0 29 -32 41 -41
16z"/>
<path d="M16735 3830 c-3 -5 3 -10 14 -10 12 0 21 5 21 10 0 6 -6 10 -14 10
-8 0 -18 -4 -21 -10z"/>
<path d="M17554 3826 c-9 -24 4 -48 23 -44 12 2 18 12 18 28 0 29 -32 41 -41
16z"/>
<path d="M10660 3393 c-23 -12 -39 -30 -48 -55 -13 -33 -12 -41 4 -75 39 -79
146 -77 180 2 37 89 -51 171 -136 128z m20 -53 c0 -5 -4 -10 -10 -10 -5 0 -10
5 -10 10 0 6 5 10 10 10 6 0 10 -4 10 -10z m70 0 c0 -5 -4 -10 -10 -10 -5 0
-10 5 -10 10 0 6 5 10 10 10 6 0 10 -4 10 -10z m-61 -59 c9 -6 23 -5 38 2 28
12 41 3 23 -18 -23 -27 -100 -14 -100 17 0 11 21 10 39 -1z"/>
<path d="M10240 3305 c0 -47 3 -85 7 -85 3 0 32 25 64 55 51 48 61 55 79 45
19 -10 20 -8 20 30 l0 40 -85 0 -85 0 0 -85z m80 46 c14 -28 -13 -55 -41 -41
-19 10 -26 40 -12 53 13 14 43 7 53 -12z"/>
<path d="M10280 3340 c0 -5 5 -10 10 -10 6 0 10 5 10 10 0 6 -4 10 -10 10 -5
0 -10 -4 -10 -10z"/>
<path d="M10335 3260 l-39 -40 57 0 c56 0 57 1 57 28 0 26 -15 52 -30 52 -3 0
-24 -18 -45 -40z"/>
<path d="M11014 3376 c-10 -26 4 -48 28 -44 17 2 23 10 23 28 0 18 -6 26 -23
28 -13 2 -25 -3 -28 -12z"/>
<path d="M6617 3302 c-35 -37 -34 -42 9 -42 34 0 36 -2 31 -26 -4 -25 -4 -25
30 8 l34 33 -38 5 c-32 4 -38 8 -36 28 3 28 2 28 -30 -6z"/>
<path d="M9515 3300 c-8 -13 -1 -24 14 -19 6 3 7 10 2 18 -6 10 -10 10 -16 1z"/>
<path d="M9650 3320 c0 -5 11 -10 25 -10 14 0 25 5 25 10 0 6 -11 10 -25 10
-14 0 -25 -4 -25 -10z"/>
<path d="M9650 3265 c0 -12 7 -15 25 -13 14 2 26 8 26 13 0 6 -12 11 -26 13
-18 2 -25 -1 -25 -13z"/>
<path d="M7957 3300 c-31 -25 -26 -45 15 -66 33 -17 72 -12 101 13 22 21 22
28 -5 53 -28 26 -78 26 -111 0z m83 -5 c6 -8 9 -23 5 -35 -10 -31 -59 -24 -63
9 -6 37 34 55 58 26z"/>
<path d="M7996 3281 c-3 -5 1 -14 8 -20 16 -13 32 2 21 19 -8 12 -22 13 -29 1z"/>
<path d="M5534 3275 c-7 -18 14 -47 27 -39 5 3 9 16 9 30 0 27 -27 34 -36 9z"/>
<path d="M7287 3283 c-11 -10 -8 -41 5 -49 14 -9 38 23 31 42 -5 15 -25 19
-36 7z"/>
<path d="M8260 3300 c0 -13 7 -20 20 -20 13 0 20 7 20 20 0 13 -7 20 -20 20
-13 0 -20 -7 -20 -20z"/>
<path d="M5350 3280 c0 -5 7 -10 15 -10 8 0 15 5 15 10 0 6 -7 10 -15 10 -8 0
-15 -4 -15 -10z"/>
<path d="M7005 3249 c-4 -6 -5 -13 -2 -16 7 -7 27 6 27 18 0 12 -17 12 -25 -2z"/>
<path d="M7195 3249 c-4 -6 -5 -13 -2 -16 7 -7 27 6 27 18 0 12 -17 12 -25 -2z"/>
<path d="M7420 3280 c0 -5 9 -10 20 -10 11 0 20 5 20 10 0 6 -9 10 -20 10 -11
0 -20 -4 -20 -10z"/>
<path d="M8415 3280 c-4 -6 5 -10 20 -10 15 0 24 4 20 10 -3 6 -12 10 -20 10
-8 0 -17 -4 -20 -10z"/>
<path d="M8635 3280 c-4 -6 5 -10 20 -10 15 0 24 4 20 10 -3 6 -12 10 -20 10
-8 0 -17 -4 -20 -10z"/>
<path d="M9145 3251 c-3 -5 -1 -12 5 -16 12 -7 30 2 30 16 0 12 -27 12 -35 0z"/>
<path d="M16420 3220 c0 -5 9 -10 21 -10 11 0 17 5 14 10 -3 6 -13 10 -21 10
-8 0 -14 -4 -14 -10z"/>
<path d="M16525 3210 c-8 -26 7 -45 30 -36 21 8 16 50 -7 54 -10 2 -19 -5 -23
-18z"/>
<path d="M17150 3180 c0 -5 7 -10 15 -10 8 0 15 5 15 10 0 6 -7 10 -15 10 -8
0 -15 -4 -15 -10z"/>
<path d="M15710 3185 c0 -3 18 -16 39 -31 l39 -25 41 27 c23 14 41 28 41 30 0
2 -36 4 -80 4 -44 0 -80 -2 -80 -5z"/>
<path d="M15710 3111 l0 -41 80 0 80 0 0 40 c0 45 -5 48 -40 20 -32 -25 -45
-25 -86 1 l-34 21 0 -41z"/>
<path d="M16265 2896 l-29 -23 34 -18 c27 -14 37 -15 53 -6 10 7 21 10 24 7 3
-3 -6 -11 -21 -17 -23 -11 -32 -10 -57 5 l-29 17 0 -30 0 -31 60 0 61 0 -3 41
c-1 31 -8 45 -29 60 -33 23 -28 24 -64 -5z"/>
<path d="M16994 2856 c-9 -24 4 -48 23 -44 12 2 18 12 18 28 0 29 -32 41 -41
16z"/>
<path d="M16520 2886 c-28 -35 11 -93 48 -70 35 22 22 84 -18 84 -10 0 -23 -7
-30 -14z"/>
<path d="M17225 2860 c-18 -19 -17 -20 3 -20 15 0 22 6 22 20 0 11 -2 20 -3
20 -2 0 -12 -9 -22 -20z"/>
<path d="M16644 2856 c-9 -24 4 -48 23 -44 12 2 18 12 18 28 0 29 -32 41 -41
16z"/>
<path d="M16735 2860 c-3 -5 3 -10 14 -10 12 0 21 5 21 10 0 6 -6 10 -14 10
-8 0 -18 -4 -21 -10z"/>
<path d="M17644 2856 c-9 -24 4 -48 23 -44 12 2 18 12 18 28 0 29 -32 41 -41
16z"/>
<path d="M270 1365 c0 -26 22 -33 49 -16 21 13 5 41 -24 41 -20 0 -25 -5 -25
-25z"/>
<path d="M270 1295 c0 -21 5 -25 29 -25 17 0 33 5 36 10 10 16 -15 40 -41 40
-19 0 -24 -5 -24 -25z"/>
<path d="M19045 10670 l-29 -30 59 0 59 0 -29 30 c-16 17 -29 30 -30 30 -1 0
-14 -13 -30 -30z"/>
</g>
</svg>
